Gabriela-Regular.ufo
<glyph name="exclam" format="1">
  <advance width="246"/>
  <unicode hex="0021"/>
  <outline>
    <contour>
      <point x="186" y="742" type="curve"/>
      <point x="186" y="704"/>
      <point x="182" y="638"/>
      <point x="175" y="544" type="curve" smooth="yes"/>
      <point x="168" y="450"/>
      <point x="159" y="350"/>
      <point x="148" y="243" type="curve" smooth="yes"/>
      <point x="145" y="213"/>
      <point x="136" y="198"/>
      <point x="123" y="198" type="curve" smooth="yes"/>
      <point x="110" y="198"/>
      <point x="101" y="213"/>
      <point x="98" y="243" type="curve" smooth="yes"/>
      <point x="87" y="350"/>
      <point x="78" y="450"/>
      <point x="71" y="544" type="curve" smooth="yes"/>
      <point x="64" y="638"/>
      <point x="60" y="704"/>
      <point x="60" y="742" type="curve"/>
      <point x="75" y="759"/>
      <point x="96" y="767"/>
      <point x="123" y="767" type="curve" smooth="yes"/>
      <point x="149" y="767"/>
      <point x="170" y="759"/>
    </contour>
    <contour>
      <point x="123" y="117" type="curve" smooth="yes"/>
      <point x="136" y="117"/>
      <point x="149" y="109"/>
      <point x="164" y="94" type="curve" smooth="yes"/>
      <point x="179" y="79"/>
      <point x="186" y="64"/>
      <point x="186" y="51" type="curve" smooth="yes"/>
      <point x="186" y="38"/>
      <point x="179" y="24"/>
      <point x="164" y="9" type="curve" smooth="yes"/>
      <point x="149" y="-6"/>
      <point x="136" y="-14"/>
      <point x="123" y="-14" type="curve" smooth="yes"/>
      <point x="112" y="-14"/>
      <point x="99" y="-6"/>
      <point x="84" y="9" type="curve" smooth="yes"/>
      <point x="69" y="24"/>
      <point x="62" y="38"/>
      <point x="62" y="51" type="curve" smooth="yes"/>
      <point x="62" y="64"/>
      <point x="69" y="78"/>
      <point x="83" y="93" type="curve" smooth="yes"/>
      <point x="98" y="109"/>
      <point x="111" y="117"/>
    </contour>
  </outline>
</glyph>
<glyph name="quotedbl" format="1">
  <advance width="343"/>
  <unicode hex="0022"/>
  <outline>
    <contour>
      <point x="140" y="804" type="curve"/>
      <point x="140" y="784"/>
      <point x="137" y="753"/>
      <point x="131" y="712" type="curve" smooth="yes"/>
      <point x="126" y="671"/>
      <point x="118" y="630"/>
      <point x="109" y="591" type="curve" smooth="yes"/>
      <point x="106" y="578"/>
      <point x="99" y="572"/>
      <point x="89" y="572" type="curve" smooth="yes"/>
      <point x="79" y="572"/>
      <point x="72" y="578"/>
      <point x="69" y="591" type="curve" smooth="yes"/>
      <point x="60" y="626"/>
      <point x="53" y="665"/>
      <point x="47" y="707" type="curve" smooth="yes"/>
      <point x="41" y="750"/>
      <point x="38" y="782"/>
      <point x="38" y="804" type="curve"/>
      <point x="50" y="824"/>
      <point x="67" y="834"/>
      <point x="89" y="834" type="curve" smooth="yes"/>
      <point x="111" y="834"/>
      <point x="128" y="824"/>
    </contour>
    <contour>
      <point x="305" y="804" type="curve"/>
      <point x="305" y="784"/>
      <point x="302" y="753"/>
      <point x="296" y="712" type="curve" smooth="yes"/>
      <point x="291" y="671"/>
      <point x="283" y="630"/>
      <point x="274" y="591" type="curve" smooth="yes"/>
      <point x="271" y="578"/>
      <point x="264" y="572"/>
      <point x="254" y="572" type="curve" smooth="yes"/>
      <point x="244" y="572"/>
      <point x="237" y="578"/>
      <point x="234" y="591" type="curve" smooth="yes"/>
      <point x="225" y="626"/>
      <point x="218" y="665"/>
      <point x="212" y="707" type="curve" smooth="yes"/>
      <point x="206" y="750"/>
      <point x="203" y="782"/>
      <point x="203" y="804" type="curve"/>
      <point x="215" y="824"/>
      <point x="232" y="834"/>
      <point x="254" y="834" type="curve" smooth="yes"/>
      <point x="276" y="834"/>
      <point x="293" y="824"/>
    </contour>
  </outline>
</glyph>
<glyph name="numbersign" format="1">
  <advance width="696"/>
  <unicode hex="0023"/>
  <outline>
    <contour>
      <point x="124" y="490" type="line"/>
      <point x="224" y="490" type="line"/>
      <point x="287" y="718" type="line"/>
      <point x="359" y="718" type="line"/>
      <point x="296" y="490" type="line"/>
      <point x="474" y="490" type="line"/>
      <point x="537" y="718" type="line"/>
      <point x="609" y="718" type="line"/>
      <point x="546" y="490" type="line"/>
      <point x="646" y="490" type="line"/>
      <point x="627" y="424" type="line"/>
      <point x="527" y="424" type="line"/>
      <point x="490" y="290" type="line"/>
      <point x="590" y="290" type="line"/>
      <point x="571" y="224" type="line"/>
      <point x="471" y="224" type="line"/>
      <point x="409" y="0" type="line"/>
      <point x="338" y="0" type="line"/>
      <point x="400" y="224" type="line"/>
      <point x="221" y="224" type="line"/>
      <point x="159" y="0" type="line"/>
      <point x="88" y="0" type="line"/>
      <point x="150" y="224" type="line"/>
      <point x="50" y="224" type="line"/>
      <point x="68" y="290" type="line"/>
      <point x="168" y="290" type="line"/>
      <point x="205" y="424" type="line"/>
      <point x="106" y="424" type="line"/>
    </contour>
    <contour>
      <point x="240" y="290" type="line"/>
      <point x="418" y="290" type="line"/>
      <point x="455" y="424" type="line"/>
      <point x="277" y="424" type="line"/>
    </contour>
  </outline>
</glyph>
<glyph name="dollar" format="1">
  <advance width="581"/>
  <unicode hex="0024"/>
  <outline>
    <contour>
      <point x="408" y="169" type="curve" smooth="yes"/>
      <point x="408" y="216"/>
      <point x="379" y="248"/>
      <point x="340" y="269" type="curve" smooth="yes"/>
      <point x="321" y="280"/>
      <point x="295" y="293"/>
      <point x="262" y="308" type="curve" smooth="yes"/>
      <point x="178" y="345"/>
      <point x="130" y="370"/>
      <point x="93" y="425" type="curve" smooth="yes"/>
      <point x="75" y="453"/>
      <point x="66" y="488"/>
      <point x="66" y="529" type="curve" smooth="yes"/>
      <point x="66" y="619"/>
      <point x="129" y="709"/>
      <point x="253" y="717" type="curve"/>
      <point x="253" y="848" type="line"/>
      <point x="266" y="864"/>
      <point x="292" y="872"/>
      <point x="316" y="872" type="curve"/>
      <point x="316" y="715" type="line"/>
      <point x="409" y="704"/>
      <point x="478" y="656"/>
      <point x="478" y="581" type="curve" smooth="yes"/>
      <point x="478" y="520"/>
      <point x="431" y="475"/>
      <point x="371" y="475" type="curve" smooth="yes"/>
      <point x="355" y="475"/>
      <point x="350" y="476"/>
      <point x="350" y="487" type="curve" smooth="yes"/>
      <point x="350" y="495"/>
      <point x="380" y="529"/>
      <point x="380" y="573" type="curve" smooth="yes"/>
      <point x="380" y="629"/>
      <point x="332" y="662"/>
      <point x="277" y="662" type="curve" smooth="yes"/>
      <point x="202" y="662"/>
      <point x="161" y="612"/>
      <point x="161" y="555" type="curve" smooth="yes"/>
      <point x="161" y="494"/>
      <point x="194" y="454"/>
      <point x="238" y="429" type="curve" smooth="yes"/>
      <point x="260" y="416"/>
      <point x="289" y="402"/>
      <point x="326" y="386" type="curve" smooth="yes"/>
      <point x="407" y="351"/>
      <point x="451" y="330"/>
      <point x="484" y="279" type="curve" smooth="yes"/>
      <point x="501" y="254"/>
      <point x="509" y="223"/>
      <point x="509" y="186" type="curve" smooth="yes"/>
      <point x="509" y="136"/>
      <point x="491" y="94"/>
      <point x="456" y="60" type="curve" smooth="yes"/>
      <point x="421" y="26"/>
      <point x="374" y="6"/>
      <point x="316" y="1" type="curve"/>
      <point x="316" y="-129" type="line"/>
      <point x="304" y="-145"/>
      <point x="278" y="-153"/>
      <point x="253" y="-153" type="curve"/>
      <point x="253" y="1" type="line"/>
      <point x="196" y="6"/>
      <point x="149" y="22"/>
      <point x="111" y="50" type="curve" smooth="yes"/>
      <point x="73" y="78"/>
      <point x="54" y="115"/>
      <point x="54" y="162" type="curve" smooth="yes"/>
      <point x="54" y="225"/>
      <point x="100" y="268"/>
      <point x="161" y="268" type="curve" smooth="yes"/>
      <point x="178" y="268"/>
      <point x="182" y="267"/>
      <point x="182" y="256" type="curve" smooth="yes"/>
      <point x="182" y="248"/>
      <point x="152" y="214"/>
      <point x="152" y="170" type="curve" smooth="yes"/>
      <point x="152" y="99"/>
      <point x="213" y="56"/>
      <point x="286" y="56" type="curve" smooth="yes"/>
      <point x="353" y="56"/>
      <point x="408" y="100"/>
    </contour>
  </outline>
</glyph>
<glyph name="percent" format="1">
  <advance width="923"/>
  <unicode hex="0025"/>
  <outline>
    <contour>
      <point x="255" y="0" type="line"/>
      <point x="554" y="718" type="line"/>
      <point x="626" y="718" type="line"/>
      <point x="326" y="0" type="line"/>
    </contour>
    <contour>
      <point x="201" y="733" type="curve" smooth="yes"/>
      <point x="256" y="733"/>
      <point x="298" y="713"/>
      <point x="328" y="673" type="curve" smooth="yes"/>
      <point x="359" y="633"/>
      <point x="374" y="582"/>
      <point x="374" y="520" type="curve" smooth="yes"/>
      <point x="374" y="388"/>
      <point x="303" y="281"/>
      <point x="186" y="281" type="curve" smooth="yes"/>
      <point x="127" y="281"/>
      <point x="84" y="303"/>
      <point x="56" y="348" type="curve" smooth="yes"/>
      <point x="29" y="393"/>
      <point x="15" y="446"/>
      <point x="15" y="508" type="curve" smooth="yes"/>
      <point x="15" y="633"/>
      <point x="87" y="733"/>
    </contour>
    <contour>
      <point x="194" y="328" type="curve" smooth="yes"/>
      <point x="255" y="328"/>
      <point x="289" y="403"/>
      <point x="289" y="507" type="curve" smooth="yes"/>
      <point x="289" y="611"/>
      <point x="255" y="686"/>
      <point x="194" y="686" type="curve" smooth="yes"/>
      <point x="131" y="686"/>
      <point x="99" y="611"/>
      <point x="99" y="507" type="curve" smooth="yes"/>
      <point x="99" y="402"/>
      <point x="131" y="328"/>
    </contour>
    <contour>
      <point x="725" y="438" type="curve" smooth="yes"/>
      <point x="780" y="438"/>
      <point x="822" y="418"/>
      <point x="852" y="378" type="curve" smooth="yes"/>
      <point x="883" y="338"/>
      <point x="898" y="287"/>
      <point x="898" y="225" type="curve" smooth="yes"/>
      <point x="898" y="93"/>
      <point x="827" y="-14"/>
      <point x="710" y="-14" type="curve" smooth="yes"/>
      <point x="651" y="-14"/>
      <point x="608" y="8"/>
      <point x="580" y="53" type="curve" smooth="yes"/>
      <point x="553" y="98"/>
      <point x="539" y="151"/>
      <point x="539" y="213" type="curve" smooth="yes"/>
      <point x="539" y="338"/>
      <point x="611" y="438"/>
    </contour>
    <contour>
      <point x="718" y="33" type="curve" smooth="yes"/>
      <point x="779" y="33"/>
      <point x="813" y="108"/>
      <point x="813" y="212" type="curve" smooth="yes"/>
      <point x="813" y="316"/>
      <point x="779" y="391"/>
      <point x="718" y="391" type="curve" smooth="yes"/>
      <point x="655" y="391"/>
      <point x="623" y="316"/>
      <point x="623" y="212" type="curve" smooth="yes"/>
      <point x="623" y="107"/>
      <point x="655" y="33"/>
    </contour>
  </outline>
</glyph>
<glyph name="ampersand" format="1">
  <advance width="668"/>
  <unicode hex="0026"/>
  <outline>
    <contour>
      <point x="144" y="193" type="curve" smooth="yes"/>
      <point x="144" y="115"/>
      <point x="201" y="39"/>
      <point x="291" y="39" type="curve" smooth="yes"/>
      <point x="382" y="39"/>
      <point x="445" y="89"/>
      <point x="445" y="176" type="curve" smooth="yes"/>
      <point x="445" y="209"/>
      <point x="437" y="236"/>
      <point x="421" y="258" type="curve"/>
      <point x="383" y="257" type="line"/>
      <point x="294" y="249"/>
      <point x="277" y="205"/>
      <point x="266" y="205" type="curve" smooth="yes"/>
      <point x="255" y="205"/>
      <point x="244" y="222"/>
      <point x="244" y="237" type="curve" smooth="yes"/>
      <point x="244" y="285"/>
      <point x="294" y="295"/>
      <point x="394" y="300" type="curve" smooth="yes"/>
      <point x="502" y="306"/>
      <point x="565" y="314"/>
      <point x="571" y="387" type="curve" smooth="yes"/>
      <point x="571" y="426"/>
      <point x="555" y="443"/>
      <point x="531" y="466" type="curve" smooth="yes"/>
      <point x="522" y="473"/>
      <point x="518" y="479"/>
      <point x="518" y="482" type="curve" smooth="yes"/>
      <point x="518" y="491"/>
      <point x="541" y="497"/>
      <point x="562" y="497" type="curve" smooth="yes"/>
      <point x="621" y="497"/>
      <point x="668" y="455"/>
      <point x="668" y="394" type="curve" smooth="yes"/>
      <point x="668" y="317"/>
      <point x="602" y="273"/>
      <point x="470" y="262" type="curve"/>
      <point x="499" y="235"/>
      <point x="518" y="198"/>
      <point x="518" y="158" type="curve" smooth="yes"/>
      <point x="518" y="74"/>
      <point x="450" y="-14"/>
      <point x="285" y="-14" type="curve" smooth="yes"/>
      <point x="129" y="-14"/>
      <point x="30" y="63"/>
      <point x="30" y="192" type="curve" smooth="yes"/>
      <point x="30" y="283"/>
      <point x="95" y="355"/>
      <point x="212" y="386" type="curve"/>
      <point x="123" y="407"/>
      <point x="70" y="463"/>
      <point x="70" y="552" type="curve" smooth="yes"/>
      <point x="70" y="645"/>
      <point x="157" y="732"/>
      <point x="317" y="732" type="curve" smooth="yes"/>
      <point x="410" y="732"/>
      <point x="485" y="682"/>
      <point x="485" y="612" type="curve" smooth="yes"/>
      <point x="485" y="560"/>
      <point x="451" y="525"/>
      <point x="398" y="525" type="curve" smooth="yes"/>
      <point x="384" y="525"/>
      <point x="377" y="528"/>
      <point x="377" y="535" type="curve" smooth="yes"/>
      <point x="377" y="538"/>
      <point x="398" y="559"/>
      <point x="398" y="602" type="curve" smooth="yes"/>
      <point x="398" y="653"/>
      <point x="363" y="686"/>
      <point x="306" y="686" type="curve" smooth="yes"/>
      <point x="227" y="686"/>
      <point x="180" y="627"/>
      <point x="180" y="558" type="curve" smooth="yes"/>
      <point x="180" y="469"/>
      <point x="233" y="418"/>
      <point x="302" y="418" type="curve" smooth="yes"/>
      <point x="310" y="418"/>
      <point x="316" y="407"/>
      <point x="316" y="396" type="curve" smooth="yes"/>
      <point x="316" y="387"/>
      <point x="311" y="376"/>
      <point x="303" y="376" type="curve" smooth="yes"/>
      <point x="198" y="349"/>
      <point x="144" y="276"/>
    </contour>
  </outline>
</glyph>
<glyph name="quotesingle" format="1">
  <advance width="178"/>
  <unicode hex="0027"/>
  <outline>
    <contour>
      <point x="140" y="804" type="curve"/>
      <point x="140" y="784"/>
      <point x="137" y="753"/>
      <point x="131" y="712" type="curve" smooth="yes"/>
      <point x="126" y="671"/>
      <point x="118" y="630"/>
      <point x="109" y="591" type="curve" smooth="yes"/>
      <point x="106" y="578"/>
      <point x="99" y="572"/>
      <point x="89" y="572" type="curve" smooth="yes"/>
      <point x="79" y="572"/>
      <point x="72" y="578"/>
      <point x="69" y="591" type="curve" smooth="yes"/>
      <point x="60" y="626"/>
      <point x="53" y="665"/>
      <point x="47" y="707" type="curve" smooth="yes"/>
      <point x="41" y="750"/>
      <point x="38" y="782"/>
      <point x="38" y="804" type="curve"/>
      <point x="50" y="824"/>
      <point x="67" y="834"/>
      <point x="89" y="834" type="curve" smooth="yes"/>
      <point x="111" y="834"/>
      <point x="128" y="824"/>
    </contour>
  </outline>
</glyph>
<glyph name="parenleft" format="1">
  <advance width="352"/>
  <unicode hex="0028"/>
  <outline>
    <contour>
      <point x="321" y="-67" type="curve"/>
      <point x="321" y="-112" type="line"/>
      <point x="152" y="-41"/>
      <point x="58" y="108"/>
      <point x="58" y="331" type="curve" smooth="yes"/>
      <point x="58" y="554"/>
      <point x="152" y="703"/>
      <point x="321" y="774" type="curve"/>
      <point x="321" y="729" type="line"/>
      <point x="228" y="668"/>
      <point x="166" y="526"/>
      <point x="166" y="331" type="curve" smooth="yes"/>
      <point x="166" y="136"/>
      <point x="228" y="-6"/>
    </contour>
  </outline>
</glyph>
<glyph name="parenright" format="1">
  <advance width="352"/>
  <unicode hex="0029"/>
  <outline>
    <contour>
      <point x="31" y="729" type="curve"/>
      <point x="31" y="774" type="line"/>
      <point x="200" y="703"/>
      <point x="294" y="554"/>
      <point x="294" y="331" type="curve" smooth="yes"/>
      <point x="294" y="108"/>
      <point x="200" y="-41"/>
      <point x="31" y="-112" type="curve"/>
      <point x="31" y="-67" type="line"/>
      <point x="124" y="-6"/>
      <point x="186" y="136"/>
      <point x="186" y="331" type="curve" smooth="yes"/>
      <point x="186" y="526"/>
      <point x="124" y="668"/>
    </contour>
  </outline>
</glyph>
<glyph name="asterisk" format="1">
  <advance width="574"/>
  <unicode hex="002A"/>
  <outline>
    <contour>
      <point x="489" y="617" type="curve"/>
      <point x="462" y="614"/>
      <point x="417" y="608"/>
      <point x="356" y="599" type="curve" smooth="yes"/>
      <point x="319" y="594" type="line"/>
      <point x="360" y="555" type="line"/>
      <point x="442" y="477" type="line"/>
      <point x="442" y="438"/>
      <point x="418" y="411"/>
      <point x="386" y="411" type="curve" smooth="yes"/>
      <point x="377" y="411"/>
      <point x="369" y="413"/>
      <point x="361" y="417" type="curve"/>
      <point x="350" y="442"/>
      <point x="335" y="473"/>
      <point x="316" y="510" type="curve" smooth="yes"/>
      <point x="287" y="571" type="line"/>
      <point x="266" y="528" type="line" smooth="yes"/>
      <point x="247" y="491"/>
      <point x="229" y="454"/>
      <point x="213" y="418" type="curve"/>
      <point x="204" y="414"/>
      <point x="195" y="412"/>
      <point x="187" y="412" type="curve" smooth="yes"/>
      <point x="151" y="412"/>
      <point x="131" y="442"/>
      <point x="131" y="477" type="curve"/>
      <point x="218" y="559" type="line" smooth="yes"/>
      <point x="235" y="576"/>
      <point x="247" y="588"/>
      <point x="254" y="594" type="curve"/>
      <point x="245" y="595"/>
      <point x="231" y="597"/>
      <point x="215" y="600" type="curve" smooth="yes"/>
      <point x="168" y="607"/>
      <point x="125" y="612"/>
      <point x="86" y="617" type="curve"/>
      <point x="75" y="628"/>
      <point x="70" y="641"/>
      <point x="70" y="655" type="curve" smooth="yes"/>
      <point x="70" y="684"/>
      <point x="89" y="707"/>
      <point x="117" y="714" type="curve"/>
      <point x="179" y="679" type="line" smooth="yes"/>
      <point x="202" y="668"/>
      <point x="218" y="659"/>
      <point x="229" y="653" type="curve" smooth="yes"/>
      <point x="267" y="633" type="line"/>
      <point x="258" y="683" type="line"/>
      <point x="236" y="800" type="line"/>
      <point x="248" y="820"/>
      <point x="265" y="830"/>
      <point x="287" y="830" type="curve" smooth="yes"/>
      <point x="309" y="830"/>
      <point x="326" y="820"/>
      <point x="338" y="800" type="curve"/>
      <point x="316" y="683" type="line"/>
      <point x="307" y="633" type="line"/>
      <point x="334" y="647" type="line"/>
      <point x="457" y="713" type="line"/>
      <point x="486" y="706"/>
      <point x="504" y="685"/>
      <point x="504" y="657" type="curve" smooth="yes"/>
      <point x="504" y="642"/>
      <point x="499" y="629"/>
    </contour>
  </outline>
</glyph>
<glyph name="period" format="1">
  <advance width="191"/>
  <unicode hex="002E"/>
  <outline>
    <contour>
      <point x="94" y="117" type="curve" smooth="yes"/>
      <point x="107" y="117"/>
      <point x="120" y="109"/>
      <point x="135" y="94" type="curve" smooth="yes"/>
      <point x="150" y="79"/>
      <point x="157" y="64"/>
      <point x="157" y="51" type="curve" smooth="yes"/>
      <point x="157" y="38"/>
      <point x="150" y="24"/>
      <point x="135" y="9" type="curve" smooth="yes"/>
      <point x="120" y="-6"/>
      <point x="107" y="-14"/>
      <point x="94" y="-14" type="curve" smooth="yes"/>
      <point x="83" y="-14"/>
      <point x="70" y="-6"/>
      <point x="55" y="9" type="curve" smooth="yes"/>
      <point x="40" y="24"/>
      <point x="33" y="38"/>
      <point x="33" y="51" type="curve" smooth="yes"/>
      <point x="33" y="64"/>
      <point x="40" y="78"/>
      <point x="54" y="93" type="curve" smooth="yes"/>
      <point x="69" y="109"/>
      <point x="82" y="117"/>
    </contour>
  </outline>
</glyph>
<glyph name="slash" format="1">
  <advance width="371"/>
  <unicode hex="002F"/>
  <outline>
    <contour>
      <point x="0" y="-63" type="line"/>
      <point x="299" y="781" type="line"/>
      <point x="371" y="781" type="line"/>
      <point x="71" y="-63" type="line"/>
    </contour>
  </outline>
</glyph>
<glyph name="zero" format="1">
  <advance width="693"/>
  <unicode hex="0030"/>
  <outline>
    <contour>
      <point x="359" y="732" type="curve" smooth="yes"/>
      <point x="536" y="732"/>
      <point x="633" y="580"/>
      <point x="633" y="380" type="curve" smooth="yes"/>
      <point x="635" y="166"/>
      <point x="518" y="-18"/>
      <point x="334" y="-14" type="curve"/>
      <point x="138" y="-17"/>
      <point x="59" y="172"/>
      <point x="60" y="360" type="curve" smooth="yes"/>
      <point x="58" y="564"/>
      <point x="179" y="735"/>
    </contour>
    <contour>
      <point x="346" y="43" type="curve" smooth="yes"/>
      <point x="463" y="43"/>
      <point x="526" y="180"/>
      <point x="526" y="358" type="curve" smooth="yes"/>
      <point x="526" y="536"/>
      <point x="463" y="675"/>
      <point x="346" y="675" type="curve" smooth="yes"/>
      <point x="287" y="675"/>
      <point x="243" y="645"/>
      <point x="212" y="586" type="curve" smooth="yes"/>
      <point x="181" y="527"/>
      <point x="166" y="451"/>
      <point x="166" y="358" type="curve" smooth="yes"/>
      <point x="166" y="266"/>
      <point x="181" y="190"/>
      <point x="212" y="131" type="curve" smooth="yes"/>
      <point x="243" y="72"/>
      <point x="287" y="43"/>
    </contour>
  </outline>
</glyph>
<glyph name="one" format="1">
  <advance width="418"/>
  <unicode hex="0031"/>
  <outline>
    <contour>
      <point x="336" y="34" type="curve" smooth="yes"/>
      <point x="349" y="16" type="line"/>
      <point x="336" y="0" type="line"/>
      <point x="97" y="0" type="line"/>
      <point x="85" y="34" type="line"/>
      <point x="128" y="45" type="line" smooth="yes"/>
      <point x="180" y="59"/>
      <point x="192" y="71"/>
      <point x="192" y="133" type="curve" smooth="yes"/>
      <point x="192" y="615" type="line"/>
      <point x="69" y="537" type="line"/>
      <point x="41" y="542"/>
      <point x="15" y="573"/>
      <point x="0" y="605" type="curve"/>
      <point x="277" y="734" type="line"/>
      <point x="293" y="730"/>
      <point x="306" y="718"/>
      <point x="317" y="697" type="curve"/>
      <point x="291" y="680" type="line"/>
      <point x="291" y="201" type="line" smooth="yes"/>
      <point x="291" y="121"/>
      <point x="303" y="78"/>
    </contour>
  </outline>
</glyph>
<glyph name="two" format="1">
  <advance width="596"/>
  <unicode hex="0032"/>
  <outline>
    <contour>
      <point x="37" y="51" type="line"/>
      <point x="144" y="138"/>
      <point x="225" y="211"/>
      <point x="280" y="269" type="curve" smooth="yes"/>
      <point x="335" y="327"/>
      <point x="373" y="377"/>
      <point x="392" y="418" type="curve" smooth="yes"/>
      <point x="412" y="459"/>
      <point x="422" y="502"/>
      <point x="422" y="546" type="curve" smooth="yes"/>
      <point x="422" y="629"/>
      <point x="363" y="676"/>
      <point x="292" y="676" type="curve" smooth="yes"/>
      <point x="220" y="676"/>
      <point x="159" y="629"/>
      <point x="159" y="549" type="curve" smooth="yes"/>
      <point x="156" y="502"/>
      <point x="189" y="471"/>
      <point x="189" y="463" type="curve" smooth="yes"/>
      <point x="189" y="452"/>
      <point x="184" y="451"/>
      <point x="168" y="451" type="curve" smooth="yes"/>
      <point x="107" y="451"/>
      <point x="61" y="494"/>
      <point x="61" y="557" type="curve" smooth="yes"/>
      <point x="61" y="670"/>
      <point x="171" y="732"/>
      <point x="293" y="732" type="curve" smooth="yes"/>
      <point x="442" y="732"/>
      <point x="537" y="664"/>
      <point x="537" y="545" type="curve" smooth="yes"/>
      <point x="537" y="416"/>
      <point x="404" y="275"/>
      <point x="177" y="91" type="curve"/>
      <point x="556" y="91" type="line"/>
      <point x="556" y="55"/>
      <point x="546" y="19"/>
      <point x="522" y="0" type="curve"/>
      <point x="64" y="0" type="line"/>
    </contour>
  </outline>
</glyph>
<glyph name="three" format="1">
  <advance width="596"/>
  <unicode hex="0033"/>
  <outline>
    <contour>
      <point x="57" y="148" type="curve" smooth="yes"/>
      <point x="57" y="211"/>
      <point x="103" y="254"/>
      <point x="164" y="254" type="curve" smooth="yes"/>
      <point x="180" y="254"/>
      <point x="185" y="253"/>
      <point x="185" y="242" type="curve" smooth="yes"/>
      <point x="185" y="234"/>
      <point x="155" y="200"/>
      <point x="155" y="156" type="curve" smooth="yes"/>
      <point x="155" y="123"/>
      <point x="168" y="97"/>
      <point x="194" y="78" type="curve" smooth="yes"/>
      <point x="220" y="59"/>
      <point x="251" y="49"/>
      <point x="286" y="49" type="curve" smooth="yes"/>
      <point x="325" y="49"/>
      <point x="359" y="61"/>
      <point x="388" y="85" type="curve" smooth="yes"/>
      <point x="417" y="110"/>
      <point x="432" y="145"/>
      <point x="432" y="190" type="curve" smooth="yes"/>
      <point x="432" y="229"/>
      <point x="420" y="263"/>
      <point x="395" y="294" type="curve" smooth="yes"/>
      <point x="371" y="325"/>
      <point x="326" y="341"/>
      <point x="261" y="341" type="curve" smooth="yes"/>
      <point x="216" y="341"/>
      <point x="187" y="331"/>
      <point x="180" y="331" type="curve" smooth="yes"/>
      <point x="171" y="331"/>
      <point x="166" y="337"/>
      <point x="166" y="349" type="curve" smooth="yes"/>
      <point x="166" y="366"/>
      <point x="172" y="373"/>
      <point x="221" y="382" type="curve" smooth="yes"/>
      <point x="297" y="396"/>
      <point x="348" y="419"/>
      <point x="373" y="450" type="curve" smooth="yes"/>
      <point x="398" y="481"/>
      <point x="411" y="516"/>
      <point x="411" y="553" type="curve" smooth="yes"/>
      <point x="411" y="632"/>
      <point x="353" y="677"/>
      <point x="285" y="677" type="curve" smooth="yes"/>
      <point x="224" y="677"/>
      <point x="174" y="638"/>
      <point x="174" y="573" type="curve" smooth="yes"/>
      <point x="171" y="526"/>
      <point x="204" y="495"/>
      <point x="204" y="487" type="curve" smooth="yes"/>
      <point x="204" y="479"/>
      <point x="197" y="475"/>
      <point x="183" y="475" type="curve" smooth="yes"/>
      <point x="122" y="475"/>
      <point x="76" y="518"/>
      <point x="76" y="581" type="curve" smooth="yes"/>
      <point x="76" y="679"/>
      <point x="176" y="732"/>
      <point x="287" y="732" type="curve" smooth="yes"/>
      <point x="405" y="732"/>
      <point x="520" y="671"/>
      <point x="520" y="559" type="curve" smooth="yes"/>
      <point x="520" y="474"/>
      <point x="471" y="413"/>
      <point x="372" y="376" type="curve"/>
      <point x="481" y="352"/>
      <point x="541" y="277"/>
      <point x="541" y="184" type="curve" smooth="yes"/>
      <point x="541" y="59"/>
      <point x="444" y="-14"/>
      <point x="289" y="-14" type="curve" smooth="yes"/>
      <point x="167" y="-14"/>
      <point x="57" y="43"/>
    </contour>
  </outline>
</glyph>
<glyph name="four" format="1">
  <advance width="608"/>
  <unicode hex="0034"/>
  <outline>
    <contour>
      <point x="530" y="34" type="curve" smooth="yes"/>
      <point x="543" y="16" type="line"/>
      <point x="530" y="0" type="line"/>
      <point x="291" y="0" type="line"/>
      <point x="279" y="34" type="line"/>
      <point x="322" y="45" type="line" smooth="yes"/>
      <point x="375" y="59"/>
      <point x="385" y="70"/>
      <point x="385" y="133" type="curve" smooth="yes"/>
      <point x="385" y="162" type="line"/>
      <point x="30" y="162" type="line"/>
      <point x="262" y="718" type="line"/>
      <point x="325" y="718" type="line"/>
      <point x="344" y="702" type="line"/>
      <point x="128" y="225" type="line"/>
      <point x="385" y="225" type="line"/>
      <point x="385" y="361" type="line" smooth="yes"/>
      <point x="385" y="404"/>
      <point x="380" y="424"/>
      <point x="363" y="452" type="curve"/>
      <point x="375" y="467" type="line"/>
      <point x="485" y="479" type="line"/>
      <point x="485" y="225" type="line"/>
      <point x="578" y="225" type="line"/>
      <point x="578" y="195"/>
      <point x="570" y="174"/>
      <point x="555" y="162" type="curve"/>
      <point x="486" y="162" type="line"/>
      <point x="489" y="107"/>
      <point x="502" y="71"/>
    </contour>
  </outline>
</glyph>
<glyph name="five" format="1">
  <advance width="596"/>
  <unicode hex="0035"/>
  <outline>
    <contour>
      <point x="224" y="361" type="curve" smooth="yes"/>
      <point x="196" y="361"/>
      <point x="161" y="357"/>
      <point x="119" y="348" type="curve"/>
      <point x="98" y="385" type="line"/>
      <point x="116" y="718" type="line"/>
      <point x="505" y="718" type="line"/>
      <point x="505" y="682"/>
      <point x="495" y="646"/>
      <point x="471" y="627" type="curve"/>
      <point x="177" y="627" type="line"/>
      <point x="165" y="402" type="line"/>
      <point x="207" y="411"/>
      <point x="248" y="416"/>
      <point x="288" y="416" type="curve" smooth="yes"/>
      <point x="460" y="416"/>
      <point x="541" y="312"/>
      <point x="541" y="193" type="curve" smooth="yes"/>
      <point x="541" y="66"/>
      <point x="442" y="-14"/>
      <point x="289" y="-14" type="curve" smooth="yes"/>
      <point x="167" y="-14"/>
      <point x="57" y="43"/>
      <point x="57" y="148" type="curve" smooth="yes"/>
      <point x="57" y="211"/>
      <point x="103" y="254"/>
      <point x="164" y="254" type="curve" smooth="yes"/>
      <point x="180" y="254"/>
      <point x="185" y="253"/>
      <point x="185" y="242" type="curve" smooth="yes"/>
      <point x="185" y="234"/>
      <point x="155" y="200"/>
      <point x="155" y="156" type="curve" smooth="yes"/>
      <point x="155" y="123"/>
      <point x="168" y="97"/>
      <point x="194" y="78" type="curve" smooth="yes"/>
      <point x="220" y="59"/>
      <point x="251" y="49"/>
      <point x="286" y="49" type="curve" smooth="yes"/>
      <point x="361" y="49"/>
      <point x="432" y="100"/>
      <point x="432" y="193" type="curve" smooth="yes"/>
      <point x="432" y="237"/>
      <point x="417" y="276"/>
      <point x="388" y="310" type="curve" smooth="yes"/>
      <point x="359" y="344"/>
      <point x="304" y="361"/>
    </contour>
  </outline>
</glyph>
<glyph name="six" format="1">
  <advance width="646"/>
  <unicode hex="0036"/>
  <outline>
    <contour>
      <point x="166" y="326" type="curve" smooth="yes"/>
      <point x="166" y="305"/>
      <point x="166" y="289"/>
      <point x="167" y="279" type="curve"/>
      <point x="194" y="364"/>
      <point x="264" y="419"/>
      <point x="371" y="419" type="curve" smooth="yes"/>
      <point x="503" y="419"/>
      <point x="574" y="335"/>
      <point x="574" y="218" type="curve" smooth="yes"/>
      <point x="574" y="89"/>
      <point x="491" y="-14"/>
      <point x="335" y="-14" type="curve" smooth="yes"/>
      <point x="156" y="-17"/>
      <point x="57" y="142"/>
      <point x="58" y="328" type="curve" smooth="yes"/>
      <point x="58" y="553"/>
      <point x="164" y="732"/>
      <point x="363" y="732" type="curve" smooth="yes"/>
      <point x="477" y="732"/>
      <point x="561" y="676"/>
      <point x="561" y="597" type="curve" smooth="yes"/>
      <point x="561" y="529"/>
      <point x="515" y="480"/>
      <point x="454" y="480" type="curve" smooth="yes"/>
      <point x="440" y="480"/>
      <point x="433" y="484"/>
      <point x="433" y="492" type="curve" smooth="yes"/>
      <point x="434" y="501"/>
      <point x="466" y="535"/>
      <point x="463" y="574" type="curve" smooth="yes"/>
      <point x="463" y="637"/>
      <point x="423" y="675"/>
      <point x="360" y="675" type="curve" smooth="yes"/>
      <point x="220" y="677"/>
      <point x="165" y="495"/>
    </contour>
    <contour>
      <point x="205" y="195" type="curve" smooth="yes"/>
      <point x="205" y="108"/>
      <point x="242" y="49"/>
      <point x="321" y="49" type="curve" smooth="yes"/>
      <point x="405" y="49"/>
      <point x="453" y="111"/>
      <point x="453" y="203" type="curve" smooth="yes"/>
      <point x="453" y="290"/>
      <point x="414" y="351"/>
      <point x="335" y="351" type="curve" smooth="yes"/>
      <point x="294" y="351"/>
      <point x="262" y="336"/>
      <point x="239" y="305" type="curve" smooth="yes"/>
      <point x="216" y="275"/>
      <point x="205" y="238"/>
    </contour>
  </outline>
</glyph>
<glyph name="seven" format="1">
  <advance width="496"/>
  <unicode hex="0037"/>
  <outline>
    <contour>
      <point x="260" y="95" type="curve" smooth="yes"/>
      <point x="260" y="72"/>
      <point x="265" y="52"/>
      <point x="274" y="34" type="curve" smooth="yes"/>
      <point x="283" y="16" type="line"/>
      <point x="264" y="0" type="line"/>
      <point x="80" y="0" type="line"/>
      <point x="68" y="34" type="line"/>
      <point x="91" y="40" type="line" smooth="yes"/>
      <point x="144" y="55"/>
      <point x="167" y="78"/>
      <point x="191" y="139" type="curve" smooth="yes"/>
      <point x="381" y="627" type="line"/>
      <point x="36" y="627" type="line"/>
      <point x="12" y="646"/>
      <point x="2" y="682"/>
      <point x="2" y="718" type="curve"/>
      <point x="487" y="718" type="line"/>
      <point x="283" y="200" type="line" smooth="yes"/>
      <point x="268" y="160"/>
      <point x="260" y="125"/>
    </contour>
  </outline>
</glyph>
<glyph name="eight" format="1">
  <advance width="616"/>
  <unicode hex="0038"/>
  <outline>
    <contour>
      <point x="421" y="373" type="curve"/>
      <point x="517" y="324"/>
      <point x="562" y="262"/>
      <point x="562" y="179" type="curve" smooth="yes"/>
      <point x="562" y="62"/>
      <point x="463" y="-17"/>
      <point x="300" y="-17" type="curve" smooth="yes"/>
      <point x="227" y="-17"/>
      <point x="167" y="-2"/>
      <point x="122" y="27" type="curve" smooth="yes"/>
      <point x="77" y="57"/>
      <point x="54" y="103"/>
      <point x="54" y="166" type="curve" smooth="yes"/>
      <point x="54" y="238"/>
      <point x="98" y="301"/>
      <point x="187" y="354" type="curve"/>
      <point x="110" y="397"/>
      <point x="72" y="449"/>
      <point x="72" y="532" type="curve" smooth="yes"/>
      <point x="72" y="638"/>
      <point x="148" y="735"/>
      <point x="301" y="735" type="curve" smooth="yes"/>
      <point x="373" y="735"/>
      <point x="431" y="720"/>
      <point x="476" y="690" type="curve" smooth="yes"/>
      <point x="521" y="660"/>
      <point x="544" y="614"/>
      <point x="544" y="551" type="curve" smooth="yes"/>
      <point x="544" y="476"/>
      <point x="493" y="417"/>
    </contour>
    <contour>
      <point x="175" y="562" type="curve" smooth="yes"/>
      <point x="175" y="507"/>
      <point x="210" y="469"/>
      <point x="307" y="426" type="curve" smooth="yes"/>
      <point x="369" y="398" type="line"/>
      <point x="413" y="449"/>
      <point x="436" y="503"/>
      <point x="436" y="552" type="curve" smooth="yes"/>
      <point x="436" y="627"/>
      <point x="385" y="679"/>
      <point x="301" y="679" type="curve" smooth="yes"/>
      <point x="227" y="679"/>
      <point x="175" y="622"/>
    </contour>
    <contour>
      <point x="160" y="169" type="curve" smooth="yes"/>
      <point x="160" y="92"/>
      <point x="213" y="39"/>
      <point x="301" y="39" type="curve" smooth="yes"/>
      <point x="390" y="39"/>
      <point x="452" y="82"/>
      <point x="452" y="153" type="curve" smooth="yes"/>
      <point x="452" y="218"/>
      <point x="422" y="249"/>
      <point x="342" y="284" type="curve" smooth="yes"/>
      <point x="235" y="331" type="line"/>
      <point x="186" y="279"/>
      <point x="160" y="221"/>
    </contour>
  </outline>
</glyph>
<glyph name="nine" format="1">
  <advance width="646"/>
  <unicode hex="0039"/>
  <outline>
    <contour>
      <point x="574" y="340" type="curve" smooth="yes"/>
      <point x="574" y="139"/>
      <point x="480" y="-14"/>
      <point x="292" y="-14" type="curve" smooth="yes"/>
      <point x="177" y="-14"/>
      <point x="93" y="45"/>
      <point x="93" y="126" type="curve" smooth="yes"/>
      <point x="93" y="181"/>
      <point x="134" y="217"/>
      <point x="193" y="217" type="curve" smooth="yes"/>
      <point x="208" y="217"/>
      <point x="215" y="213"/>
      <point x="215" y="205" type="curve" smooth="yes"/>
      <point x="214" y="196"/>
      <point x="187" y="165"/>
      <point x="190" y="132" type="curve" smooth="yes"/>
      <point x="190" y="77"/>
      <point x="231" y="43"/>
      <point x="291" y="43" type="curve" smooth="yes"/>
      <point x="353" y="43"/>
      <point x="398" y="71"/>
      <point x="426" y="128" type="curve" smooth="yes"/>
      <point x="454" y="185"/>
      <point x="468" y="254"/>
      <point x="468" y="337" type="curve" smooth="yes"/>
      <point x="468" y="362"/>
      <point x="468" y="380"/>
      <point x="467" y="391" type="curve"/>
      <point x="432" y="320"/>
      <point x="363" y="276"/>
      <point x="272" y="276" type="curve" smooth="yes"/>
      <point x="147" y="276"/>
      <point x="77" y="374"/>
      <point x="77" y="485" type="curve" smooth="yes"/>
      <point x="77" y="611"/>
      <point x="164" y="732"/>
      <point x="321" y="732" type="curve" smooth="yes"/>
      <point x="406" y="732"/>
      <point x="470" y="695"/>
      <point x="511" y="622" type="curve" smooth="yes"/>
      <point x="553" y="549"/>
      <point x="574" y="455"/>
    </contour>
    <contour>
      <point x="454" y="506" type="curve" smooth="yes"/>
      <point x="454" y="549"/>
      <point x="443" y="587"/>
      <point x="421" y="619" type="curve" smooth="yes"/>
      <point x="399" y="651"/>
      <point x="368" y="667"/>
      <point x="329" y="667" type="curve" smooth="yes"/>
      <point x="287" y="667"/>
      <point x="254" y="651"/>
      <point x="231" y="619" type="curve" smooth="yes"/>
      <point x="208" y="588"/>
      <point x="197" y="550"/>
      <point x="197" y="507" type="curve" smooth="yes"/>
      <point x="197" y="464"/>
      <point x="208" y="426"/>
      <point x="229" y="395" type="curve" smooth="yes"/>
      <point x="250" y="364"/>
      <point x="280" y="348"/>
      <point x="318" y="348" type="curve" smooth="yes"/>
      <point x="361" y="348"/>
      <point x="395" y="363"/>
      <point x="418" y="394" type="curve" smooth="yes"/>
      <point x="442" y="425"/>
      <point x="454" y="463"/>
    </contour>
  </outline>
</glyph>
<glyph name="colon" format="1">
  <advance width="191"/>
  <unicode hex="003A"/>
  <outline>
    <contour>
      <point x="94" y="117" type="curve" smooth="yes"/>
      <point x="107" y="117"/>
      <point x="120" y="109"/>
      <point x="135" y="94" type="curve" smooth="yes"/>
      <point x="150" y="79"/>
      <point x="157" y="64"/>
      <point x="157" y="51" type="curve" smooth="yes"/>
      <point x="157" y="38"/>
      <point x="150" y="24"/>
      <point x="135" y="9" type="curve" smooth="yes"/>
      <point x="120" y="-6"/>
      <point x="107" y="-14"/>
      <point x="94" y="-14" type="curve" smooth="yes"/>
      <point x="83" y="-14"/>
      <point x="70" y="-6"/>
      <point x="55" y="9" type="curve" smooth="yes"/>
      <point x="40" y="24"/>
      <point x="33" y="38"/>
      <point x="33" y="51" type="curve" smooth="yes"/>
      <point x="33" y="64"/>
      <point x="40" y="78"/>
      <point x="54" y="93" type="curve" smooth="yes"/>
      <point x="69" y="109"/>
      <point x="82" y="117"/>
    </contour>
    <contour>
      <point x="94" y="477" type="curve" smooth="yes"/>
      <point x="107" y="477"/>
      <point x="120" y="469"/>
      <point x="135" y="454" type="curve" smooth="yes"/>
      <point x="150" y="439"/>
      <point x="157" y="424"/>
      <point x="157" y="411" type="curve" smooth="yes"/>
      <point x="157" y="398"/>
      <point x="150" y="384"/>
      <point x="135" y="369" type="curve" smooth="yes"/>
      <point x="120" y="354"/>
      <point x="107" y="346"/>
      <point x="94" y="346" type="curve" smooth="yes"/>
      <point x="83" y="346"/>
      <point x="70" y="354"/>
      <point x="55" y="369" type="curve" smooth="yes"/>
      <point x="40" y="384"/>
      <point x="33" y="398"/>
      <point x="33" y="411" type="curve" smooth="yes"/>
      <point x="33" y="424"/>
      <point x="40" y="438"/>
      <point x="54" y="453" type="curve" smooth="yes"/>
      <point x="69" y="469"/>
      <point x="82" y="477"/>
    </contour>
  </outline>
</glyph>
<glyph name="semicolon" format="1">
  <advance width="191"/>
  <unicode hex="003B"/>
  <outline>
    <contour>
      <point x="92" y="119" type="curve" smooth="yes"/>
      <point x="131" y="119"/>
      <point x="157" y="99"/>
      <point x="157" y="52" type="curve" smooth="yes"/>
      <point x="157" y="15"/>
      <point x="130" y="-22"/>
      <point x="75" y="-81" type="curve" smooth="yes"/>
      <point x="36" y="-123" type="line"/>
      <point x="7" y="-104" type="line"/>
      <point x="53" y="-14" type="line" smooth="yes"/>
      <point x="61" y="2"/>
      <point x="65" y="16"/>
      <point x="65" y="27" type="curve" smooth="yes"/>
      <point x="65" y="40"/>
      <point x="57" y="53"/>
      <point x="42" y="64" type="curve" smooth="yes"/>
      <point x="24" y="76" type="line"/>
      <point x="19" y="100" type="line"/>
      <point x="36" y="107" type="line" smooth="yes"/>
      <point x="57" y="115"/>
      <point x="75" y="119"/>
    </contour>
    <contour>
      <point x="94" y="477" type="curve" smooth="yes"/>
      <point x="107" y="477"/>
      <point x="120" y="469"/>
      <point x="135" y="454" type="curve" smooth="yes"/>
      <point x="150" y="439"/>
      <point x="157" y="424"/>
      <point x="157" y="411" type="curve" smooth="yes"/>
      <point x="157" y="398"/>
      <point x="150" y="384"/>
      <point x="135" y="369" type="curve" smooth="yes"/>
      <point x="120" y="354"/>
      <point x="107" y="346"/>
      <point x="94" y="346" type="curve" smooth="yes"/>
      <point x="83" y="346"/>
      <point x="70" y="354"/>
      <point x="55" y="369" type="curve" smooth="yes"/>
      <point x="40" y="384"/>
      <point x="33" y="398"/>
      <point x="33" y="411" type="curve" smooth="yes"/>
      <point x="33" y="424"/>
      <point x="40" y="438"/>
      <point x="54" y="453" type="curve" smooth="yes"/>
      <point x="69" y="469"/>
      <point x="82" y="477"/>
    </contour>
  </outline>
</glyph>
<glyph name="less" format="1">
  <advance width="621"/>
  <unicode hex="003C"/>
  <outline>
    <contour>
      <point x="99" y="395" type="line"/>
      <point x="522" y="566" type="line"/>
      <point x="522" y="490" type="line"/>
      <point x="184" y="357" type="line"/>
      <point x="522" y="224" type="line"/>
      <point x="522" y="148" type="line"/>
      <point x="99" y="319" type="line"/>
    </contour>
  </outline>
</glyph>
<glyph name="equal" format="1">
  <advance width="621"/>
  <unicode hex="003D"/>
  <outline>
    <contour>
      <point x="99" y="503" type="line"/>
      <point x="522" y="503" type="line"/>
      <point x="522" y="427" type="line"/>
      <point x="99" y="427" type="line"/>
    </contour>
    <contour>
      <point x="99" y="287" type="line"/>
      <point x="522" y="287" type="line"/>
      <point x="522" y="211" type="line"/>
      <point x="99" y="211" type="line"/>
    </contour>
  </outline>
</glyph>
<glyph name="greater" format="1">
  <advance width="621"/>
  <unicode hex="003E"/>
  <outline>
    <contour>
      <point x="522" y="319" type="line"/>
      <point x="99" y="148" type="line"/>
      <point x="99" y="224" type="line"/>
      <point x="437" y="357" type="line"/>
      <point x="99" y="490" type="line"/>
      <point x="99" y="566" type="line"/>
      <point x="522" y="395" type="line"/>
    </contour>
  </outline>
</glyph>
<glyph name="question" format="1">
  <advance width="538"/>
  <unicode hex="003F"/>
  <outline>
    <contour>
      <point x="250" y="235" type="curve" smooth="yes"/>
      <point x="245" y="216" type="line"/>
      <point x="226" y="216" type="line"/>
      <point x="165" y="278" type="line"/>
      <point x="333" y="427"/>
      <point x="359" y="500"/>
      <point x="360" y="578" type="curve" smooth="yes"/>
      <point x="360" y="659"/>
      <point x="313" y="702"/>
      <point x="238" y="702" type="curve" smooth="yes"/>
      <point x="181" y="702"/>
      <point x="144" y="668"/>
      <point x="144" y="615" type="curve" smooth="yes"/>
      <point x="144" y="564"/>
      <point x="168" y="541"/>
      <point x="168" y="533" type="curve" smooth="yes"/>
      <point x="168" y="526"/>
      <point x="162" y="522"/>
      <point x="149" y="522" type="curve" smooth="yes"/>
      <point x="92" y="522"/>
      <point x="51" y="563"/>
      <point x="51" y="620" type="curve" smooth="yes"/>
      <point x="51" y="701"/>
      <point x="139" y="759"/>
      <point x="262" y="759" type="curve" smooth="yes"/>
      <point x="379" y="759"/>
      <point x="474" y="695"/>
      <point x="474" y="584" type="curve" smooth="yes"/>
      <point x="474" y="513"/>
      <point x="427" y="433"/>
      <point x="333" y="343" type="curve" smooth="yes"/>
      <point x="281" y="294"/>
      <point x="261" y="272"/>
    </contour>
    <contour>
      <point x="233" y="117" type="curve" smooth="yes"/>
      <point x="246" y="117"/>
      <point x="259" y="109"/>
      <point x="274" y="94" type="curve" smooth="yes"/>
      <point x="289" y="79"/>
      <point x="296" y="64"/>
      <point x="296" y="51" type="curve" smooth="yes"/>
      <point x="296" y="38"/>
      <point x="289" y="24"/>
      <point x="274" y="9" type="curve" smooth="yes"/>
      <point x="259" y="-6"/>
      <point x="246" y="-14"/>
      <point x="233" y="-14" type="curve" smooth="yes"/>
      <point x="222" y="-14"/>
      <point x="209" y="-6"/>
      <point x="194" y="9" type="curve" smooth="yes"/>
      <point x="179" y="24"/>
      <point x="172" y="38"/>
      <point x="172" y="51" type="curve" smooth="yes"/>
      <point x="172" y="64"/>
      <point x="179" y="78"/>
      <point x="193" y="93" type="curve" smooth="yes"/>
      <point x="208" y="109"/>
      <point x="221" y="117"/>
    </contour>
  </outline>
</glyph>
<glyph name="at" format="1">
  <advance width="892"/>
  <unicode hex="0040"/>
  <outline>
    <contour>
      <point x="621" y="36" type="curve" smooth="yes"/>
      <point x="549" y="36"/>
      <point x="500" y="84"/>
      <point x="500" y="168" type="curve"/>
      <point x="459" y="119"/>
      <point x="404" y="91"/>
      <point x="357" y="91" type="curve" smooth="yes"/>
      <point x="285" y="91"/>
      <point x="233" y="151"/>
      <point x="233" y="256" type="curve" smooth="yes"/>
      <point x="233" y="411"/>
      <point x="322" y="510"/>
      <point x="453" y="510" type="curve" smooth="yes"/>
      <point x="471" y="510"/>
      <point x="491" y="508"/>
      <point x="514" y="505" type="curve" smooth="yes"/>
      <point x="557" y="499" type="line" smooth="yes"/>
      <point x="578" y="495"/>
      <point x="599" y="492"/>
      <point x="619" y="490" type="curve"/>
      <point x="627" y="478" type="line"/>
      <point x="618" y="462" type="line" smooth="yes"/>
      <point x="611" y="452"/>
      <point x="607" y="442"/>
      <point x="606" y="433" type="curve" smooth="yes"/>
      <point x="591" y="266"/>
      <point x="584" y="178"/>
      <point x="584" y="170" type="curve" smooth="yes"/>
      <point x="584" y="118"/>
      <point x="607" y="88"/>
      <point x="636" y="88" type="curve" smooth="yes"/>
      <point x="679" y="88"/>
      <point x="740" y="168"/>
      <point x="740" y="318" type="curve" smooth="yes"/>
      <point x="740" y="492"/>
      <point x="641" y="618"/>
      <point x="474" y="618" type="curve" smooth="yes"/>
      <point x="288" y="621"/>
      <point x="148" y="450"/>
      <point x="151" y="248" type="curve" smooth="yes"/>
      <point x="151" y="73"/>
      <point x="252" y="-53"/>
      <point x="419" y="-53" type="curve" smooth="yes"/>
      <point x="490" y="-53"/>
      <point x="546" y="-41"/>
      <point x="599" y="-8" type="curve"/>
      <point x="623" y="-50" type="line"/>
      <point x="556" y="-90"/>
      <point x="491" y="-110"/>
      <point x="414" y="-110" type="curve" smooth="yes"/>
      <point x="201" y="-113"/>
      <point x="52" y="50"/>
      <point x="55" y="250" type="curve"/>
      <point x="50" y="476"/>
      <point x="248" y="680"/>
      <point x="479" y="675" type="curve"/>
      <point x="691" y="678"/>
      <point x="840" y="515"/>
      <point x="837" y="315" type="curve" smooth="yes"/>
      <point x="838" y="188"/>
      <point x="757" y="32"/>
    </contour>
    <contour>
      <point x="331" y="281" type="curve" smooth="yes"/>
      <point x="331" y="213"/>
      <point x="364" y="167"/>
      <point x="408" y="167" type="curve" smooth="yes"/>
      <point x="436" y="167"/>
      <point x="470" y="188"/>
      <point x="499" y="229" type="curve"/>
      <point x="516" y="429" type="line"/>
      <point x="496" y="444"/>
      <point x="475" y="452"/>
      <point x="452" y="452" type="curve" smooth="yes"/>
      <point x="373" y="452"/>
      <point x="331" y="366"/>
    </contour>
  </outline>
</glyph>
<glyph name="D" format="1">
  <advance width="733"/>
  <unicode hex="0044"/>
  <outline>
    <contour>
      <point x="40" y="34" type="line"/>
      <point x="63" y="40" type="line" smooth="yes"/>
      <point x="106" y="52"/>
      <point x="127" y="71"/>
      <point x="127" y="122" type="curve" smooth="yes"/>
      <point x="127" y="627" type="line" smooth="yes"/>
      <point x="127" y="644"/>
      <point x="121" y="651"/>
      <point x="105" y="651" type="curve" smooth="yes"/>
      <point x="47" y="651" type="line"/>
      <point x="35" y="688" type="line"/>
      <point x="67" y="699"/>
      <point x="108" y="709"/>
      <point x="159" y="718" type="curve" smooth="yes"/>
      <point x="210" y="727"/>
      <point x="259" y="732"/>
      <point x="306" y="732" type="curve" smooth="yes"/>
      <point x="445" y="732"/>
      <point x="545" y="697"/>
      <point x="606" y="628" type="curve" smooth="yes"/>
      <point x="667" y="559"/>
      <point x="698" y="469"/>
      <point x="698" y="358" type="curve" smooth="yes"/>
      <point x="698" y="154"/>
      <point x="583" y="0"/>
      <point x="366" y="0" type="curve" smooth="yes"/>
      <point x="52" y="0" type="line"/>
    </contour>
    <contour>
      <point x="334" y="51" type="curve" smooth="yes"/>
      <point x="504" y="51"/>
      <point x="589" y="154"/>
      <point x="589" y="360" type="curve" smooth="yes"/>
      <point x="590" y="525"/>
      <point x="501" y="679"/>
      <point x="324" y="676" type="curve" smooth="yes"/>
      <point x="259" y="676"/>
      <point x="226" y="661"/>
      <point x="226" y="630" type="curve" smooth="yes"/>
      <point x="226" y="175" type="line" smooth="yes"/>
      <point x="226" y="80"/>
      <point x="269" y="51"/>
    </contour>
  </outline>
</glyph>
<glyph name="E" format="1">
  <advance width="610"/>
  <unicode hex="0045"/>
  <outline>
    <contour>
      <point x="226" y="133" type="line" smooth="yes"/>
      <point x="226" y="70"/>
      <point x="237" y="57"/>
      <point x="290" y="57" type="curve" smooth="yes"/>
      <point x="398" y="57" type="line" smooth="yes"/>
      <point x="470" y="57"/>
      <point x="487" y="73"/>
      <point x="507" y="146" type="curve" smooth="yes"/>
      <point x="513" y="169" type="line"/>
      <point x="547" y="157" type="line"/>
      <point x="547" y="-14" type="line"/>
      <point x="527" y="-25" type="line"/>
      <point x="519" y="-14" type="line" smooth="yes"/>
      <point x="512" y="-5"/>
      <point x="498" y="0"/>
      <point x="477" y="0" type="curve" smooth="yes"/>
      <point x="56" y="0" type="line"/>
      <point x="45" y="32" type="line"/>
      <point x="66" y="38" type="line" smooth="yes"/>
      <point x="115" y="53"/>
      <point x="127" y="69"/>
      <point x="127" y="126" type="curve" smooth="yes"/>
      <point x="127" y="517" type="line" smooth="yes"/>
      <point x="127" y="597"/>
      <point x="115" y="640"/>
      <point x="82" y="684" type="curve" smooth="yes"/>
      <point x="69" y="702" type="line"/>
      <point x="82" y="718" type="line"/>
      <point x="388" y="718" type="line" smooth="yes"/>
      <point x="445" y="718"/>
      <point x="483" y="725"/>
      <point x="502" y="739" type="curve" smooth="yes"/>
      <point x="520" y="752" type="line"/>
      <point x="536" y="739" type="line"/>
      <point x="536" y="561" type="line"/>
      <point x="502" y="549" type="line"/>
      <point x="496" y="572" type="line" smooth="yes"/>
      <point x="476" y="645"/>
      <point x="459" y="661"/>
      <point x="387" y="661" type="curve" smooth="yes"/>
      <point x="290" y="661" type="line" smooth="yes"/>
      <point x="237" y="661"/>
      <point x="226" y="648"/>
      <point x="226" y="585" type="curve" smooth="yes"/>
      <point x="226" y="393" type="line"/>
      <point x="353" y="393" type="line" smooth="yes"/>
      <point x="385" y="393"/>
      <point x="408" y="406"/>
      <point x="432" y="439" type="curve" smooth="yes"/>
      <point x="440" y="450" type="line"/>
      <point x="460" y="439" type="line"/>
      <point x="460" y="268" type="line"/>
      <point x="426" y="256" type="line"/>
      <point x="420" y="279" type="line" smooth="yes"/>
      <point x="408" y="324"/>
      <point x="384" y="336"/>
      <point x="311" y="336" type="curve" smooth="yes"/>
      <point x="226" y="336" type="line"/>
    </contour>
  </outline>
</glyph>
<glyph name="F" format="1">
  <advance width="547"/>
  <unicode hex="0046"/>
  <outline>
    <contour>
      <point x="353" y="661" type="curve" smooth="yes"/>
      <point x="266" y="661" type="line" smooth="yes"/>
      <point x="213" y="661"/>
      <point x="202" y="648"/>
      <point x="202" y="585" type="curve" smooth="yes"/>
      <point x="202" y="383" type="line"/>
      <point x="319" y="383" type="line" smooth="yes"/>
      <point x="351" y="383"/>
      <point x="374" y="396"/>
      <point x="398" y="429" type="curve" smooth="yes"/>
      <point x="406" y="440" type="line"/>
      <point x="426" y="429" type="line"/>
      <point x="426" y="258" type="line"/>
      <point x="392" y="246" type="line"/>
      <point x="386" y="269" type="line" smooth="yes"/>
      <point x="374" y="314"/>
      <point x="350" y="326"/>
      <point x="277" y="326" type="curve" smooth="yes"/>
      <point x="202" y="326" type="line"/>
      <point x="202" y="133" type="line" smooth="yes"/>
      <point x="202" y="102"/>
      <point x="206" y="81"/>
      <point x="215" y="69" type="curve" smooth="yes"/>
      <point x="224" y="57"/>
      <point x="241" y="47"/>
      <point x="266" y="40" type="curve" smooth="yes"/>
      <point x="289" y="34" type="line"/>
      <point x="277" y="0" type="line"/>
      <point x="58" y="0" type="line"/>
      <point x="45" y="16" type="line"/>
      <point x="58" y="34" type="line" smooth="yes"/>
      <point x="91" y="78"/>
      <point x="103" y="121"/>
      <point x="103" y="201" type="curve" smooth="yes"/>
      <point x="103" y="517" type="line" smooth="yes"/>
      <point x="103" y="597"/>
      <point x="91" y="640"/>
      <point x="58" y="684" type="curve" smooth="yes"/>
      <point x="45" y="702" type="line"/>
      <point x="58" y="718" type="line"/>
      <point x="354" y="718" type="line" smooth="yes"/>
      <point x="411" y="718"/>
      <point x="449" y="725"/>
      <point x="468" y="739" type="curve" smooth="yes"/>
      <point x="486" y="752" type="line"/>
      <point x="502" y="739" type="line"/>
      <point x="502" y="561" type="line"/>
      <point x="468" y="549" type="line"/>
      <point x="462" y="572" type="line" smooth="yes"/>
      <point x="442" y="645"/>
      <point x="425" y="661"/>
    </contour>
  </outline>
</glyph>
<glyph name="G" format="1">
  <advance width="691"/>
  <unicode hex="0047"/>
  <outline>
    <contour>
      <point x="345" y="17" type="curve" smooth="yes"/>
      <point x="141" y="17"/>
      <point x="35" y="172"/>
      <point x="35" y="376" type="curve" smooth="yes"/>
      <point x="35" y="570"/>
      <point x="148" y="732"/>
      <point x="366" y="732" type="curve" smooth="yes"/>
      <point x="506" y="732"/>
      <point x="607" y="667"/>
      <point x="607" y="575" type="curve" smooth="yes"/>
      <point x="607" y="507"/>
      <point x="561" y="458"/>
      <point x="500" y="458" type="curve" smooth="yes"/>
      <point x="480" y="458"/>
      <point x="479" y="459"/>
      <point x="479" y="470" type="curve" smooth="yes"/>
      <point x="479" y="479"/>
      <point x="512" y="514"/>
      <point x="509" y="561" type="curve" smooth="yes"/>
      <point x="509" y="629"/>
      <point x="451" y="676"/>
      <point x="366" y="676" type="curve" smooth="yes"/>
      <point x="206" y="678"/>
      <point x="142" y="518"/>
      <point x="143" y="381" type="curve" smooth="yes"/>
      <point x="143" y="214"/>
      <point x="225" y="81"/>
      <point x="354" y="81" type="curve" smooth="yes"/>
      <point x="420" y="81"/>
      <point x="476" y="104"/>
      <point x="521" y="149" type="curve"/>
      <point x="521" y="200" type="line" smooth="yes"/>
      <point x="521" y="231"/>
      <point x="517" y="252"/>
      <point x="508" y="264" type="curve" smooth="yes"/>
      <point x="499" y="276"/>
      <point x="482" y="286"/>
      <point x="457" y="293" type="curve" smooth="yes"/>
      <point x="434" y="299" type="line"/>
      <point x="446" y="333" type="line"/>
      <point x="656" y="333" type="line"/>
      <point x="669" y="317" type="line"/>
      <point x="656" y="299" type="line" smooth="yes"/>
      <point x="623" y="255"/>
      <point x="611" y="212"/>
      <point x="611" y="132" type="curve" smooth="yes"/>
      <point x="611" y="16" type="line" smooth="yes"/>
      <point x="611" y="-180"/>
      <point x="532" y="-278"/>
      <point x="373" y="-278" type="curve" smooth="yes"/>
      <point x="254" y="-278"/>
      <point x="191" y="-208"/>
      <point x="191" y="-135" type="curve" smooth="yes"/>
      <point x="191" y="-68"/>
      <point x="239" y="-14"/>
      <point x="318" y="-14" type="curve" smooth="yes"/>
      <point x="331" y="-14"/>
      <point x="337" y="-20"/>
      <point x="337" y="-25" type="curve" smooth="yes"/>
      <point x="336" y="-35"/>
      <point x="283" y="-72"/>
      <point x="288" y="-133" type="curve"/>
      <point x="288" y="-186"/>
      <point x="327" y="-226"/>
      <point x="390" y="-226" type="curve" smooth="yes"/>
      <point x="477" y="-226"/>
      <point x="521" y="-164"/>
      <point x="521" y="-12" type="curve" smooth="yes"/>
      <point x="521" y="82" type="line"/>
      <point x="469" y="39"/>
      <point x="410" y="17"/>
    </contour>
  </outline>
</glyph>
<glyph name="I" format="1">
  <advance width="353"/>
  <unicode hex="0049"/>
  <outline>
    <contour>
      <point x="40" y="34" type="line"/>
      <point x="63" y="40" type="line" smooth="yes"/>
      <point x="88" y="47"/>
      <point x="105" y="57"/>
      <point x="114" y="69" type="curve" smooth="yes"/>
      <point x="123" y="81"/>
      <point x="127" y="102"/>
      <point x="127" y="133" type="curve" smooth="yes"/>
      <point x="127" y="585" type="line" smooth="yes"/>
      <point x="127" y="616"/>
      <point x="123" y="637"/>
      <point x="114" y="649" type="curve" smooth="yes"/>
      <point x="105" y="661"/>
      <point x="88" y="671"/>
      <point x="63" y="678" type="curve" smooth="yes"/>
      <point x="40" y="684" type="line"/>
      <point x="52" y="718" type="line"/>
      <point x="271" y="718" type="line"/>
      <point x="284" y="702" type="line"/>
      <point x="271" y="684" type="line" smooth="yes"/>
      <point x="238" y="640"/>
      <point x="226" y="597"/>
      <point x="226" y="517" type="curve" smooth="yes"/>
      <point x="226" y="126" type="line" smooth="yes"/>
      <point x="226" y="69"/>
      <point x="238" y="53"/>
      <point x="287" y="38" type="curve" smooth="yes"/>
      <point x="308" y="32" type="line"/>
      <point x="297" y="0" type="line"/>
      <point x="52" y="0" type="line"/>
    </contour>
  </outline>
</glyph>
<glyph name="J" format="1">
  <advance width="469"/>
  <unicode hex="004A"/>
  <outline>
    <contour>
      <point x="208" y="678" type="curve" smooth="yes"/>
      <point x="185" y="684" type="line"/>
      <point x="197" y="718" type="line"/>
      <point x="416" y="718" type="line"/>
      <point x="429" y="702" type="line"/>
      <point x="416" y="684" type="line" smooth="yes"/>
      <point x="383" y="640"/>
      <point x="371" y="597"/>
      <point x="371" y="517" type="curve" smooth="yes"/>
      <point x="371" y="236" type="line" smooth="yes"/>
      <point x="371" y="63"/>
      <point x="293" y="-14"/>
      <point x="162" y="-14" type="curve" smooth="yes"/>
      <point x="43" y="-14"/>
      <point x="-20" y="56"/>
      <point x="-20" y="129" type="curve" smooth="yes"/>
      <point x="-20" y="196"/>
      <point x="28" y="250"/>
      <point x="107" y="250" type="curve" smooth="yes"/>
      <point x="120" y="250"/>
      <point x="126" y="244"/>
      <point x="126" y="239" type="curve" smooth="yes"/>
      <point x="125" y="228"/>
      <point x="72" y="192"/>
      <point x="77" y="131" type="curve"/>
      <point x="77" y="78"/>
      <point x="112" y="38"/>
      <point x="169" y="38" type="curve" smooth="yes"/>
      <point x="238" y="38"/>
      <point x="272" y="84"/>
      <point x="272" y="175" type="curve" smooth="yes"/>
      <point x="272" y="585" type="line" smooth="yes"/>
      <point x="272" y="616"/>
      <point x="268" y="637"/>
      <point x="259" y="649" type="curve" smooth="yes"/>
      <point x="250" y="661"/>
      <point x="233" y="671"/>
    </contour>
  </outline>
</glyph>
<glyph name="K" format="1">
  <advance width="668"/>
  <unicode hex="004B"/>
  <outline>
    <contour>
      <point x="40" y="34" type="line"/>
      <point x="63" y="40" type="line" smooth="yes"/>
      <point x="88" y="47"/>
      <point x="105" y="57"/>
      <point x="114" y="69" type="curve" smooth="yes"/>
      <point x="123" y="81"/>
      <point x="127" y="102"/>
      <point x="127" y="133" type="curve" smooth="yes"/>
      <point x="127" y="585" type="line" smooth="yes"/>
      <point x="127" y="616"/>
      <point x="123" y="637"/>
      <point x="114" y="649" type="curve" smooth="yes"/>
      <point x="105" y="661"/>
      <point x="88" y="671"/>
      <point x="63" y="678" type="curve" smooth="yes"/>
      <point x="40" y="684" type="line"/>
      <point x="52" y="718" type="line"/>
      <point x="271" y="718" type="line"/>
      <point x="284" y="702" type="line"/>
      <point x="271" y="684" type="line" smooth="yes"/>
      <point x="238" y="640"/>
      <point x="226" y="597"/>
      <point x="226" y="517" type="curve" smooth="yes"/>
      <point x="226" y="126" type="line" smooth="yes"/>
      <point x="226" y="69"/>
      <point x="238" y="53"/>
      <point x="287" y="38" type="curve" smooth="yes"/>
      <point x="308" y="32" type="line"/>
      <point x="297" y="0" type="line"/>
      <point x="52" y="0" type="line"/>
    </contour>
    <contour>
      <point x="595" y="41" type="curve" smooth="yes"/>
      <point x="608" y="41"/>
      <point x="621" y="46"/>
      <point x="634" y="55" type="curve"/>
      <point x="651" y="26" type="line"/>
      <point x="624" y="-1"/>
      <point x="593" y="-14"/>
      <point x="559" y="-14" type="curve" smooth="yes"/>
      <point x="499" y="-14"/>
      <point x="461" y="18"/>
      <point x="425" y="83" type="curve" smooth="yes"/>
      <point x="306" y="301" type="line" smooth="yes"/>
      <point x="291" y="326"/>
      <point x="282" y="334"/>
      <point x="255" y="346" type="curve" smooth="yes"/>
      <point x="252" y="348"/>
      <point x="250" y="352"/>
      <point x="250" y="357" type="curve" smooth="yes"/>
      <point x="250" y="369"/>
      <point x="255" y="381"/>
      <point x="270" y="381" type="curve" smooth="yes"/>
      <point x="281" y="381"/>
      <point x="289" y="381"/>
      <point x="294" y="380" type="curve"/>
      <point x="430" y="583" type="line" smooth="yes"/>
      <point x="447" y="610"/>
      <point x="451" y="622"/>
      <point x="451" y="639" type="curve" smooth="yes"/>
      <point x="451" y="650"/>
      <point x="447" y="665"/>
      <point x="438" y="684" type="curve" smooth="yes"/>
      <point x="429" y="702" type="line"/>
      <point x="448" y="718" type="line"/>
      <point x="629" y="718" type="line"/>
      <point x="641" y="684" type="line"/>
      <point x="618" y="678" type="line" smooth="yes"/>
      <point x="585" y="669"/>
      <point x="563" y="656"/>
      <point x="540" y="624" type="curve" smooth="yes"/>
      <point x="360" y="364" type="line"/>
      <point x="389" y="351"/>
      <point x="412" y="329"/>
      <point x="429" y="299" type="curve" smooth="yes"/>
      <point x="557" y="72" type="line" smooth="yes"/>
      <point x="569" y="52"/>
      <point x="579" y="41"/>
    </contour>
  </outline>
</glyph>
<glyph name="L" format="1">
  <advance width="550"/>
  <unicode hex="004C"/>
  <outline>
    <contour>
      <point x="290" y="57" type="curve" smooth="yes"/>
      <point x="377" y="57" type="line" smooth="yes"/>
      <point x="449" y="57"/>
      <point x="466" y="73"/>
      <point x="486" y="146" type="curve" smooth="yes"/>
      <point x="492" y="169" type="line"/>
      <point x="526" y="157" type="line"/>
      <point x="526" y="-14" type="line"/>
      <point x="506" y="-25" type="line"/>
      <point x="498" y="-14" type="line" smooth="yes"/>
      <point x="491" y="-5"/>
      <point x="477" y="0"/>
      <point x="456" y="0" type="curve" smooth="yes"/>
      <point x="56" y="0" type="line"/>
      <point x="45" y="32" type="line"/>
      <point x="66" y="38" type="line" smooth="yes"/>
      <point x="115" y="53"/>
      <point x="127" y="69"/>
      <point x="127" y="126" type="curve" smooth="yes"/>
      <point x="127" y="585" type="line" smooth="yes"/>
      <point x="127" y="616"/>
      <point x="123" y="637"/>
      <point x="114" y="649" type="curve" smooth="yes"/>
      <point x="105" y="661"/>
      <point x="88" y="671"/>
      <point x="63" y="678" type="curve" smooth="yes"/>
      <point x="40" y="684" type="line"/>
      <point x="52" y="718" type="line"/>
      <point x="271" y="718" type="line"/>
      <point x="284" y="702" type="line"/>
      <point x="271" y="684" type="line" smooth="yes"/>
      <point x="238" y="640"/>
      <point x="226" y="597"/>
      <point x="226" y="517" type="curve" smooth="yes"/>
      <point x="226" y="133" type="line" smooth="yes"/>
      <point x="226" y="70"/>
      <point x="237" y="57"/>
    </contour>
  </outline>
</glyph>
<glyph name="P" format="1">
  <advance width="596"/>
  <unicode hex="0050"/>
  <outline>
    <contour>
      <point x="271" y="34" type="curve" smooth="yes"/>
      <point x="284" y="16" type="line"/>
      <point x="271" y="0" type="line"/>
      <point x="52" y="0" type="line"/>
      <point x="40" y="34" type="line"/>
      <point x="63" y="40" type="line" smooth="yes"/>
      <point x="114" y="53"/>
      <point x="127" y="73"/>
      <point x="127" y="133" type="curve" smooth="yes"/>
      <point x="127" y="627" type="line" smooth="yes"/>
      <point x="127" y="644"/>
      <point x="121" y="651"/>
      <point x="105" y="651" type="curve" smooth="yes"/>
      <point x="47" y="651" type="line"/>
      <point x="35" y="688" type="line"/>
      <point x="64" y="699"/>
      <point x="101" y="709"/>
      <point x="148" y="718" type="curve" smooth="yes"/>
      <point x="195" y="727"/>
      <point x="241" y="732"/>
      <point x="284" y="732" type="curve" smooth="yes"/>
      <point x="383" y="732"/>
      <point x="456" y="710"/>
      <point x="504" y="665" type="curve" smooth="yes"/>
      <point x="552" y="621"/>
      <point x="576" y="564"/>
      <point x="576" y="494" type="curve" smooth="yes"/>
      <point x="576" y="365"/>
      <point x="498" y="261"/>
      <point x="336" y="261" type="curve" smooth="yes"/>
      <point x="287" y="261"/>
      <point x="248" y="273"/>
      <point x="248" y="296" type="curve" smooth="yes"/>
      <point x="248" y="309"/>
      <point x="253" y="320"/>
      <point x="264" y="320" type="curve" smooth="yes"/>
      <point x="269" y="320"/>
      <point x="286" y="313"/>
      <point x="313" y="313" type="curve" smooth="yes"/>
      <point x="413" y="313"/>
      <point x="472" y="382"/>
      <point x="472" y="491" type="curve" smooth="yes"/>
      <point x="472" y="599"/>
      <point x="410" y="676"/>
      <point x="302" y="676" type="curve" smooth="yes"/>
      <point x="251" y="676"/>
      <point x="226" y="661"/>
      <point x="226" y="630" type="curve" smooth="yes"/>
      <point x="226" y="201" type="line" smooth="yes"/>
      <point x="226" y="120"/>
      <point x="238" y="78"/>
    </contour>
  </outline>
</glyph>
<glyph name="R" format="1">
  <advance width="640"/>
  <unicode hex="0052"/>
  <outline>
    <contour>
      <point x="529" y="-14" type="curve" smooth="yes"/>
      <point x="464" y="-14"/>
      <point x="430" y="22"/>
      <point x="391" y="103" type="curve" smooth="yes"/>
      <point x="315" y="264" type="line" smooth="yes"/>
      <point x="303" y="291"/>
      <point x="290" y="298"/>
      <point x="247" y="314" type="curve" smooth="yes"/>
      <point x="234" y="319"/>
      <point x="228" y="326"/>
      <point x="228" y="337" type="curve" smooth="yes"/>
      <point x="228" y="350"/>
      <point x="233" y="361"/>
      <point x="244" y="361" type="curve" smooth="yes"/>
      <point x="249" y="361"/>
      <point x="266" y="354"/>
      <point x="293" y="354" type="curve" smooth="yes"/>
      <point x="393" y="354"/>
      <point x="452" y="415"/>
      <point x="452" y="510" type="curve" smooth="yes"/>
      <point x="452" y="607"/>
      <point x="390" y="676"/>
      <point x="282" y="676" type="curve" smooth="yes"/>
      <point x="231" y="676"/>
      <point x="206" y="661"/>
      <point x="206" y="630" type="curve" smooth="yes"/>
      <point x="206" y="201" type="line" smooth="yes"/>
      <point x="206" y="121"/>
      <point x="218" y="79"/>
      <point x="251" y="34" type="curve" smooth="yes"/>
      <point x="264" y="16" type="line"/>
      <point x="251" y="0" type="line"/>
      <point x="32" y="0" type="line"/>
      <point x="20" y="34" type="line"/>
      <point x="43" y="40" type="line" smooth="yes"/>
      <point x="94" y="53"/>
      <point x="107" y="73"/>
      <point x="107" y="133" type="curve" smooth="yes"/>
      <point x="107" y="627" type="line" smooth="yes"/>
      <point x="107" y="644"/>
      <point x="101" y="651"/>
      <point x="85" y="651" type="curve" smooth="yes"/>
      <point x="27" y="651" type="line"/>
      <point x="15" y="688" type="line"/>
      <point x="44" y="699"/>
      <point x="81" y="709"/>
      <point x="128" y="718" type="curve" smooth="yes"/>
      <point x="175" y="727"/>
      <point x="221" y="732"/>
      <point x="264" y="732" type="curve" smooth="yes"/>
      <point x="461" y="732"/>
      <point x="556" y="642"/>
      <point x="556" y="513" type="curve" smooth="yes"/>
      <point x="556" y="414"/>
      <point x="501" y="335"/>
      <point x="394" y="310" type="curve"/>
      <point x="409" y="300"/>
      <point x="422" y="284"/>
      <point x="434" y="261" type="curve" smooth="yes"/>
      <point x="527" y="72" type="line" smooth="yes"/>
      <point x="538" y="51"/>
      <point x="550" y="41"/>
      <point x="565" y="41" type="curve" smooth="yes"/>
      <point x="578" y="41"/>
      <point x="591" y="46"/>
      <point x="604" y="55" type="curve"/>
      <point x="621" y="26" type="line"/>
      <point x="594" y="-1"/>
      <point x="563" y="-14"/>
    </contour>
  </outline>
</glyph>
<glyph name="S" format="1">
  <advance width="572"/>
  <unicode hex="0053"/>
  <outline>
    <contour>
      <point x="421" y="155" type="curve" smooth="yes"/>
      <point x="421" y="212"/>
      <point x="388" y="252"/>
      <point x="344" y="277" type="curve" smooth="yes"/>
      <point x="323" y="290"/>
      <point x="293" y="304"/>
      <point x="256" y="321" type="curve" smooth="yes"/>
      <point x="213" y="340"/>
      <point x="179" y="358"/>
      <point x="153" y="374" type="curve" smooth="yes"/>
      <point x="128" y="390"/>
      <point x="106" y="411"/>
      <point x="88" y="438" type="curve" smooth="yes"/>
      <point x="70" y="465"/>
      <point x="61" y="498"/>
      <point x="61" y="538" type="curve" smooth="yes"/>
      <point x="61" y="640"/>
      <point x="136" y="732"/>
      <point x="279" y="732" type="curve" smooth="yes"/>
      <point x="411" y="732"/>
      <point x="504" y="672"/>
      <point x="504" y="585" type="curve" smooth="yes"/>
      <point x="504" y="517"/>
      <point x="458" y="468"/>
      <point x="397" y="468" type="curve" smooth="yes"/>
      <point x="383" y="468"/>
      <point x="376" y="472"/>
      <point x="376" y="480" type="curve" smooth="yes"/>
      <point x="376" y="489"/>
      <point x="409" y="524"/>
      <point x="406" y="571" type="curve" smooth="yes"/>
      <point x="406" y="634"/>
      <point x="355" y="676"/>
      <point x="279" y="676" type="curve" smooth="yes"/>
      <point x="200" y="676"/>
      <point x="156" y="625"/>
      <point x="156" y="561" type="curve" smooth="yes"/>
      <point x="156" y="512"/>
      <point x="188" y="476"/>
      <point x="229" y="452" type="curve" smooth="yes"/>
      <point x="250" y="440"/>
      <point x="278" y="426"/>
      <point x="315" y="409" type="curve" smooth="yes"/>
      <point x="403" y="370"/>
      <point x="454" y="343"/>
      <point x="493" y="286" type="curve" smooth="yes"/>
      <point x="512" y="258"/>
      <point x="522" y="223"/>
      <point x="522" y="181" type="curve" smooth="yes"/>
      <point x="522" y="62"/>
      <point x="440" y="-14"/>
      <point x="292" y="-14" type="curve" smooth="yes"/>
      <point x="148" y="-14"/>
      <point x="45" y="53"/>
      <point x="45" y="147" type="curve" smooth="yes"/>
      <point x="45" y="215"/>
      <point x="94" y="264"/>
      <point x="159" y="264" type="curve" smooth="yes"/>
      <point x="174" y="264"/>
      <point x="180" y="259"/>
      <point x="180" y="252" type="curve" smooth="yes"/>
      <point x="180" y="244"/>
      <point x="145" y="209"/>
      <point x="148" y="161" type="curve" smooth="yes"/>
      <point x="148" y="90"/>
      <point x="207" y="42"/>
      <point x="292" y="42" type="curve" smooth="yes"/>
      <point x="369" y="42"/>
      <point x="421" y="84"/>
    </contour>
  </outline>
</glyph>
<glyph name="V" format="1">
  <advance width="682"/>
  <unicode hex="0056"/>
  <outline>
    <contour>
      <point x="290" y="0" type="line"/>
      <point x="95" y="580" type="line" smooth="yes"/>
      <point x="85" y="611"/>
      <point x="74" y="634"/>
      <point x="61" y="650" type="curve" smooth="yes"/>
      <point x="48" y="666"/>
      <point x="30" y="683"/>
      <point x="5" y="702" type="curve"/>
      <point x="18" y="718" type="line"/>
      <point x="243" y="718" type="line"/>
      <point x="255" y="684" type="line"/>
      <point x="232" y="678" type="line" smooth="yes"/>
      <point x="200" y="670"/>
      <point x="187" y="658"/>
      <point x="187" y="634" type="curve" smooth="yes"/>
      <point x="187" y="623"/>
      <point x="191" y="607"/>
      <point x="198" y="585" type="curve" smooth="yes"/>
      <point x="361" y="83" type="line"/>
      <point x="501" y="518" type="line" smooth="yes"/>
      <point x="514" y="558"/>
      <point x="520" y="589"/>
      <point x="520" y="611" type="curve" smooth="yes"/>
      <point x="519" y="648"/>
      <point x="504" y="670"/>
      <point x="475" y="678" type="curve" smooth="yes"/>
      <point x="452" y="684" type="line"/>
      <point x="464" y="718" type="line"/>
      <point x="654" y="718" type="line"/>
      <point x="667" y="702" type="line"/>
      <point x="652" y="684" type="line" smooth="yes"/>
      <point x="627" y="655"/>
      <point x="609" y="621"/>
      <point x="597" y="584" type="curve" smooth="yes"/>
      <point x="404" y="0" type="line"/>
    </contour>
  </outline>
</glyph>
<glyph name="W" format="1">
  <advance width="1087"/>
  <unicode hex="0057"/>
  <outline>
    <contour>
      <point x="695" y="0" type="line"/>
      <point x="548" y="436" type="line"/>
      <point x="404" y="0" type="line"/>
      <point x="290" y="0" type="line"/>
      <point x="95" y="580" type="line" smooth="yes"/>
      <point x="85" y="611"/>
      <point x="74" y="634"/>
      <point x="61" y="650" type="curve" smooth="yes"/>
      <point x="48" y="666"/>
      <point x="30" y="683"/>
      <point x="5" y="702" type="curve"/>
      <point x="18" y="718" type="line"/>
      <point x="243" y="718" type="line"/>
      <point x="255" y="684" type="line"/>
      <point x="232" y="678" type="line" smooth="yes"/>
      <point x="200" y="670"/>
      <point x="187" y="658"/>
      <point x="187" y="634" type="curve" smooth="yes"/>
      <point x="187" y="623"/>
      <point x="191" y="607"/>
      <point x="198" y="585" type="curve" smooth="yes"/>
      <point x="361" y="83" type="line"/>
      <point x="510" y="548" type="line"/>
      <point x="500" y="580" type="line" smooth="yes"/>
      <point x="490" y="611"/>
      <point x="479" y="634"/>
      <point x="466" y="650" type="curve" smooth="yes"/>
      <point x="453" y="666"/>
      <point x="435" y="683"/>
      <point x="410" y="702" type="curve"/>
      <point x="423" y="718" type="line"/>
      <point x="648" y="718" type="line"/>
      <point x="660" y="684" type="line"/>
      <point x="637" y="678" type="line" smooth="yes"/>
      <point x="605" y="670"/>
      <point x="592" y="658"/>
      <point x="592" y="634" type="curve" smooth="yes"/>
      <point x="592" y="623"/>
      <point x="596" y="607"/>
      <point x="603" y="585" type="curve" smooth="yes"/>
      <point x="766" y="83" type="line"/>
      <point x="906" y="518" type="line" smooth="yes"/>
      <point x="919" y="558"/>
      <point x="925" y="589"/>
      <point x="925" y="611" type="curve" smooth="yes"/>
      <point x="924" y="648"/>
      <point x="909" y="670"/>
      <point x="880" y="678" type="curve" smooth="yes"/>
      <point x="857" y="684" type="line"/>
      <point x="869" y="718" type="line"/>
      <point x="1059" y="718" type="line"/>
      <point x="1072" y="702" type="line"/>
      <point x="1057" y="684" type="line" smooth="yes"/>
      <point x="1032" y="655"/>
      <point x="1014" y="621"/>
      <point x="1002" y="584" type="curve" smooth="yes"/>
      <point x="809" y="0" type="line"/>
    </contour>
  </outline>
</glyph>
<glyph name="X" format="1">
  <advance width="680"/>
  <unicode hex="0058"/>
  <outline>
    <contour>
      <point x="456" y="583" type="line" smooth="yes"/>
      <point x="473" y="610"/>
      <point x="477" y="622"/>
      <point x="477" y="639" type="curve" smooth="yes"/>
      <point x="477" y="650"/>
      <point x="473" y="665"/>
      <point x="464" y="684" type="curve" smooth="yes"/>
      <point x="455" y="702" type="line"/>
      <point x="474" y="718" type="line"/>
      <point x="658" y="718" type="line"/>
      <point x="670" y="684" type="line"/>
      <point x="647" y="678" type="line" smooth="yes"/>
      <point x="614" y="669"/>
      <point x="592" y="656"/>
      <point x="569" y="624" type="curve" smooth="yes"/>
      <point x="394" y="371" type="line"/>
      <point x="574" y="116" type="line" smooth="yes"/>
      <point x="609" y="67"/>
      <point x="626" y="44"/>
      <point x="661" y="16" type="curve"/>
      <point x="648" y="0" type="line"/>
      <point x="411" y="0" type="line"/>
      <point x="399" y="34" type="line"/>
      <point x="422" y="40" type="line" smooth="yes"/>
      <point x="448" y="47"/>
      <point x="461" y="62"/>
      <point x="461" y="83" type="curve" smooth="yes"/>
      <point x="461" y="100"/>
      <point x="454" y="120"/>
      <point x="439" y="142" type="curve" smooth="yes"/>
      <point x="330" y="295" type="line"/>
      <point x="224" y="135" type="line" smooth="yes"/>
      <point x="207" y="108"/>
      <point x="203" y="96"/>
      <point x="203" y="79" type="curve" smooth="yes"/>
      <point x="203" y="68"/>
      <point x="207" y="53"/>
      <point x="216" y="34" type="curve" smooth="yes"/>
      <point x="225" y="16" type="line"/>
      <point x="206" y="0" type="line"/>
      <point x="22" y="0" type="line"/>
      <point x="10" y="34" type="line"/>
      <point x="33" y="40" type="line" smooth="yes"/>
      <point x="66" y="49"/>
      <point x="88" y="62"/>
      <point x="111" y="94" type="curve" smooth="yes"/>
      <point x="290" y="353" type="line"/>
      <point x="119" y="596" type="line" smooth="yes"/>
      <point x="84" y="644"/>
      <point x="54" y="679"/>
      <point x="28" y="702" type="curve"/>
      <point x="41" y="718" type="line"/>
      <point x="278" y="718" type="line"/>
      <point x="290" y="684" type="line"/>
      <point x="267" y="678" type="line" smooth="yes"/>
      <point x="241" y="671"/>
      <point x="228" y="656"/>
      <point x="228" y="635" type="curve" smooth="yes"/>
      <point x="228" y="618"/>
      <point x="235" y="598"/>
      <point x="250" y="576" type="curve" smooth="yes"/>
      <point x="353" y="429" type="line"/>
    </contour>
  </outline>
</glyph>
<glyph name="Z" format="1">
  <advance width="590"/>
  <unicode hex="005A"/>
  <outline>
    <contour>
      <point x="57" y="561" type="line"/>
      <point x="57" y="739" type="line"/>
      <point x="73" y="752" type="line"/>
      <point x="91" y="739" type="line" smooth="yes"/>
      <point x="110" y="725"/>
      <point x="148" y="718"/>
      <point x="205" y="718" type="curve" smooth="yes"/>
      <point x="570" y="718" type="line"/>
      <point x="175" y="57" type="line"/>
      <point x="401" y="57" type="line" smooth="yes"/>
      <point x="473" y="57"/>
      <point x="490" y="73"/>
      <point x="510" y="146" type="curve" smooth="yes"/>
      <point x="516" y="169" type="line"/>
      <point x="550" y="157" type="line"/>
      <point x="550" y="-14" type="line"/>
      <point x="530" y="-25" type="line"/>
      <point x="522" y="-14" type="line" smooth="yes"/>
      <point x="515" y="-5"/>
      <point x="501" y="0"/>
      <point x="480" y="0" type="curve" smooth="yes"/>
      <point x="20" y="0" type="line"/>
      <point x="417" y="661" type="line"/>
      <point x="206" y="661" type="line" smooth="yes"/>
      <point x="134" y="661"/>
      <point x="117" y="645"/>
      <point x="97" y="572" type="curve" smooth="yes"/>
      <point x="91" y="549" type="line"/>
    </contour>
  </outline>
</glyph>
<glyph name="bracketleft" format="1">
  <advance width="387"/>
  <unicode hex="005B"/>
  <outline>
    <contour>
      <point x="360" y="774" type="line"/>
      <point x="360" y="726" type="line"/>
      <point x="280" y="714" type="line" smooth="yes"/>
      <point x="240" y="707"/>
      <point x="225" y="696"/>
      <point x="225" y="661" type="curve" smooth="yes"/>
      <point x="225" y="1" type="line" smooth="yes"/>
      <point x="225" y="-34"/>
      <point x="240" y="-45"/>
      <point x="280" y="-52" type="curve" smooth="yes"/>
      <point x="360" y="-64" type="line"/>
      <point x="360" y="-112" type="line"/>
      <point x="126" y="-112" type="line"/>
      <point x="126" y="774" type="line"/>
    </contour>
  </outline>
</glyph>
<glyph name="backslash" format="1">
  <advance width="371"/>
  <unicode hex="005C"/>
  <outline>
    <contour>
      <point x="300" y="-63" type="line"/>
      <point x="0" y="781" type="line"/>
      <point x="72" y="781" type="line"/>
      <point x="371" y="-63" type="line"/>
    </contour>
  </outline>
</glyph>
<glyph name="bracketright" format="1">
  <advance width="387"/>
  <unicode hex="005D"/>
  <outline>
    <contour>
      <point x="261" y="-112" type="line"/>
      <point x="27" y="-112" type="line"/>
      <point x="27" y="-64" type="line"/>
      <point x="107" y="-52" type="line" smooth="yes"/>
      <point x="147" y="-45"/>
      <point x="162" y="-34"/>
      <point x="162" y="1" type="curve" smooth="yes"/>
      <point x="162" y="661" type="line" smooth="yes"/>
      <point x="162" y="696"/>
      <point x="147" y="707"/>
      <point x="107" y="714" type="curve" smooth="yes"/>
      <point x="27" y="726" type="line"/>
      <point x="27" y="774" type="line"/>
      <point x="261" y="774" type="line"/>
    </contour>
  </outline>
</glyph>
<glyph name="asciicircum" format="1">
  <advance width="621"/>
  <unicode hex="005E"/>
  <outline>
    <contour>
      <point x="353" y="718" type="line"/>
      <point x="524" y="398" type="line"/>
      <point x="443" y="398" type="line"/>
      <point x="309" y="653" type="line"/>
      <point x="177" y="398" type="line"/>
      <point x="96" y="398" type="line"/>
      <point x="267" y="718" type="line"/>
    </contour>
  </outline>
</glyph>
<glyph name="underscore" format="1">
  <advance width="355"/>
  <unicode hex="005F"/>
  <outline>
    <contour>
      <point x="0" y="-14" type="curve"/>
      <point x="381" y="-14" type="line"/>
      <point x="381" y="-42"/>
      <point x="374" y="-71"/>
      <point x="355" y="-84" type="curve"/>
      <point x="-26" y="-84" type="line"/>
      <point x="-26" y="-57"/>
      <point x="-17" y="-27"/>
    </contour>
  </outline>
</glyph>
<glyph name="grave" format="1">
  <advance width="288"/>
  <unicode hex="0060"/>
  <outline>
    <contour>
      <point x="223" y="569" type="line"/>
      <point x="110" y="625" type="line" smooth="yes"/>
      <point x="70" y="645"/>
      <point x="54" y="668"/>
      <point x="54" y="697" type="curve" smooth="yes"/>
      <point x="54" y="725"/>
      <point x="71" y="748"/>
      <point x="96" y="760" type="curve"/>
      <point x="252" y="604" type="line"/>
    </contour>
  </outline>
</glyph>
<glyph name="a" format="1">
  <advance width="604"/>
  <unicode hex="0061"/>
  <outline>
    <contour>
      <point x="224" y="-14" type="curve" smooth="yes"/>
      <point x="128" y="-14"/>
      <point x="45" y="71"/>
      <point x="45" y="229" type="curve" smooth="yes"/>
      <point x="45" y="402"/>
      <point x="145" y="510"/>
      <point x="304" y="510" type="curve" smooth="yes"/>
      <point x="330" y="510"/>
      <point x="367" y="506"/>
      <point x="414" y="497" type="curve" smooth="yes"/>
      <point x="454" y="490"/>
      <point x="484" y="486"/>
      <point x="504" y="485" type="curve"/>
      <point x="515" y="472" type="line"/>
      <point x="503" y="454" type="line" smooth="yes"/>
      <point x="494" y="441"/>
      <point x="490" y="431"/>
      <point x="490" y="415" type="curve" smooth="yes"/>
      <point x="490" y="88" type="line" smooth="yes"/>
      <point x="490" y="67"/>
      <point x="500" y="57"/>
      <point x="520" y="57" type="curve" smooth="yes"/>
      <point x="537" y="57"/>
      <point x="553" y="63"/>
      <point x="570" y="75" type="curve"/>
      <point x="589" y="49" type="line"/>
      <point x="554" y="10"/>
      <point x="511" y="-14"/>
      <point x="478" y="-14" type="curve" smooth="yes"/>
      <point x="423" y="-14"/>
      <point x="401" y="17"/>
      <point x="401" y="92" type="curve"/>
      <point x="346" y="15"/>
      <point x="291" y="-14"/>
    </contour>
    <contour>
      <point x="264" y="63" type="curve" smooth="yes"/>
      <point x="317" y="63"/>
      <point x="365" y="93"/>
      <point x="401" y="154" type="curve"/>
      <point x="401" y="424" type="line"/>
      <point x="370" y="445"/>
      <point x="338" y="455"/>
      <point x="303" y="455" type="curve" smooth="yes"/>
      <point x="206" y="455"/>
      <point x="150" y="379"/>
      <point x="150" y="248" type="curve" smooth="yes"/>
      <point x="150" y="121"/>
      <point x="199" y="63"/>
    </contour>
  </outline>
</glyph>
<glyph name="b" format="1">
  <advance width="590"/>
  <unicode hex="0062"/>
  <outline>
    <contour>
      <point x="237" y="441" type="curve" smooth="yes"/>
      <point x="229" y="441"/>
      <point x="222" y="452"/>
      <point x="222" y="463" type="curve" smooth="yes"/>
      <point x="222" y="471"/>
      <point x="225" y="477"/>
      <point x="231" y="481" type="curve" smooth="yes"/>
      <point x="262" y="500"/>
      <point x="295" y="510"/>
      <point x="332" y="510" type="curve" smooth="yes"/>
      <point x="457" y="510"/>
      <point x="545" y="409"/>
      <point x="545" y="268" type="curve" smooth="yes"/>
      <point x="545" y="107"/>
      <point x="433" y="-14"/>
      <point x="285" y="-14" type="curve" smooth="yes"/>
      <point x="208" y="-14"/>
      <point x="137" y="10"/>
      <point x="98" y="49" type="curve"/>
      <point x="98" y="674" type="line" smooth="yes"/>
      <point x="98" y="690"/>
      <point x="93" y="696"/>
      <point x="78" y="696" type="curve" smooth="yes"/>
      <point x="34" y="696" type="line"/>
      <point x="25" y="722" type="line"/>
      <point x="64" y="757"/>
      <point x="118" y="782"/>
      <point x="157" y="782" type="curve" smooth="yes"/>
      <point x="176" y="782"/>
      <point x="189" y="769"/>
      <point x="189" y="750" type="curve" smooth="yes"/>
      <point x="189" y="74" type="line"/>
      <point x="221" y="51"/>
      <point x="251" y="42"/>
      <point x="294" y="42" type="curve" smooth="yes"/>
      <point x="383" y="42"/>
      <point x="439" y="121"/>
      <point x="439" y="248" type="curve" smooth="yes"/>
      <point x="439" y="369"/>
      <point x="383" y="454"/>
      <point x="301" y="454" type="curve" smooth="yes"/>
      <point x="265" y="454"/>
      <point x="241" y="441"/>
    </contour>
  </outline>
</glyph>
<glyph name="d" format="1">
  <advance width="604"/>
  <unicode hex="0064"/>
  <outline>
    <contour>
      <point x="520" y="57" type="curve" smooth="yes"/>
      <point x="537" y="57"/>
      <point x="553" y="63"/>
      <point x="570" y="75" type="curve"/>
      <point x="589" y="49" type="line"/>
      <point x="554" y="10"/>
      <point x="511" y="-14"/>
      <point x="478" y="-14" type="curve" smooth="yes"/>
      <point x="423" y="-14"/>
      <point x="401" y="17"/>
      <point x="401" y="92" type="curve"/>
      <point x="346" y="15"/>
      <point x="291" y="-14"/>
      <point x="224" y="-14" type="curve" smooth="yes"/>
      <point x="128" y="-14"/>
      <point x="45" y="71"/>
      <point x="45" y="229" type="curve" smooth="yes"/>
      <point x="45" y="402"/>
      <point x="145" y="510"/>
      <point x="304" y="510" type="curve" smooth="yes"/>
      <point x="339" y="510"/>
      <point x="370" y="506"/>
      <point x="399" y="497" type="curve"/>
      <point x="399" y="674" type="line" smooth="yes"/>
      <point x="399" y="690"/>
      <point x="394" y="696"/>
      <point x="379" y="696" type="curve" smooth="yes"/>
      <point x="335" y="696" type="line"/>
      <point x="326" y="722" type="line"/>
      <point x="365" y="757"/>
      <point x="421" y="782"/>
      <point x="458" y="782" type="curve" smooth="yes"/>
      <point x="477" y="782"/>
      <point x="490" y="769"/>
      <point x="490" y="750" type="curve" smooth="yes"/>
      <point x="490" y="88" type="line" smooth="yes"/>
      <point x="490" y="67"/>
      <point x="500" y="57"/>
    </contour>
    <contour>
      <point x="264" y="63" type="curve" smooth="yes"/>
      <point x="317" y="63"/>
      <point x="365" y="93"/>
      <point x="401" y="154" type="curve"/>
      <point x="401" y="424" type="line"/>
      <point x="370" y="445"/>
      <point x="338" y="455"/>
      <point x="303" y="455" type="curve" smooth="yes"/>
      <point x="206" y="455"/>
      <point x="150" y="379"/>
      <point x="150" y="248" type="curve" smooth="yes"/>
      <point x="150" y="121"/>
      <point x="199" y="63"/>
    </contour>
  </outline>
</glyph>
<glyph name="f" format="1">
  <advance width="334"/>
  <unicode hex="0066"/>
  <outline>
    <contour>
      <point x="295" y="782" type="curve" smooth="yes"/>
      <point x="382" y="782"/>
      <point x="444" y="736"/>
      <point x="444" y="671" type="curve" smooth="yes"/>
      <point x="444" y="614"/>
      <point x="403" y="573"/>
      <point x="346" y="573" type="curve" smooth="yes"/>
      <point x="333" y="573"/>
      <point x="327" y="577"/>
      <point x="327" y="584" type="curve" smooth="yes"/>
      <point x="327" y="592"/>
      <point x="351" y="618"/>
      <point x="351" y="666" type="curve" smooth="yes"/>
      <point x="351" y="709"/>
      <point x="325" y="737"/>
      <point x="284" y="737" type="curve" smooth="yes"/>
      <point x="225" y="737"/>
      <point x="199" y="676"/>
      <point x="199" y="573" type="curve" smooth="yes"/>
      <point x="199" y="497" type="line"/>
      <point x="339" y="497" type="line"/>
      <point x="339" y="469"/>
      <point x="331" y="445"/>
      <point x="316" y="434" type="curve"/>
      <point x="199" y="434" type="line"/>
      <point x="199" y="-13" type="line" smooth="yes"/>
      <point x="199" y="-152"/>
      <point x="138" y="-238"/>
      <point x="19" y="-238" type="curve" smooth="yes"/>
      <point x="-53" y="-238"/>
      <point x="-105" y="-199"/>
      <point x="-105" y="-136" type="curve" smooth="yes"/>
      <point x="-105" y="-85"/>
      <point x="-63" y="-46"/>
      <point x="-7" y="-46" type="curve" smooth="yes"/>
      <point x="6" y="-46"/>
      <point x="12" y="-50"/>
      <point x="12" y="-57" type="curve" smooth="yes"/>
      <point x="12" y="-65"/>
      <point x="-19" y="-89"/>
      <point x="-16" y="-129" type="curve" smooth="yes"/>
      <point x="-16" y="-170"/>
      <point x="7" y="-195"/>
      <point x="39" y="-195" type="curve" smooth="yes"/>
      <point x="79" y="-195"/>
      <point x="109" y="-159"/>
      <point x="109" y="-90" type="curve" smooth="yes"/>
      <point x="109" y="434" type="line"/>
      <point x="21" y="434" type="line"/>
      <point x="21" y="470"/>
      <point x="24" y="476"/>
      <point x="45" y="481" type="curve" smooth="yes"/>
      <point x="109" y="497" type="line"/>
      <point x="109" y="674"/>
      <point x="172" y="782"/>
    </contour>
  </outline>
</glyph>
<glyph name="g" format="1">
  <advance width="602"/>
  <unicode hex="0067"/>
  <outline>
    <contour>
      <point x="416" y="-38" type="curve" smooth="yes"/>
      <point x="416" y="121" type="line"/>
      <point x="361" y="44"/>
      <point x="306" y="15"/>
      <point x="239" y="15" type="curve" smooth="yes"/>
      <point x="143" y="15"/>
      <point x="60" y="90"/>
      <point x="60" y="229" type="curve" smooth="yes"/>
      <point x="60" y="402"/>
      <point x="160" y="510"/>
      <point x="319" y="510" type="curve" smooth="yes"/>
      <point x="345" y="510"/>
      <point x="382" y="506"/>
      <point x="429" y="497" type="curve" smooth="yes"/>
      <point x="469" y="490"/>
      <point x="499" y="486"/>
      <point x="519" y="485" type="curve"/>
      <point x="530" y="472" type="line"/>
      <point x="518" y="454" type="line" smooth="yes"/>
      <point x="509" y="441"/>
      <point x="505" y="431"/>
      <point x="505" y="415" type="curve" smooth="yes"/>
      <point x="505" y="-22" type="line" smooth="yes"/>
      <point x="505" y="-186"/>
      <point x="420" y="-278"/>
      <point x="283" y="-278" type="curve" smooth="yes"/>
      <point x="171" y="-278"/>
      <point x="112" y="-208"/>
      <point x="112" y="-135" type="curve" smooth="yes"/>
      <point x="112" y="-68"/>
      <point x="160" y="-14"/>
      <point x="239" y="-14" type="curve" smooth="yes"/>
      <point x="252" y="-14"/>
      <point x="258" y="-20"/>
      <point x="258" y="-25" type="curve" smooth="yes"/>
      <point x="257" y="-35"/>
      <point x="204" y="-72"/>
      <point x="209" y="-133" type="curve"/>
      <point x="209" y="-186"/>
      <point x="243" y="-226"/>
      <point x="296" y="-226" type="curve" smooth="yes"/>
      <point x="379" y="-226"/>
      <point x="416" y="-153"/>
    </contour>
    <contour>
      <point x="279" y="92" type="curve" smooth="yes"/>
      <point x="332" y="92"/>
      <point x="380" y="122"/>
      <point x="416" y="183" type="curve"/>
      <point x="416" y="424" type="line"/>
      <point x="385" y="445"/>
      <point x="353" y="455"/>
      <point x="318" y="455" type="curve" smooth="yes"/>
      <point x="221" y="455"/>
      <point x="165" y="379"/>
      <point x="165" y="248" type="curve" smooth="yes"/>
      <point x="165" y="141"/>
      <point x="214" y="92"/>
    </contour>
  </outline>
</glyph>
<glyph name="h" format="1">
  <advance width="639"/>
  <unicode hex="0068"/>
  <outline>
    <contour>
      <point x="88" y="696" type="curve" smooth="yes"/>
      <point x="44" y="696" type="line"/>
      <point x="35" y="722" type="line"/>
      <point x="74" y="757"/>
      <point x="130" y="782"/>
      <point x="167" y="782" type="curve" smooth="yes"/>
      <point x="186" y="782"/>
      <point x="199" y="769"/>
      <point x="199" y="750" type="curve" smooth="yes"/>
      <point x="199" y="361" type="line"/>
      <point x="216" y="404"/>
      <point x="242" y="440"/>
      <point x="277" y="468" type="curve" smooth="yes"/>
      <point x="312" y="496"/>
      <point x="348" y="510"/>
      <point x="386" y="510" type="curve" smooth="yes"/>
      <point x="483" y="510"/>
      <point x="520" y="456"/>
      <point x="520" y="328" type="curve" smooth="yes"/>
      <point x="520" y="86" type="line" smooth="yes"/>
      <point x="520" y="63"/>
      <point x="530" y="52"/>
      <point x="550" y="52" type="curve" smooth="yes"/>
      <point x="567" y="52"/>
      <point x="583" y="59"/>
      <point x="600" y="73" type="curve"/>
      <point x="619" y="47" type="line"/>
      <point x="584" y="8"/>
      <point x="542" y="-16"/>
      <point x="507" y="-16" type="curve" smooth="yes"/>
      <point x="452" y="-16"/>
      <point x="430" y="15"/>
      <point x="430" y="90" type="curve" smooth="yes"/>
      <point x="430" y="328" type="line" smooth="yes"/>
      <point x="430" y="399"/>
      <point x="407" y="432"/>
      <point x="344" y="432" type="curve" smooth="yes"/>
      <point x="259" y="432"/>
      <point x="199" y="322"/>
      <point x="199" y="160" type="curve" smooth="yes"/>
      <point x="199" y="97"/>
      <point x="207" y="66"/>
      <point x="231" y="31" type="curve" smooth="yes"/>
      <point x="243" y="15" type="line"/>
      <point x="231" y="0" type="line"/>
      <point x="56" y="0" type="line"/>
      <point x="45" y="31" type="line"/>
      <point x="66" y="36" type="line" smooth="yes"/>
      <point x="99" y="44"/>
      <point x="108" y="60"/>
      <point x="108" y="111" type="curve" smooth="yes"/>
      <point x="108" y="674" type="line" smooth="yes"/>
      <point x="108" y="690"/>
      <point x="103" y="696"/>
    </contour>
  </outline>
</glyph>
<glyph name="j" format="1">
  <advance width="291"/>
  <unicode hex="006A"/>
  <outline>
    <contour>
      <point x="148" y="724" type="curve" smooth="yes"/>
      <point x="161" y="724"/>
      <point x="174" y="716"/>
      <point x="189" y="701" type="curve" smooth="yes"/>
      <point x="204" y="686"/>
      <point x="211" y="671"/>
      <point x="211" y="658" type="curve" smooth="yes"/>
      <point x="211" y="645"/>
      <point x="204" y="631"/>
      <point x="189" y="616" type="curve" smooth="yes"/>
      <point x="174" y="601"/>
      <point x="161" y="593"/>
      <point x="148" y="593" type="curve" smooth="yes"/>
      <point x="137" y="593"/>
      <point x="124" y="601"/>
      <point x="109" y="616" type="curve" smooth="yes"/>
      <point x="94" y="631"/>
      <point x="87" y="645"/>
      <point x="87" y="658" type="curve" smooth="yes"/>
      <point x="87" y="671"/>
      <point x="94" y="685"/>
      <point x="108" y="700" type="curve" smooth="yes"/>
      <point x="123" y="716"/>
      <point x="136" y="724"/>
    </contour>
    <contour>
      <point x="83" y="424" type="curve" smooth="yes"/>
      <point x="39" y="424" type="line"/>
      <point x="30" y="450" type="line"/>
      <point x="69" y="485"/>
      <point x="125" y="510"/>
      <point x="162" y="510" type="curve" smooth="yes"/>
      <point x="181" y="510"/>
      <point x="194" y="497"/>
      <point x="194" y="478" type="curve" smooth="yes"/>
      <point x="194" y="-53" type="line" smooth="yes"/>
      <point x="194" y="-192"/>
      <point x="133" y="-278"/>
      <point x="13" y="-278" type="curve" smooth="yes"/>
      <point x="-59" y="-278"/>
      <point x="-111" y="-239"/>
      <point x="-111" y="-176" type="curve" smooth="yes"/>
      <point x="-111" y="-125"/>
      <point x="-69" y="-86"/>
      <point x="-13" y="-86" type="curve" smooth="yes"/>
      <point x="0" y="-86"/>
      <point x="6" y="-90"/>
      <point x="6" y="-97" type="curve" smooth="yes"/>
      <point x="6" y="-105"/>
      <point x="-25" y="-129"/>
      <point x="-22" y="-169" type="curve" smooth="yes"/>
      <point x="-22" y="-210"/>
      <point x="1" y="-235"/>
      <point x="33" y="-235" type="curve" smooth="yes"/>
      <point x="73" y="-235"/>
      <point x="103" y="-199"/>
      <point x="103" y="-130" type="curve" smooth="yes"/>
      <point x="103" y="402" type="line" smooth="yes"/>
      <point x="103" y="418"/>
      <point x="98" y="424"/>
    </contour>
  </outline>
</glyph>
<glyph name="l" format="1">
  <advance width="302"/>
  <unicode hex="006C"/>
  <outline>
    <contour>
      <point x="218" y="54" type="curve" smooth="yes"/>
      <point x="235" y="54"/>
      <point x="251" y="61"/>
      <point x="268" y="75" type="curve"/>
      <point x="287" y="49" type="line"/>
      <point x="252" y="10"/>
      <point x="210" y="-14"/>
      <point x="175" y="-14" type="curve" smooth="yes"/>
      <point x="120" y="-14"/>
      <point x="98" y="17"/>
      <point x="98" y="92" type="curve" smooth="yes"/>
      <point x="98" y="674" type="line" smooth="yes"/>
      <point x="98" y="690"/>
      <point x="93" y="696"/>
      <point x="78" y="696" type="curve" smooth="yes"/>
      <point x="34" y="696" type="line"/>
      <point x="25" y="722" type="line"/>
      <point x="64" y="757"/>
      <point x="118" y="782"/>
      <point x="157" y="782" type="curve" smooth="yes"/>
      <point x="176" y="782"/>
      <point x="189" y="769"/>
      <point x="189" y="750" type="curve" smooth="yes"/>
      <point x="188" y="88" type="line" smooth="yes"/>
      <point x="188" y="65"/>
      <point x="198" y="54"/>
    </contour>
  </outline>
</glyph>
<glyph name="n" format="1">
  <advance width="644"/>
  <unicode hex="006E"/>
  <outline>
    <contour>
      <point x="236" y="31" type="curve" smooth="yes"/>
      <point x="248" y="15" type="line"/>
      <point x="236" y="0" type="line"/>
      <point x="61" y="0" type="line"/>
      <point x="50" y="31" type="line"/>
      <point x="71" y="36" type="line" smooth="yes"/>
      <point x="104" y="44"/>
      <point x="113" y="60"/>
      <point x="113" y="111" type="curve" smooth="yes"/>
      <point x="113" y="392" type="line" smooth="yes"/>
      <point x="113" y="408"/>
      <point x="108" y="414"/>
      <point x="93" y="414" type="curve" smooth="yes"/>
      <point x="49" y="414" type="line"/>
      <point x="40" y="440" type="line"/>
      <point x="79" y="475"/>
      <point x="135" y="500"/>
      <point x="172" y="500" type="curve" smooth="yes"/>
      <point x="191" y="500"/>
      <point x="204" y="487"/>
      <point x="204" y="468" type="curve" smooth="yes"/>
      <point x="204" y="361" type="line"/>
      <point x="221" y="404"/>
      <point x="247" y="440"/>
      <point x="282" y="468" type="curve" smooth="yes"/>
      <point x="317" y="496"/>
      <point x="353" y="510"/>
      <point x="391" y="510" type="curve" smooth="yes"/>
      <point x="484" y="510"/>
      <point x="525" y="455"/>
      <point x="525" y="330" type="curve" smooth="yes"/>
      <point x="525" y="88" type="line" smooth="yes"/>
      <point x="525" y="65"/>
      <point x="535" y="54"/>
      <point x="555" y="54" type="curve" smooth="yes"/>
      <point x="570" y="54"/>
      <point x="587" y="61"/>
      <point x="605" y="75" type="curve"/>
      <point x="624" y="49" type="line"/>
      <point x="589" y="10"/>
      <point x="547" y="-14"/>
      <point x="512" y="-14" type="curve" smooth="yes"/>
      <point x="457" y="-14"/>
      <point x="435" y="17"/>
      <point x="435" y="92" type="curve" smooth="yes"/>
      <point x="435" y="330" type="line" smooth="yes"/>
      <point x="435" y="398"/>
      <point x="406" y="432"/>
      <point x="349" y="432" type="curve" smooth="yes"/>
      <point x="264" y="432"/>
      <point x="204" y="322"/>
      <point x="204" y="160" type="curve" smooth="yes"/>
      <point x="204" y="97"/>
      <point x="212" y="66"/>
    </contour>
  </outline>
</glyph>
<glyph name="r" format="1">
  <advance width="437"/>
  <unicode hex="0072"/>
  <outline>
    <contour>
      <point x="210" y="361" type="line"/>
      <point x="233" y="450"/>
      <point x="284" y="510"/>
      <point x="340" y="510" type="curve" smooth="yes"/>
      <point x="396" y="510"/>
      <point x="437" y="471"/>
      <point x="437" y="408" type="curve" smooth="yes"/>
      <point x="437" y="357"/>
      <point x="395" y="318"/>
      <point x="339" y="318" type="curve" smooth="yes"/>
      <point x="326" y="318"/>
      <point x="320" y="322"/>
      <point x="320" y="329" type="curve" smooth="yes"/>
      <point x="321" y="337"/>
      <point x="351" y="369"/>
      <point x="348" y="398" type="curve" smooth="yes"/>
      <point x="348" y="422"/>
      <point x="334" y="437"/>
      <point x="315" y="437" type="curve" smooth="yes"/>
      <point x="268" y="437"/>
      <point x="204" y="354"/>
      <point x="204" y="156" type="curve" smooth="yes"/>
      <point x="204" y="96"/>
      <point x="212" y="64"/>
      <point x="236" y="31" type="curve" smooth="yes"/>
      <point x="248" y="15" type="line"/>
      <point x="236" y="0" type="line"/>
      <point x="61" y="0" type="line"/>
      <point x="50" y="31" type="line"/>
      <point x="71" y="36" type="line" smooth="yes"/>
      <point x="104" y="44"/>
      <point x="113" y="60"/>
      <point x="113" y="111" type="curve" smooth="yes"/>
      <point x="113" y="392" type="line" smooth="yes"/>
      <point x="113" y="408"/>
      <point x="108" y="414"/>
      <point x="93" y="414" type="curve" smooth="yes"/>
      <point x="49" y="414" type="line"/>
      <point x="40" y="440" type="line"/>
      <point x="79" y="475"/>
      <point x="135" y="500"/>
      <point x="172" y="500" type="curve" smooth="yes"/>
      <point x="191" y="500"/>
      <point x="204" y="487"/>
      <point x="204" y="468" type="curve" smooth="yes"/>
      <point x="204" y="361" type="line"/>
    </contour>
  </outline>
</glyph>
<glyph name="s" format="1">
  <advance width="481"/>
  <unicode hex="0073"/>
  <outline>
    <contour>
      <point x="335" y="116" type="curve" smooth="yes"/>
      <point x="335" y="159"/>
      <point x="298" y="180"/>
      <point x="226" y="211" type="curve" smooth="yes"/>
      <point x="134" y="250"/>
      <point x="71" y="281"/>
      <point x="66" y="375" type="curve" smooth="yes"/>
      <point x="66" y="415"/>
      <point x="83" y="447"/>
      <point x="117" y="472" type="curve" smooth="yes"/>
      <point x="152" y="497"/>
      <point x="195" y="510"/>
      <point x="248" y="510" type="curve" smooth="yes"/>
      <point x="343" y="510"/>
      <point x="413" y="470"/>
      <point x="413" y="407" type="curve" smooth="yes"/>
      <point x="413" y="356"/>
      <point x="378" y="320"/>
      <point x="329" y="320" type="curve" smooth="yes"/>
      <point x="315" y="320"/>
      <point x="308" y="324"/>
      <point x="308" y="333" type="curve" smooth="yes"/>
      <point x="308" y="338"/>
      <point x="323" y="364"/>
      <point x="323" y="389" type="curve" smooth="yes"/>
      <point x="323" y="438"/>
      <point x="284" y="462"/>
      <point x="241" y="462" type="curve" smooth="yes"/>
      <point x="186" y="462"/>
      <point x="153" y="432"/>
      <point x="153" y="389" type="curve" smooth="yes"/>
      <point x="153" y="340"/>
      <point x="193" y="315"/>
      <point x="270" y="283" type="curve" smooth="yes"/>
      <point x="361" y="244"/>
      <point x="422" y="216"/>
      <point x="426" y="136" type="curve"/>
      <point x="426" y="45"/>
      <point x="348" y="-14"/>
      <point x="228" y="-14" type="curve" smooth="yes"/>
      <point x="127" y="-14"/>
      <point x="54" y="35"/>
      <point x="54" y="111" type="curve" smooth="yes"/>
      <point x="54" y="156"/>
      <point x="88" y="189"/>
      <point x="137" y="189" type="curve" smooth="yes"/>
      <point x="151" y="189"/>
      <point x="158" y="185"/>
      <point x="158" y="177" type="curve" smooth="yes"/>
      <point x="158" y="173"/>
      <point x="146" y="150"/>
      <point x="146" y="121" type="curve" smooth="yes"/>
      <point x="146" y="65"/>
      <point x="193" y="35"/>
      <point x="241" y="35" type="curve" smooth="yes"/>
      <point x="296" y="35"/>
      <point x="335" y="68"/>
    </contour>
  </outline>
</glyph>
<glyph name="t" format="1">
  <advance width="341"/>
  <unicode hex="0074"/>
  <outline>
    <contour>
      <point x="320" y="497" type="line"/>
      <point x="320" y="469"/>
      <point x="312" y="445"/>
      <point x="297" y="434" type="curve"/>
      <point x="190" y="434" type="line"/>
      <point x="190" y="112" type="line" smooth="yes"/>
      <point x="190" y="71"/>
      <point x="201" y="55"/>
      <point x="228" y="55" type="curve" smooth="yes"/>
      <point x="248" y="55"/>
      <point x="271" y="66"/>
      <point x="296" y="87" type="curve"/>
      <point x="315" y="61" type="line"/>
      <point x="280" y="16"/>
      <point x="228" y="-14"/>
      <point x="185" y="-14" type="curve" smooth="yes"/>
      <point x="130" y="-14"/>
      <point x="99" y="22"/>
      <point x="99" y="82" type="curve" smooth="yes"/>
      <point x="99" y="434" type="line"/>
      <point x="11" y="434" type="line"/>
      <point x="11" y="470"/>
      <point x="14" y="476"/>
      <point x="35" y="481" type="curve" smooth="yes"/>
      <point x="106" y="500"/>
      <point x="130" y="541"/>
      <point x="143" y="608" type="curve" smooth="yes"/>
      <point x="147" y="629"/>
      <point x="151" y="632"/>
      <point x="190" y="632" type="curve"/>
      <point x="190" y="497" type="line"/>
    </contour>
  </outline>
</glyph>
<glyph name="v" format="1">
  <advance width="553"/>
  <unicode hex="0076"/>
  <outline>
    <contour>
      <point x="406" y="294" type="curve" smooth="yes"/>
      <point x="406" y="358"/>
      <point x="391" y="420"/>
      <point x="362" y="467" type="curve" smooth="yes"/>
      <point x="352" y="483" type="line"/>
      <point x="364" y="496" type="line"/>
      <point x="483" y="510" type="line"/>
      <point x="486" y="469"/>
      <point x="488" y="433"/>
      <point x="488" y="404" type="curve" smooth="yes"/>
      <point x="488" y="135"/>
      <point x="387" y="-14"/>
      <point x="268" y="-14" type="curve" smooth="yes"/>
      <point x="166" y="-14"/>
      <point x="126" y="36"/>
      <point x="104" y="190" type="curve" smooth="yes"/>
      <point x="73" y="402" type="line" smooth="yes"/>
      <point x="70" y="419"/>
      <point x="66" y="424"/>
      <point x="53" y="424" type="curve" smooth="yes"/>
      <point x="9" y="424" type="line"/>
      <point x="0" y="450" type="line"/>
      <point x="35" y="485"/>
      <point x="89" y="510"/>
      <point x="126" y="510" type="curve" smooth="yes"/>
      <point x="144" y="510"/>
      <point x="155" y="499"/>
      <point x="158" y="478" type="curve" smooth="yes"/>
      <point x="203" y="166" type="line" smooth="yes"/>
      <point x="215" y="83"/>
      <point x="235" y="51"/>
      <point x="279" y="51" type="curve" smooth="yes"/>
      <point x="320" y="51"/>
      <point x="352" y="75"/>
      <point x="373" y="122" type="curve" smooth="yes"/>
      <point x="395" y="169"/>
      <point x="406" y="227"/>
    </contour>
  </outline>
</glyph>
<glyph name="w" format="1">
  <advance width="813"/>
  <unicode hex="0077"/>
  <outline>
    <contour>
      <point x="388" y="295" type="curve" smooth="yes"/>
      <point x="388" y="359"/>
      <point x="373" y="421"/>
      <point x="344" y="468" type="curve" smooth="yes"/>
      <point x="334" y="484" type="line"/>
      <point x="346" y="497" type="line"/>
      <point x="463" y="510" type="line"/>
      <point x="466" y="469"/>
      <point x="468" y="433"/>
      <point x="468" y="404" type="curve" smooth="yes"/>
      <point x="468" y="373"/>
      <point x="466" y="341"/>
      <point x="463" y="306" type="curve"/>
      <point x="484" y="166" type="line" smooth="yes"/>
      <point x="496" y="83"/>
      <point x="517" y="51"/>
      <point x="564" y="51" type="curve" smooth="yes"/>
      <point x="629" y="51"/>
      <point x="673" y="170"/>
      <point x="673" y="295" type="curve" smooth="yes"/>
      <point x="673" y="359"/>
      <point x="658" y="421"/>
      <point x="629" y="468" type="curve" smooth="yes"/>
      <point x="619" y="484" type="line"/>
      <point x="631" y="497" type="line"/>
      <point x="748" y="510" type="line"/>
      <point x="751" y="469"/>
      <point x="753" y="433"/>
      <point x="753" y="404" type="curve" smooth="yes"/>
      <point x="753" y="135"/>
      <point x="662" y="-14"/>
      <point x="557" y="-14" type="curve" smooth="yes"/>
      <point x="480" y="-14"/>
      <point x="440" y="20"/>
      <point x="416" y="112" type="curve"/>
      <point x="380" y="29"/>
      <point x="327" y="-14"/>
      <point x="268" y="-14" type="curve" smooth="yes"/>
      <point x="166" y="-14"/>
      <point x="126" y="36"/>
      <point x="104" y="190" type="curve" smooth="yes"/>
      <point x="73" y="402" type="line" smooth="yes"/>
      <point x="70" y="419"/>
      <point x="66" y="424"/>
      <point x="53" y="424" type="curve" smooth="yes"/>
      <point x="9" y="424" type="line"/>
      <point x="0" y="450" type="line"/>
      <point x="35" y="485"/>
      <point x="89" y="510"/>
      <point x="126" y="510" type="curve" smooth="yes"/>
      <point x="144" y="510"/>
      <point x="155" y="499"/>
      <point x="158" y="478" type="curve" smooth="yes"/>
      <point x="203" y="166" type="line" smooth="yes"/>
      <point x="215" y="83"/>
      <point x="235" y="51"/>
      <point x="279" y="51" type="curve" smooth="yes"/>
      <point x="344" y="51"/>
      <point x="388" y="170"/>
    </contour>
  </outline>
</glyph>
<glyph name="z" format="1">
  <advance width="479"/>
  <unicode hex="007A"/>
  <outline>
    <contour>
      <point x="313" y="58" type="line" smooth="yes"/>
      <point x="364" y="58"/>
      <point x="380" y="67"/>
      <point x="388" y="100" type="curve" smooth="yes"/>
      <point x="400" y="153" type="line"/>
      <point x="431" y="142" type="line"/>
      <point x="431" y="-12" type="line"/>
      <point x="419" y="-24" type="line"/>
      <point x="391" y="-5"/>
      <point x="363" y="0"/>
      <point x="300" y="0" type="curve" smooth="yes"/>
      <point x="44" y="0" type="line"/>
      <point x="33" y="31" type="line"/>
      <point x="314" y="439" type="line"/>
      <point x="164" y="439" type="line" smooth="yes"/>
      <point x="113" y="439"/>
      <point x="97" y="430"/>
      <point x="89" y="397" type="curve" smooth="yes"/>
      <point x="77" y="344" type="line"/>
      <point x="46" y="355" type="line"/>
      <point x="46" y="509" type="line"/>
      <point x="58" y="521" type="line"/>
      <point x="86" y="502"/>
      <point x="114" y="497"/>
      <point x="177" y="497" type="curve" smooth="yes"/>
      <point x="426" y="497" type="line"/>
      <point x="439" y="486"/>
      <point x="446" y="471"/>
      <point x="446" y="454" type="curve"/>
      <point x="419" y="438" type="line"/>
      <point x="156" y="58" type="line"/>
    </contour>
  </outline>
</glyph>
<glyph name="braceleft" format="1">
  <advance width="316"/>
  <unicode hex="007B"/>
  <outline>
    <contour>
      <point x="289" y="-67" type="curve"/>
      <point x="282" y="-112" type="line"/>
      <point x="141" y="-95"/>
      <point x="76" y="11"/>
      <point x="76" y="160" type="curve" smooth="yes"/>
      <point x="76" y="264"/>
      <point x="57" y="301"/>
      <point x="0" y="312" type="curve"/>
      <point x="0" y="350" type="line"/>
      <point x="57" y="361"/>
      <point x="76" y="398"/>
      <point x="76" y="502" type="curve" smooth="yes"/>
      <point x="76" y="651"/>
      <point x="141" y="757"/>
      <point x="282" y="774" type="curve"/>
      <point x="289" y="729" type="line"/>
      <point x="221" y="713"/>
      <point x="187" y="623"/>
      <point x="187" y="502" type="curve" smooth="yes"/>
      <point x="187" y="395"/>
      <point x="148" y="346"/>
      <point x="77" y="331" type="curve"/>
      <point x="146" y="318"/>
      <point x="187" y="267"/>
      <point x="187" y="160" type="curve" smooth="yes"/>
      <point x="187" y="39"/>
      <point x="221" y="-51"/>
    </contour>
  </outline>
</glyph>
<glyph name="bar" format="1">
  <advance width="351"/>
  <unicode hex="007C"/>
  <outline>
    <contour>
      <point x="126" y="-82" type="line"/>
      <point x="126" y="744" type="line"/>
      <point x="225" y="744" type="line"/>
      <point x="225" y="-82" type="line"/>
    </contour>
  </outline>
</glyph>
<glyph name="braceright" format="1">
  <advance width="316"/>
  <unicode hex="007D"/>
  <outline>
    <contour>
      <point x="239" y="331" type="curve"/>
      <point x="168" y="346"/>
      <point x="129" y="395"/>
      <point x="129" y="502" type="curve" smooth="yes"/>
      <point x="129" y="623"/>
      <point x="95" y="713"/>
      <point x="27" y="729" type="curve"/>
      <point x="34" y="774" type="line"/>
      <point x="175" y="757"/>
      <point x="240" y="651"/>
      <point x="240" y="502" type="curve" smooth="yes"/>
      <point x="240" y="398"/>
      <point x="259" y="361"/>
      <point x="316" y="350" type="curve"/>
      <point x="316" y="312" type="line"/>
      <point x="259" y="301"/>
      <point x="240" y="264"/>
      <point x="240" y="160" type="curve" smooth="yes"/>
      <point x="240" y="11"/>
      <point x="175" y="-95"/>
      <point x="34" y="-112" type="curve"/>
      <point x="27" y="-67" type="line"/>
      <point x="95" y="-51"/>
      <point x="129" y="39"/>
      <point x="129" y="160" type="curve" smooth="yes"/>
      <point x="129" y="267"/>
      <point x="170" y="318"/>
    </contour>
  </outline>
</glyph>
<glyph name="asciitilde" format="1">
  <advance width="621"/>
  <unicode hex="007E"/>
  <outline>
    <contour>
      <point x="421" y="355" type="curve" smooth="yes"/>
      <point x="385" y="355"/>
      <point x="357" y="344"/>
      <point x="310" y="323" type="curve" smooth="yes"/>
      <point x="263" y="302"/>
      <point x="235" y="290"/>
      <point x="196" y="290" type="curve" smooth="yes"/>
      <point x="157" y="290"/>
      <point x="125" y="301"/>
      <point x="99" y="322" type="curve"/>
      <point x="99" y="398" type="line"/>
      <point x="130" y="377"/>
      <point x="163" y="366"/>
      <point x="200" y="366" type="curve" smooth="yes"/>
      <point x="236" y="366"/>
      <point x="264" y="377"/>
      <point x="311" y="398" type="curve" smooth="yes"/>
      <point x="360" y="419"/>
      <point x="386" y="430"/>
      <point x="425" y="430" type="curve" smooth="yes"/>
      <point x="464" y="430"/>
      <point x="497" y="419"/>
      <point x="522" y="398" type="curve"/>
      <point x="522" y="322" type="line"/>
      <point x="491" y="344"/>
      <point x="457" y="355"/>
    </contour>
  </outline>
</glyph>
<glyph name="exclamdown" format="1">
  <advance width="246"/>
  <unicode hex="00A1"/>
  <outline>
    <contour>
      <point x="123" y="380" type="curve" smooth="yes"/>
      <point x="110" y="380"/>
      <point x="97" y="388"/>
      <point x="82" y="403" type="curve" smooth="yes"/>
      <point x="67" y="418"/>
      <point x="60" y="433"/>
      <point x="60" y="446" type="curve" smooth="yes"/>
      <point x="60" y="459"/>
      <point x="67" y="473"/>
      <point x="82" y="488" type="curve" smooth="yes"/>
      <point x="97" y="503"/>
      <point x="110" y="511"/>
      <point x="123" y="511" type="curve" smooth="yes"/>
      <point x="134" y="511"/>
      <point x="147" y="503"/>
      <point x="162" y="488" type="curve" smooth="yes"/>
      <point x="177" y="473"/>
      <point x="184" y="459"/>
      <point x="184" y="446" type="curve" smooth="yes"/>
      <point x="184" y="433"/>
      <point x="177" y="419"/>
      <point x="162" y="403" type="curve" smooth="yes"/>
      <point x="148" y="388"/>
      <point x="135" y="380"/>
    </contour>
    <contour>
      <point x="60" y="-245" type="curve"/>
      <point x="60" y="-207"/>
      <point x="64" y="-141"/>
      <point x="71" y="-47" type="curve" smooth="yes"/>
      <point x="78" y="47"/>
      <point x="87" y="147"/>
      <point x="98" y="254" type="curve" smooth="yes"/>
      <point x="101" y="284"/>
      <point x="110" y="299"/>
      <point x="123" y="299" type="curve" smooth="yes"/>
      <point x="136" y="299"/>
      <point x="145" y="284"/>
      <point x="148" y="254" type="curve" smooth="yes"/>
      <point x="159" y="147"/>
      <point x="168" y="47"/>
      <point x="175" y="-47" type="curve" smooth="yes"/>
      <point x="182" y="-141"/>
      <point x="186" y="-207"/>
      <point x="186" y="-245" type="curve"/>
      <point x="171" y="-262"/>
      <point x="150" y="-270"/>
      <point x="123" y="-270" type="curve" smooth="yes"/>
      <point x="97" y="-270"/>
      <point x="76" y="-262"/>
    </contour>
  </outline>
</glyph>
<glyph name="cent" format="1">
  <advance width="486"/>
  <unicode hex="00A2"/>
  <outline>
    <contour>
      <point x="421" y="215" type="curve" smooth="yes"/>
      <point x="423" y="217"/>
      <point x="426" y="218"/>
      <point x="430" y="218" type="curve" smooth="yes"/>
      <point x="441" y="218"/>
      <point x="455" y="203"/>
      <point x="455" y="190" type="curve" smooth="yes"/>
      <point x="455" y="186"/>
      <point x="454" y="183"/>
      <point x="452" y="181" type="curve" smooth="yes"/>
      <point x="411" y="134"/>
      <point x="361" y="107"/>
      <point x="301" y="100" type="curve"/>
      <point x="301" y="-59" type="line"/>
      <point x="289" y="-75"/>
      <point x="263" y="-83"/>
      <point x="238" y="-83" type="curve"/>
      <point x="238" y="100" type="line"/>
      <point x="122" y="116"/>
      <point x="43" y="220"/>
      <point x="43" y="358" type="curve" smooth="yes"/>
      <point x="43" y="498"/>
      <point x="118" y="597"/>
      <point x="238" y="618" type="curve"/>
      <point x="238" y="778" type="line"/>
      <point x="251" y="794"/>
      <point x="277" y="802"/>
      <point x="301" y="802" type="curve"/>
      <point x="301" y="621" type="line"/>
      <point x="396" y="616"/>
      <point x="461" y="563"/>
      <point x="461" y="488" type="curve" smooth="yes"/>
      <point x="461" y="431"/>
      <point x="420" y="390"/>
      <point x="363" y="390" type="curve" smooth="yes"/>
      <point x="350" y="390"/>
      <point x="344" y="394"/>
      <point x="344" y="401" type="curve" smooth="yes"/>
      <point x="344" y="409"/>
      <point x="368" y="435"/>
      <point x="368" y="483" type="curve" smooth="yes"/>
      <point x="368" y="536"/>
      <point x="331" y="570"/>
      <point x="274" y="570" type="curve" smooth="yes"/>
      <point x="198" y="570"/>
      <point x="147" y="485"/>
      <point x="147" y="360" type="curve" smooth="yes"/>
      <point x="147" y="241"/>
      <point x="203" y="165"/>
      <point x="290" y="165" type="curve" smooth="yes"/>
      <point x="337" y="165"/>
      <point x="381" y="182"/>
    </contour>
  </outline>
</glyph>
<glyph name="sterling" format="1">
  <advance width="596"/>
  <unicode hex="00A3"/>
  <outline>
    <contour>
      <point x="205" y="496" type="curve" smooth="yes"/>
      <point x="205" y="476"/>
      <point x="207" y="455"/>
      <point x="211" y="433" type="curve" smooth="yes"/>
      <point x="218" y="394" type="line"/>
      <point x="224" y="365" type="line"/>
      <point x="441" y="365" type="line"/>
      <point x="441" y="335"/>
      <point x="433" y="314"/>
      <point x="418" y="302" type="curve"/>
      <point x="230" y="302" type="line"/>
      <point x="230" y="229"/>
      <point x="207" y="154"/>
      <point x="159" y="91" type="curve"/>
      <point x="556" y="91" type="line"/>
      <point x="556" y="55"/>
      <point x="546" y="19"/>
      <point x="522" y="0" type="curve"/>
      <point x="56" y="0" type="line"/>
      <point x="31" y="43" type="line"/>
      <point x="103" y="92"/>
      <point x="147" y="174"/>
      <point x="147" y="247" type="curve" smooth="yes"/>
      <point x="147" y="262"/>
      <point x="145" y="281"/>
      <point x="142" y="302" type="curve"/>
      <point x="30" y="302" type="line"/>
      <point x="30" y="333"/>
      <point x="38" y="354"/>
      <point x="53" y="365" type="curve"/>
      <point x="127" y="365" type="line"/>
      <point x="121" y="387" type="line" smooth="yes"/>
      <point x="106" y="446"/>
      <point x="99" y="476"/>
      <point x="99" y="511" type="curve" smooth="yes"/>
      <point x="99" y="644"/>
      <point x="177" y="732"/>
      <point x="340" y="732" type="curve" smooth="yes"/>
      <point x="395" y="732"/>
      <point x="443" y="720"/>
      <point x="482" y="696" type="curve" smooth="yes"/>
      <point x="522" y="672"/>
      <point x="542" y="638"/>
      <point x="542" y="595" type="curve" smooth="yes"/>
      <point x="542" y="534"/>
      <point x="495" y="489"/>
      <point x="435" y="489" type="curve" smooth="yes"/>
      <point x="419" y="489"/>
      <point x="414" y="490"/>
      <point x="414" y="501" type="curve" smooth="yes"/>
      <point x="414" y="509"/>
      <point x="444" y="543"/>
      <point x="444" y="587" type="curve" smooth="yes"/>
      <point x="444" y="643"/>
      <point x="396" y="676"/>
      <point x="341" y="676" type="curve" smooth="yes"/>
      <point x="301" y="676"/>
      <point x="268" y="663"/>
      <point x="243" y="638" type="curve" smooth="yes"/>
      <point x="218" y="613"/>
      <point x="205" y="566"/>
    </contour>
  </outline>
</glyph>
<glyph name="currency" format="1">
  <advance width="625"/>
  <unicode hex="00A4"/>
  <outline>
    <contour>
      <point x="41" y="119" type="curve"/>
      <point x="140" y="219" type="line"/>
      <point x="117" y="257"/>
      <point x="105" y="300"/>
      <point x="105" y="347" type="curve" smooth="yes"/>
      <point x="105" y="394"/>
      <point x="117" y="437"/>
      <point x="140" y="475" type="curve"/>
      <point x="25" y="593" type="line"/>
      <point x="40" y="609"/>
      <point x="63" y="620"/>
      <point x="84" y="620" type="curve"/>
      <point x="182" y="521" type="line"/>
      <point x="217" y="548"/>
      <point x="259" y="561"/>
      <point x="310" y="561" type="curve" smooth="yes"/>
      <point x="361" y="561"/>
      <point x="405" y="547"/>
      <point x="441" y="520" type="curve"/>
      <point x="556" y="635" type="line"/>
      <point x="572" y="620"/>
      <point x="584" y="597"/>
      <point x="584" y="576" type="curve"/>
      <point x="482" y="473" type="line"/>
      <point x="505" y="434"/>
      <point x="516" y="392"/>
      <point x="516" y="347" type="curve" smooth="yes"/>
      <point x="516" y="303"/>
      <point x="505" y="262"/>
      <point x="482" y="223" type="curve"/>
      <point x="600" y="104" type="line"/>
      <point x="579" y="85"/>
      <point x="558" y="76"/>
      <point x="539" y="76" type="curve"/>
      <point x="441" y="177" type="line"/>
      <point x="408" y="149"/>
      <point x="365" y="135"/>
      <point x="310" y="135" type="curve" smooth="yes"/>
      <point x="259" y="135"/>
      <point x="217" y="148"/>
      <point x="184" y="174" type="curve"/>
      <point x="69" y="60" type="line"/>
      <point x="53" y="76"/>
      <point x="41" y="99"/>
    </contour>
    <contour>
      <point x="417" y="350" type="curve" smooth="yes"/>
      <point x="417" y="450"/>
      <point x="379" y="508"/>
      <point x="316" y="508" type="curve" smooth="yes"/>
      <point x="249" y="508"/>
      <point x="204" y="445"/>
      <point x="204" y="345" type="curve" smooth="yes"/>
      <point x="204" y="245"/>
      <point x="242" y="189"/>
      <point x="303" y="189" type="curve" smooth="yes"/>
      <point x="371" y="189"/>
      <point x="417" y="250"/>
    </contour>
  </outline>
</glyph>
<glyph name="yen" format="1">
  <advance width="626"/>
  <unicode hex="00A5"/>
  <outline>
    <contour>
      <point x="524" y="578" type="curve" smooth="yes"/>
      <point x="456" y="458" type="line"/>
      <point x="579" y="458" type="line"/>
      <point x="579" y="433"/>
      <point x="571" y="408"/>
      <point x="555" y="395" type="curve"/>
      <point x="421" y="395" type="line"/>
      <point x="369" y="303" type="line"/>
      <point x="369" y="296" type="line"/>
      <point x="579" y="296" type="line"/>
      <point x="579" y="271"/>
      <point x="571" y="246"/>
      <point x="555" y="233" type="curve"/>
      <point x="369" y="233" type="line"/>
      <point x="369" y="133" type="line" smooth="yes"/>
      <point x="369" y="73"/>
      <point x="384" y="53"/>
      <point x="435" y="40" type="curve" smooth="yes"/>
      <point x="458" y="34" type="line"/>
      <point x="446" y="0" type="line"/>
      <point x="227" y="0" type="line"/>
      <point x="214" y="16" type="line"/>
      <point x="227" y="34" type="line" smooth="yes"/>
      <point x="260" y="81"/>
      <point x="274" y="122"/>
      <point x="274" y="201" type="curve" smooth="yes"/>
      <point x="274" y="233" type="line"/>
      <point x="66" y="233" type="line"/>
      <point x="66" y="264"/>
      <point x="74" y="285"/>
      <point x="89" y="296" type="curve"/>
      <point x="273" y="296" type="line"/>
      <point x="217" y="395" type="line"/>
      <point x="66" y="395" type="line"/>
      <point x="66" y="426"/>
      <point x="74" y="447"/>
      <point x="89" y="458" type="curve"/>
      <point x="181" y="458" type="line"/>
      <point x="114" y="576" type="line" smooth="yes"/>
      <point x="78" y="640"/>
      <point x="55" y="670"/>
      <point x="14" y="702" type="curve"/>
      <point x="27" y="718" type="line"/>
      <point x="252" y="718" type="line"/>
      <point x="264" y="684" type="line"/>
      <point x="241" y="678" type="line" smooth="yes"/>
      <point x="209" y="670"/>
      <point x="196" y="658"/>
      <point x="196" y="634" type="curve" smooth="yes"/>
      <point x="196" y="627"/>
      <point x="201" y="615"/>
      <point x="210" y="599" type="curve" smooth="yes"/>
      <point x="227" y="571" type="line"/>
      <point x="335" y="382" type="line"/>
      <point x="448" y="584" type="line" smooth="yes"/>
      <point x="456" y="599"/>
      <point x="460" y="613"/>
      <point x="460" y="625" type="curve" smooth="yes"/>
      <point x="460" y="652"/>
      <point x="441" y="671"/>
      <point x="418" y="678" type="curve" smooth="yes"/>
      <point x="395" y="684" type="line"/>
      <point x="407" y="718" type="line"/>
      <point x="597" y="718" type="line"/>
      <point x="610" y="702" type="line"/>
      <point x="595" y="684" type="line" smooth="yes"/>
      <point x="572" y="656"/>
      <point x="548" y="621"/>
    </contour>
  </outline>
</glyph>
<glyph name="brokenbar" format="1">
  <advance width="351"/>
  <unicode hex="00A6"/>
  <outline>
    <contour>
      <point x="126" y="453" type="line"/>
      <point x="126" y="744" type="line"/>
      <point x="225" y="744" type="line"/>
      <point x="225" y="453" type="line"/>
    </contour>
    <contour>
      <point x="126" y="-82" type="line"/>
      <point x="126" y="210" type="line"/>
      <point x="225" y="210" type="line"/>
      <point x="225" y="-82" type="line"/>
    </contour>
  </outline>
</glyph>
<glyph name="section" format="1">
  <advance width="439"/>
  <unicode hex="00A7"/>
  <outline>
    <contour>
      <point x="138" y="588" type="curve" smooth="yes"/>
      <point x="138" y="540"/>
      <point x="162" y="493"/>
      <point x="231" y="410" type="curve" smooth="yes"/>
      <point x="290" y="341"/>
      <point x="319" y="278"/>
      <point x="319" y="222" type="curve" smooth="yes"/>
      <point x="319" y="204"/>
      <point x="317" y="187"/>
      <point x="312" y="171" type="curve"/>
      <point x="158" y="356" type="line" smooth="yes"/>
      <point x="102" y="423"/>
      <point x="72" y="492"/>
      <point x="72" y="549" type="curve" smooth="yes"/>
      <point x="72" y="598"/>
      <point x="87" y="641"/>
      <point x="116" y="677" type="curve" smooth="yes"/>
      <point x="146" y="713"/>
      <point x="193" y="731"/>
      <point x="256" y="731" type="curve" smooth="yes"/>
      <point x="343" y="731"/>
      <point x="405" y="685"/>
      <point x="405" y="620" type="curve" smooth="yes"/>
      <point x="405" y="563"/>
      <point x="363" y="522"/>
      <point x="307" y="522" type="curve" smooth="yes"/>
      <point x="294" y="522"/>
      <point x="288" y="526"/>
      <point x="288" y="533" type="curve" smooth="yes"/>
      <point x="288" y="541"/>
      <point x="312" y="567"/>
      <point x="312" y="615" type="curve" smooth="yes"/>
      <point x="312" y="658"/>
      <point x="280" y="686"/>
      <point x="236" y="686" type="curve" smooth="yes"/>
      <point x="180" y="686"/>
      <point x="138" y="649"/>
    </contour>
    <contour>
      <point x="301" y="-113" type="curve" smooth="yes"/>
      <point x="301" y="-65"/>
      <point x="277" y="-18"/>
      <point x="208" y="65" type="curve" smooth="yes"/>
      <point x="149" y="134"/>
      <point x="120" y="197"/>
      <point x="120" y="253" type="curve" smooth="yes"/>
      <point x="120" y="271"/>
      <point x="122" y="288"/>
      <point x="127" y="304" type="curve"/>
      <point x="281" y="119" type="line" smooth="yes"/>
      <point x="337" y="52"/>
      <point x="367" y="-17"/>
      <point x="367" y="-74" type="curve" smooth="yes"/>
      <point x="367" y="-123"/>
      <point x="352" y="-166"/>
      <point x="322" y="-202" type="curve" smooth="yes"/>
      <point x="293" y="-238"/>
      <point x="246" y="-256"/>
      <point x="183" y="-256" type="curve" smooth="yes"/>
      <point x="96" y="-256"/>
      <point x="34" y="-210"/>
      <point x="34" y="-145" type="curve" smooth="yes"/>
      <point x="34" y="-88"/>
      <point x="76" y="-47"/>
      <point x="132" y="-47" type="curve" smooth="yes"/>
      <point x="145" y="-47"/>
      <point x="151" y="-51"/>
      <point x="151" y="-58" type="curve" smooth="yes"/>
      <point x="151" y="-66"/>
      <point x="127" y="-92"/>
      <point x="127" y="-140" type="curve" smooth="yes"/>
      <point x="127" y="-183"/>
      <point x="159" y="-211"/>
      <point x="203" y="-211" type="curve" smooth="yes"/>
      <point x="259" y="-211"/>
      <point x="301" y="-174"/>
    </contour>
  </outline>
</glyph>
<glyph name="dieresis" format="1">
  <advance width="421"/>
  <unicode hex="00A8"/>
  <outline>
    <contour>
      <point x="115" y="724" type="curve" smooth="yes"/>
      <point x="128" y="724"/>
      <point x="141" y="716"/>
      <point x="156" y="701" type="curve" smooth="yes"/>
      <point x="171" y="686"/>
      <point x="178" y="671"/>
      <point x="178" y="658" type="curve" smooth="yes"/>
      <point x="178" y="645"/>
      <point x="171" y="631"/>
      <point x="156" y="616" type="curve" smooth="yes"/>
      <point x="141" y="601"/>
      <point x="128" y="593"/>
      <point x="115" y="593" type="curve" smooth="yes"/>
      <point x="104" y="593"/>
      <point x="91" y="601"/>
      <point x="76" y="616" type="curve" smooth="yes"/>
      <point x="61" y="631"/>
      <point x="54" y="645"/>
      <point x="54" y="658" type="curve" smooth="yes"/>
      <point x="54" y="671"/>
      <point x="61" y="685"/>
      <point x="75" y="700" type="curve" smooth="yes"/>
      <point x="90" y="716"/>
      <point x="103" y="724"/>
    </contour>
    <contour>
      <point x="304" y="724" type="curve" smooth="yes"/>
      <point x="317" y="724"/>
      <point x="330" y="716"/>
      <point x="345" y="701" type="curve" smooth="yes"/>
      <point x="360" y="686"/>
      <point x="367" y="671"/>
      <point x="367" y="658" type="curve" smooth="yes"/>
      <point x="367" y="645"/>
      <point x="360" y="631"/>
      <point x="345" y="616" type="curve" smooth="yes"/>
      <point x="330" y="601"/>
      <point x="317" y="593"/>
      <point x="304" y="593" type="curve" smooth="yes"/>
      <point x="293" y="593"/>
      <point x="280" y="601"/>
      <point x="265" y="616" type="curve" smooth="yes"/>
      <point x="250" y="631"/>
      <point x="243" y="645"/>
      <point x="243" y="658" type="curve" smooth="yes"/>
      <point x="243" y="671"/>
      <point x="250" y="685"/>
      <point x="264" y="700" type="curve" smooth="yes"/>
      <point x="279" y="716"/>
      <point x="292" y="724"/>
    </contour>
  </outline>
</glyph>
<glyph name="copyright" format="1">
  <advance width="778"/>
  <unicode hex="00A9"/>
  <outline>
    <contour>
      <point x="389" y="787" type="curve"/>
      <point x="544" y="790"/>
      <point x="681" y="653"/>
      <point x="678" y="498" type="curve"/>
      <point x="681" y="343"/>
      <point x="544" y="206"/>
      <point x="389" y="209" type="curve"/>
      <point x="234" y="206"/>
      <point x="97" y="343"/>
      <point x="100" y="498" type="curve"/>
      <point x="97" y="653"/>
      <point x="234" y="790"/>
    </contour>
    <contour>
      <point x="389" y="235" type="curve"/>
      <point x="530" y="232"/>
      <point x="655" y="357"/>
      <point x="652" y="498" type="curve"/>
      <point x="655" y="639"/>
      <point x="530" y="764"/>
      <point x="389" y="761" type="curve"/>
      <point x="248" y="764"/>
      <point x="123" y="639"/>
      <point x="126" y="498" type="curve"/>
      <point x="123" y="357"/>
      <point x="248" y="232"/>
    </contour>
    <contour>
      <point x="394" y="666" type="curve" smooth="yes"/>
      <point x="356" y="666"/>
      <point x="328" y="650"/>
      <point x="311" y="617" type="curve" smooth="yes"/>
      <point x="294" y="585"/>
      <point x="285" y="546"/>
      <point x="285" y="501" type="curve" smooth="yes"/>
      <point x="285" y="410"/>
      <point x="329" y="342"/>
      <point x="397" y="342" type="curve" smooth="yes"/>
      <point x="441" y="342"/>
      <point x="475" y="360"/>
      <point x="499" y="396" type="curve"/>
      <point x="525" y="373" type="line"/>
      <point x="492" y="323"/>
      <point x="448" y="298"/>
      <point x="393" y="298" type="curve" smooth="yes"/>
      <point x="336" y="298"/>
      <point x="292" y="317"/>
      <point x="261" y="355" type="curve" smooth="yes"/>
      <point x="231" y="393"/>
      <point x="216" y="442"/>
      <point x="216" y="501" type="curve" smooth="yes"/>
      <point x="216" y="560"/>
      <point x="231" y="608"/>
      <point x="261" y="646" type="curve" smooth="yes"/>
      <point x="292" y="684"/>
      <point x="336" y="703"/>
      <point x="394" y="703" type="curve" smooth="yes"/>
      <point x="427" y="703"/>
      <point x="456" y="695"/>
      <point x="482" y="679" type="curve"/>
      <point x="491" y="697" type="line"/>
      <point x="516" y="697" type="line"/>
      <point x="516" y="588" type="line"/>
      <point x="511" y="579"/>
      <point x="495" y="574"/>
      <point x="482" y="574" type="curve"/>
      <point x="469" y="626" type="line"/>
      <point x="450" y="653"/>
      <point x="425" y="666"/>
    </contour>
  </outline>
</glyph>
<glyph name="ordfeminine" format="1">
  <advance width="398"/>
  <unicode hex="00AA"/>
  <outline>
    <contour>
      <point x="196" y="689" type="curve" smooth="yes"/>
      <point x="160" y="689"/>
      <point x="142" y="664"/>
      <point x="142" y="613" type="curve"/>
      <point x="130" y="603"/>
      <point x="117" y="598"/>
      <point x="102" y="598" type="curve" smooth="yes"/>
      <point x="79" y="598"/>
      <point x="63" y="613"/>
      <point x="63" y="636" type="curve" smooth="yes"/>
      <point x="63" y="688"/>
      <point x="124" y="731"/>
      <point x="196" y="731" type="curve" smooth="yes"/>
      <point x="281" y="731"/>
      <point x="319" y="691"/>
      <point x="319" y="602" type="curve" smooth="yes"/>
      <point x="319" y="437" type="line" smooth="yes"/>
      <point x="319" y="426"/>
      <point x="324" y="420"/>
      <point x="333" y="420" type="curve" smooth="yes"/>
      <point x="342" y="420"/>
      <point x="354" y="425"/>
      <point x="369" y="435" type="curve"/>
      <point x="388" y="409" type="line"/>
      <point x="360" y="380"/>
      <point x="328" y="361"/>
      <point x="303" y="361" type="curve" smooth="yes"/>
      <point x="268" y="361"/>
      <point x="250" y="377"/>
      <point x="245" y="414" type="curve"/>
      <point x="222" y="381"/>
      <point x="186" y="361"/>
      <point x="142" y="361" type="curve" smooth="yes"/>
      <point x="86" y="361"/>
      <point x="45" y="399"/>
      <point x="45" y="452" type="curve" smooth="yes"/>
      <point x="45" y="520"/>
      <point x="101" y="562"/>
      <point x="190" y="562" type="curve" smooth="yes"/>
      <point x="212" y="562"/>
      <point x="230" y="561"/>
      <point x="244" y="558" type="curve"/>
      <point x="244" y="615" type="line" smooth="yes"/>
      <point x="244" y="664"/>
      <point x="228" y="689"/>
    </contour>
    <contour>
      <point x="244" y="518" type="curve"/>
      <point x="237" y="521"/>
      <point x="224" y="522"/>
      <point x="205" y="522" type="curve" smooth="yes"/>
      <point x="154" y="522"/>
      <point x="126" y="501"/>
      <point x="126" y="462" type="curve" smooth="yes"/>
      <point x="126" y="433"/>
      <point x="142" y="416"/>
      <point x="171" y="416" type="curve" smooth="yes"/>
      <point x="214" y="416"/>
      <point x="243" y="458"/>
    </contour>
  </outline>
</glyph>
<glyph name="guillemotleft" format="1">
  <advance width="506"/>
  <unicode hex="00AB"/>
  <outline>
    <contour>
      <point x="161" y="72" type="curve"/>
      <point x="116" y="145"/>
      <point x="87" y="194"/>
      <point x="72" y="221" type="curve" smooth="yes"/>
      <point x="57" y="248"/>
      <point x="50" y="267"/>
      <point x="50" y="279" type="curve" smooth="yes"/>
      <point x="50" y="290"/>
      <point x="57" y="310"/>
      <point x="72" y="337" type="curve" smooth="yes"/>
      <point x="87" y="365"/>
      <point x="117" y="415"/>
      <point x="161" y="486" type="curve"/>
      <point x="194" y="483"/>
      <point x="220" y="475"/>
      <point x="247" y="440" type="curve"/>
      <point x="228" y="407"/>
      <point x="182" y="355"/>
      <point x="110" y="279" type="curve"/>
      <point x="186" y="199"/>
      <point x="232" y="145"/>
      <point x="247" y="118" type="curve"/>
      <point x="220" y="83"/>
      <point x="194" y="75"/>
    </contour>
    <contour>
      <point x="370" y="72" type="curve"/>
      <point x="325" y="145"/>
      <point x="296" y="194"/>
      <point x="281" y="221" type="curve" smooth="yes"/>
      <point x="266" y="248"/>
      <point x="259" y="267"/>
      <point x="259" y="279" type="curve" smooth="yes"/>
      <point x="259" y="290"/>
      <point x="266" y="310"/>
      <point x="281" y="337" type="curve" smooth="yes"/>
      <point x="296" y="365"/>
      <point x="326" y="415"/>
      <point x="370" y="486" type="curve"/>
      <point x="403" y="483"/>
      <point x="429" y="475"/>
      <point x="456" y="440" type="curve"/>
      <point x="437" y="407"/>
      <point x="391" y="355"/>
      <point x="319" y="279" type="curve"/>
      <point x="395" y="199"/>
      <point x="441" y="145"/>
      <point x="456" y="118" type="curve"/>
      <point x="429" y="83"/>
      <point x="403" y="75"/>
    </contour>
  </outline>
</glyph>
<glyph name="logicalnot" format="1">
  <advance width="621"/>
  <unicode hex="00AC"/>
  <outline>
    <contour>
      <point x="99" y="395" type="line"/>
      <point x="522" y="395" type="line"/>
      <point x="522" y="168" type="line"/>
      <point x="454" y="168" type="line"/>
      <point x="454" y="319" type="line"/>
      <point x="99" y="319" type="line"/>
    </contour>
  </outline>
</glyph>
<glyph name="uni00AD" format="1">
  <advance width="600"/>
  <unicode hex="00AD"/>
  <outline>
    <contour>
      <point x="322" y="332" type="line"/>
      <point x="322" y="304"/>
      <point x="315" y="275"/>
      <point x="296" y="262" type="curve"/>
      <point x="33" y="252" type="line"/>
      <point x="33" y="279"/>
      <point x="42" y="309"/>
      <point x="59" y="322" type="curve"/>
    </contour>
  </outline>
</glyph>
<glyph name="registered" format="1">
  <advance width="778"/>
  <unicode hex="00AE"/>
  <outline>
    <contour>
      <point x="389" y="787" type="curve"/>
      <point x="544" y="790"/>
      <point x="681" y="653"/>
      <point x="678" y="498" type="curve"/>
      <point x="681" y="343"/>
      <point x="544" y="206"/>
      <point x="389" y="209" type="curve"/>
      <point x="234" y="206"/>
      <point x="97" y="343"/>
      <point x="100" y="498" type="curve"/>
      <point x="97" y="653"/>
      <point x="234" y="790"/>
    </contour>
    <contour>
      <point x="389" y="235" type="curve"/>
      <point x="530" y="232"/>
      <point x="655" y="357"/>
      <point x="652" y="498" type="curve"/>
      <point x="655" y="639"/>
      <point x="530" y="764"/>
      <point x="389" y="761" type="curve"/>
      <point x="248" y="764"/>
      <point x="123" y="639"/>
      <point x="126" y="498" type="curve"/>
      <point x="123" y="357"/>
      <point x="248" y="232"/>
    </contour>
    <contour>
      <point x="370" y="468" type="curve" smooth="yes"/>
      <point x="341" y="468" type="line"/>
      <point x="341" y="349" type="line"/>
      <point x="374" y="338" type="line"/>
      <point x="374" y="324"/>
      <point x="369" y="313"/>
      <point x="359" y="305" type="curve"/>
      <point x="243" y="305" type="line"/>
      <point x="243" y="329" type="line"/>
      <point x="267" y="342" type="line" smooth="yes"/>
      <point x="273" y="345"/>
      <point x="276" y="351"/>
      <point x="276" y="358" type="curve" smooth="yes"/>
      <point x="276" y="652" type="line"/>
      <point x="243" y="664" type="line"/>
      <point x="243" y="676"/>
      <point x="249" y="689"/>
      <point x="258" y="696" type="curve"/>
      <point x="368" y="696" type="line" smooth="yes"/>
      <point x="473" y="696"/>
      <point x="519" y="654"/>
      <point x="519" y="590" type="curve" smooth="yes"/>
      <point x="519" y="545"/>
      <point x="495" y="503"/>
      <point x="447" y="483" type="curve"/>
      <point x="458" y="472"/>
      <point x="465" y="464"/>
      <point x="467" y="459" type="curve" smooth="yes"/>
      <point x="528" y="346" type="line"/>
      <point x="559" y="335" type="line"/>
      <point x="559" y="322"/>
      <point x="555" y="312"/>
      <point x="546" y="305" type="curve"/>
      <point x="459" y="305" type="line"/>
      <point x="450" y="315" type="line"/>
      <point x="454" y="322" type="line" smooth="yes"/>
      <point x="457" y="330"/>
      <point x="459" y="336"/>
      <point x="459" y="340" type="curve" smooth="yes"/>
      <point x="459" y="343"/>
      <point x="457" y="349"/>
      <point x="452" y="358" type="curve" smooth="yes"/>
      <point x="405" y="448" type="line" smooth="yes"/>
      <point x="398" y="463"/>
      <point x="390" y="468"/>
    </contour>
    <contour>
      <point x="371" y="505" type="line" smooth="yes"/>
      <point x="426" y="505"/>
      <point x="451" y="538"/>
      <point x="451" y="586" type="curve" smooth="yes"/>
      <point x="451" y="629"/>
      <point x="425" y="656"/>
      <point x="368" y="656" type="curve" smooth="yes"/>
      <point x="350" y="656"/>
      <point x="341" y="651"/>
      <point x="341" y="640" type="curve" smooth="yes"/>
      <point x="341" y="505" type="line"/>
    </contour>
  </outline>
</glyph>
<glyph name="overscore" format="1">
  <advance width="408"/>
  <unicode hex="00AF"/>
  <outline>
    <contour>
      <point x="82" y="697" type="curve"/>
      <point x="351" y="697" type="line"/>
      <point x="351" y="665"/>
      <point x="344" y="633"/>
      <point x="325" y="617" type="curve"/>
      <point x="56" y="617" type="line"/>
      <point x="56" y="648"/>
      <point x="65" y="681"/>
    </contour>
  </outline>
</glyph>
<glyph name="degree" format="1">
  <advance width="435"/>
  <unicode hex="00B0"/>
  <outline>
    <contour>
      <point x="217" y="731" type="curve" smooth="yes"/>
      <point x="326" y="731"/>
      <point x="395" y="659"/>
      <point x="395" y="546" type="curve" smooth="yes"/>
      <point x="395" y="434"/>
      <point x="326" y="361"/>
      <point x="217" y="361" type="curve" smooth="yes"/>
      <point x="109" y="361"/>
      <point x="40" y="434"/>
      <point x="40" y="546" type="curve" smooth="yes"/>
      <point x="40" y="659"/>
      <point x="108" y="731"/>
    </contour>
    <contour>
      <point x="222" y="684" type="curve" smooth="yes"/>
      <point x="165" y="684"/>
      <point x="125" y="630"/>
      <point x="125" y="543" type="curve" smooth="yes"/>
      <point x="125" y="458"/>
      <point x="159" y="408"/>
      <point x="212" y="408" type="curve" smooth="yes"/>
      <point x="269" y="408"/>
      <point x="309" y="462"/>
      <point x="309" y="549" type="curve" smooth="yes"/>
      <point x="309" y="634"/>
      <point x="275" y="684"/>
    </contour>
  </outline>
</glyph>
<glyph name="plusminus" format="1">
  <advance width="621"/>
  <unicode hex="00B1"/>
  <outline>
    <contour>
      <point x="99" y="395" type="line"/>
      <point x="273" y="395" type="line"/>
      <point x="273" y="569" type="line"/>
      <point x="348" y="569" type="line"/>
      <point x="348" y="395" type="line"/>
      <point x="522" y="395" type="line"/>
      <point x="522" y="319" type="line"/>
      <point x="348" y="319" type="line"/>
      <point x="348" y="146" type="line"/>
      <point x="273" y="146" type="line"/>
      <point x="273" y="319" type="line"/>
      <point x="99" y="319" type="line"/>
    </contour>
    <contour>
      <point x="99" y="75" type="line"/>
      <point x="522" y="75" type="line"/>
      <point x="522" y="-1" type="line"/>
      <point x="99" y="-1" type="line"/>
    </contour>
  </outline>
</glyph>
<glyph name="uni00B2" format="1">
  <advance width="388"/>
  <unicode hex="00B2"/>
  <outline>
    <contour>
      <point x="27" y="326" type="line"/>
      <point x="217" y="483"/>
      <point x="252" y="539"/>
      <point x="254" y="616" type="curve" smooth="yes"/>
      <point x="254" y="660"/>
      <point x="224" y="685"/>
      <point x="188" y="685" type="curve" smooth="yes"/>
      <point x="152" y="685"/>
      <point x="121" y="659"/>
      <point x="121" y="618" type="curve" smooth="yes"/>
      <point x="121" y="603"/>
      <point x="130" y="586"/>
      <point x="131" y="583" type="curve" smooth="yes"/>
      <point x="136" y="575"/>
      <point x="138" y="569"/>
      <point x="138" y="564" type="curve" smooth="yes"/>
      <point x="138" y="557"/>
      <point x="131" y="553"/>
      <point x="116" y="553" type="curve" smooth="yes"/>
      <point x="73" y="553"/>
      <point x="42" y="582"/>
      <point x="42" y="622" type="curve" smooth="yes"/>
      <point x="42" y="693"/>
      <point x="108" y="732"/>
      <point x="189" y="732" type="curve" smooth="yes"/>
      <point x="285" y="732"/>
      <point x="343" y="690"/>
      <point x="343" y="615" type="curve" smooth="yes"/>
      <point x="343" y="540"/>
      <point x="267" y="457"/>
      <point x="142" y="356" type="curve"/>
      <point x="355" y="356" type="line"/>
      <point x="355" y="325"/>
      <point x="346" y="303"/>
      <point x="329" y="288" type="curve"/>
      <point x="46" y="288" type="line"/>
    </contour>
  </outline>
</glyph>
<glyph name="uni00B3" format="1">
  <advance width="388"/>
  <unicode hex="00B3"/>
  <outline>
    <contour>
      <point x="39" y="383" type="curve" smooth="yes"/>
      <point x="39" y="423"/>
      <point x="72" y="452"/>
      <point x="113" y="452" type="curve" smooth="yes"/>
      <point x="132" y="452"/>
      <point x="136" y="451"/>
      <point x="136" y="438" type="curve" smooth="yes"/>
      <point x="135" y="437"/>
      <point x="131" y="431"/>
      <point x="130" y="427" type="curve" smooth="yes"/>
      <point x="129" y="424"/>
      <point x="119" y="409"/>
      <point x="119" y="388" type="curve" smooth="yes"/>
      <point x="119" y="353"/>
      <point x="149" y="331"/>
      <point x="185" y="331" type="curve" smooth="yes"/>
      <point x="226" y="331"/>
      <point x="260" y="359"/>
      <point x="260" y="408" type="curve" smooth="yes"/>
      <point x="260" y="449"/>
      <point x="239" y="490"/>
      <point x="171" y="490" type="curve" smooth="yes"/>
      <point x="158" y="490"/>
      <point x="145" y="488"/>
      <point x="132" y="485" type="curve" smooth="yes"/>
      <point x="131" y="484"/>
      <point x="128" y="484"/>
      <point x="123" y="484" type="curve" smooth="yes"/>
      <point x="110" y="484"/>
      <point x="104" y="490"/>
      <point x="104" y="501" type="curve" smooth="yes"/>
      <point x="104" y="517"/>
      <point x="108" y="520"/>
      <point x="145" y="527" type="curve" smooth="yes"/>
      <point x="226" y="543"/>
      <point x="248" y="580"/>
      <point x="248" y="621" type="curve" smooth="yes"/>
      <point x="248" y="662"/>
      <point x="219" y="686"/>
      <point x="184" y="686" type="curve" smooth="yes"/>
      <point x="155" y="686"/>
      <point x="130" y="667"/>
      <point x="130" y="632" type="curve" smooth="yes"/>
      <point x="130" y="618"/>
      <point x="134" y="605"/>
      <point x="141" y="592" type="curve" smooth="yes"/>
      <point x="147" y="581" type="line"/>
      <point x="147" y="572"/>
      <point x="140" y="568"/>
      <point x="125" y="568" type="curve" smooth="yes"/>
      <point x="82" y="568"/>
      <point x="51" y="596"/>
      <point x="51" y="636" type="curve" smooth="yes"/>
      <point x="51" y="697"/>
      <point x="110" y="732"/>
      <point x="185" y="732" type="curve" smooth="yes"/>
      <point x="225" y="732"/>
      <point x="260" y="722"/>
      <point x="289" y="703" type="curve" smooth="yes"/>
      <point x="319" y="684"/>
      <point x="334" y="658"/>
      <point x="334" y="623" type="curve" smooth="yes"/>
      <point x="334" y="578"/>
      <point x="309" y="543"/>
      <point x="258" y="519" type="curve"/>
      <point x="315" y="499"/>
      <point x="346" y="456"/>
      <point x="346" y="404" type="curve" smooth="yes"/>
      <point x="346" y="325"/>
      <point x="286" y="281"/>
      <point x="186" y="281" type="curve" smooth="yes"/>
      <point x="106" y="281"/>
      <point x="39" y="319"/>
    </contour>
  </outline>
</glyph>
<glyph name="acute" format="1">
  <advance width="288"/>
  <unicode hex="00B4"/>
  <outline>
    <contour>
      <point x="261" y="697" type="curve" smooth="yes"/>
      <point x="261" y="668"/>
      <point x="245" y="645"/>
      <point x="205" y="625" type="curve" smooth="yes"/>
      <point x="92" y="569" type="line"/>
      <point x="63" y="604" type="line"/>
      <point x="219" y="760" type="line"/>
      <point x="244" y="748"/>
      <point x="261" y="725"/>
    </contour>
  </outline>
</glyph>
<glyph name="uni00B5" format="1">
  <advance width="614"/>
  <unicode hex="00B5"/>
  <outline>
    <contour>
      <point x="421" y="82" type="curve"/>
      <point x="394" y="26"/>
      <point x="332" y="-14"/>
      <point x="272" y="-14" type="curve" smooth="yes"/>
      <point x="237" y="-14"/>
      <point x="208" y="-3"/>
      <point x="185" y="20" type="curve"/>
      <point x="185" y="-209" type="line"/>
      <point x="82" y="-196" type="line"/>
      <point x="70" y="-183" type="line"/>
      <point x="82" y="-165" type="line" smooth="yes"/>
      <point x="93" y="-149"/>
      <point x="96" y="-137"/>
      <point x="96" y="-114" type="curve" smooth="yes"/>
      <point x="96" y="381" type="line" smooth="yes"/>
      <point x="96" y="401"/>
      <point x="91" y="410"/>
      <point x="74" y="414" type="curve" smooth="yes"/>
      <point x="22" y="425" type="line"/>
      <point x="22" y="458" type="line"/>
      <point x="34" y="467"/>
      <point x="55" y="476"/>
      <point x="85" y="485" type="curve" smooth="yes"/>
      <point x="116" y="494"/>
      <point x="141" y="498"/>
      <point x="162" y="498" type="curve" smooth="yes"/>
      <point x="178" y="498"/>
      <point x="185" y="484"/>
      <point x="185" y="452" type="curve" smooth="yes"/>
      <point x="185" y="175" type="line" smooth="yes"/>
      <point x="185" y="95"/>
      <point x="219" y="53"/>
      <point x="286" y="53" type="curve" smooth="yes"/>
      <point x="325" y="53"/>
      <point x="358" y="69"/>
      <point x="383" y="100" type="curve" smooth="yes"/>
      <point x="408" y="131"/>
      <point x="421" y="171"/>
      <point x="421" y="220" type="curve" smooth="yes"/>
      <point x="421" y="409" type="line" smooth="yes"/>
      <point x="420" y="426"/>
      <point x="418" y="437"/>
      <point x="407" y="454" type="curve" smooth="yes"/>
      <point x="395" y="472" type="line"/>
      <point x="407" y="485" type="line"/>
      <point x="511" y="498" type="line"/>
      <point x="511" y="0" type="line"/>
      <point x="499" y="-14" type="line"/>
      <point x="446" y="-14"/>
      <point x="421" y="17"/>
    </contour>
  </outline>
</glyph>
<glyph name="paragraph" format="1">
  <advance width="616"/>
  <unicode hex="00B6"/>
  <outline>
    <contour>
      <point x="490" y="636" type="curve" smooth="yes"/>
      <point x="490" y="-20" type="line" smooth="yes"/>
      <point x="490" y="-69"/>
      <point x="475" y="-112"/>
      <point x="445" y="-148" type="curve" smooth="yes"/>
      <point x="416" y="-184"/>
      <point x="369" y="-202"/>
      <point x="306" y="-202" type="curve" smooth="yes"/>
      <point x="219" y="-202"/>
      <point x="157" y="-156"/>
      <point x="157" y="-91" type="curve" smooth="yes"/>
      <point x="157" y="-34"/>
      <point x="199" y="7"/>
      <point x="255" y="7" type="curve" smooth="yes"/>
      <point x="268" y="7"/>
      <point x="274" y="3"/>
      <point x="274" y="-4" type="curve" smooth="yes"/>
      <point x="274" y="-12"/>
      <point x="250" y="-35"/>
      <point x="250" y="-86" type="curve" smooth="yes"/>
      <point x="250" y="-129"/>
      <point x="282" y="-157"/>
      <point x="326" y="-157" type="curve" smooth="yes"/>
      <point x="382" y="-157"/>
      <point x="424" y="-120"/>
      <point x="424" y="-59" type="curve" smooth="yes"/>
      <point x="424" y="-10"/>
      <point x="400" y="39"/>
      <point x="331" y="119" type="curve" smooth="yes"/>
      <point x="171" y="304" type="line" smooth="yes"/>
      <point x="100" y="387"/>
      <point x="67" y="469"/>
      <point x="67" y="541" type="curve" smooth="yes"/>
      <point x="67" y="655"/>
      <point x="155" y="732"/>
      <point x="278" y="732" type="curve" smooth="yes"/>
      <point x="323" y="732"/>
      <point x="359" y="728"/>
      <point x="420" y="717" type="curve" smooth="yes"/>
      <point x="453" y="712"/>
      <point x="481" y="708"/>
      <point x="504" y="706" type="curve"/>
      <point x="515" y="693" type="line"/>
      <point x="503" y="675" type="line" smooth="yes"/>
      <point x="494" y="659"/>
      <point x="490" y="651"/>
    </contour>
    <contour>
      <point x="244" y="358" type="curve" smooth="yes"/>
      <point x="398" y="180" type="line"/>
      <point x="398" y="497" type="line" smooth="yes"/>
      <point x="398" y="608"/>
      <point x="348" y="676"/>
      <point x="249" y="676" type="curve" smooth="yes"/>
      <point x="193" y="676"/>
      <point x="144" y="635"/>
      <point x="144" y="567" type="curve" smooth="yes"/>
      <point x="144" y="511"/>
      <point x="175" y="439"/>
    </contour>
  </outline>
</glyph>
<glyph name="middot" format="1">
  <advance width="191"/>
  <unicode hex="00B7"/>
  <outline>
    <contour>
      <point x="94" y="387" type="curve" smooth="yes"/>
      <point x="107" y="387"/>
      <point x="120" y="379"/>
      <point x="135" y="364" type="curve" smooth="yes"/>
      <point x="150" y="349"/>
      <point x="157" y="334"/>
      <point x="157" y="321" type="curve" smooth="yes"/>
      <point x="157" y="308"/>
      <point x="150" y="294"/>
      <point x="135" y="279" type="curve" smooth="yes"/>
      <point x="120" y="264"/>
      <point x="107" y="256"/>
      <point x="94" y="256" type="curve" smooth="yes"/>
      <point x="83" y="256"/>
      <point x="70" y="264"/>
      <point x="55" y="279" type="curve" smooth="yes"/>
      <point x="40" y="294"/>
      <point x="33" y="308"/>
      <point x="33" y="321" type="curve" smooth="yes"/>
      <point x="33" y="334"/>
      <point x="40" y="348"/>
      <point x="54" y="363" type="curve" smooth="yes"/>
      <point x="69" y="379"/>
      <point x="82" y="387"/>
    </contour>
  </outline>
</glyph>
<glyph name="cedilla" format="1">
  <advance width="350"/>
  <unicode hex="00B8"/>
  <outline>
    <contour>
      <point x="226" y="-177" type="curve" smooth="yes"/>
      <point x="226" y="-137"/>
      <point x="202" y="-103"/>
      <point x="159" y="-103" type="curve" smooth="yes"/>
      <point x="141" y="-103"/>
      <point x="123" y="-109"/>
      <point x="104" y="-120" type="curve"/>
      <point x="84" y="-102" type="line"/>
      <point x="202" y="51" type="line"/>
      <point x="226" y="29" type="line"/>
      <point x="149" y="-70" type="line"/>
      <point x="160" y="-67"/>
      <point x="173" y="-66"/>
      <point x="187" y="-66" type="curve" smooth="yes"/>
      <point x="251" y="-66"/>
      <point x="300" y="-106"/>
      <point x="300" y="-179" type="curve" smooth="yes"/>
      <point x="300" y="-242"/>
      <point x="240" y="-295"/>
      <point x="164" y="-295" type="curve" smooth="yes"/>
      <point x="105" y="-295"/>
      <point x="55" y="-266"/>
      <point x="55" y="-218" type="curve" smooth="yes"/>
      <point x="55" y="-183"/>
      <point x="83" y="-160"/>
      <point x="119" y="-160" type="curve" smooth="yes"/>
      <point x="130" y="-160"/>
      <point x="136" y="-165"/>
      <point x="136" y="-170" type="curve" smooth="yes"/>
      <point x="136" y="-174"/>
      <point x="122" y="-189"/>
      <point x="122" y="-214" type="curve" smooth="yes"/>
      <point x="122" y="-237"/>
      <point x="140" y="-253"/>
      <point x="163" y="-253" type="curve" smooth="yes"/>
      <point x="202" y="-253"/>
      <point x="226" y="-218"/>
    </contour>
  </outline>
</glyph>
<glyph name="uni00B9" format="1">
  <advance width="319"/>
  <unicode hex="00B9"/>
  <outline>
    <contour>
      <point x="233" y="325" type="curve" smooth="yes"/>
      <point x="244" y="312" type="line"/>
      <point x="231" y="295" type="line"/>
      <point x="76" y="295" type="line"/>
      <point x="65" y="326" type="line"/>
      <point x="99" y="335" type="line" smooth="yes"/>
      <point x="123" y="342"/>
      <point x="129" y="348"/>
      <point x="129" y="380" type="curve" smooth="yes"/>
      <point x="129" y="642" type="line"/>
      <point x="70" y="604" type="line"/>
      <point x="46" y="609"/>
      <point x="25" y="631"/>
      <point x="14" y="655" type="curve"/>
      <point x="189" y="735" type="line"/>
      <point x="204" y="732"/>
      <point x="216" y="721"/>
      <point x="226" y="704" type="curve"/>
      <point x="208" y="693" type="line"/>
      <point x="208" y="421" type="line" smooth="yes"/>
      <point x="208" y="373"/>
      <point x="213" y="348"/>
    </contour>
  </outline>
</glyph>
<glyph name="ordmasculine" format="1">
  <advance width="435"/>
  <unicode hex="00BA"/>
  <outline>
    <contour>
      <point x="217" y="731" type="curve" smooth="yes"/>
      <point x="326" y="731"/>
      <point x="395" y="659"/>
      <point x="395" y="546" type="curve" smooth="yes"/>
      <point x="395" y="434"/>
      <point x="326" y="361"/>
      <point x="217" y="361" type="curve" smooth="yes"/>
      <point x="109" y="361"/>
      <point x="40" y="434"/>
      <point x="40" y="546" type="curve" smooth="yes"/>
      <point x="40" y="659"/>
      <point x="108" y="731"/>
    </contour>
    <contour>
      <point x="222" y="408" type="curve" smooth="yes"/>
      <point x="275" y="408"/>
      <point x="309" y="459"/>
      <point x="309" y="540" type="curve" smooth="yes"/>
      <point x="309" y="627"/>
      <point x="268" y="686"/>
      <point x="211" y="686" type="curve" smooth="yes"/>
      <point x="158" y="686"/>
      <point x="125" y="633"/>
      <point x="125" y="546" type="curve" smooth="yes"/>
      <point x="125" y="463"/>
      <point x="166" y="408"/>
    </contour>
  </outline>
</glyph>
<glyph name="onequarter" format="1">
  <advance width="843"/>
  <unicode hex="00BC"/>
  <outline>
    <contour>
      <point x="244" y="312" type="line"/>
      <point x="231" y="295" type="line"/>
      <point x="76" y="295" type="line"/>
      <point x="65" y="326" type="line"/>
      <point x="99" y="335" type="line" smooth="yes"/>
      <point x="123" y="342"/>
      <point x="129" y="348"/>
      <point x="129" y="380" type="curve" smooth="yes"/>
      <point x="129" y="642" type="line"/>
      <point x="70" y="604" type="line"/>
      <point x="46" y="609"/>
      <point x="25" y="631"/>
      <point x="14" y="655" type="curve"/>
      <point x="189" y="735" type="line"/>
      <point x="203" y="732"/>
      <point x="215" y="722"/>
      <point x="226" y="704" type="curve"/>
      <point x="208" y="693" type="line"/>
      <point x="208" y="421" type="line" smooth="yes"/>
      <point x="208" y="373"/>
      <point x="213" y="348"/>
      <point x="233" y="325" type="curve" smooth="yes"/>
    </contour>
    <contour>
      <point x="518" y="718" type="line"/>
      <point x="590" y="718" type="line"/>
      <point x="290" y="0" type="line"/>
      <point x="219" y="0" type="line"/>
    </contour>
    <contour>
      <point x="798" y="17" type="line"/>
      <point x="786" y="0" type="line"/>
      <point x="631" y="0" type="line"/>
      <point x="619" y="31" type="line"/>
      <point x="653" y="40" type="line" smooth="yes"/>
      <point x="677" y="47"/>
      <point x="683" y="53"/>
      <point x="683" y="85" type="curve" smooth="yes"/>
      <point x="683" y="95" type="line"/>
      <point x="471" y="95" type="line"/>
      <point x="613" y="436" type="line"/>
      <point x="664" y="436" type="line"/>
      <point x="681" y="421" type="line"/>
      <point x="557" y="146" type="line"/>
      <point x="683" y="146" type="line"/>
      <point x="683" y="220" type="line" smooth="yes"/>
      <point x="683" y="244"/>
      <point x="681" y="254"/>
      <point x="669" y="273" type="curve"/>
      <point x="681" y="287" type="line"/>
      <point x="763" y="296" type="line"/>
      <point x="763" y="146" type="line"/>
      <point x="818" y="146" type="line"/>
      <point x="818" y="123"/>
      <point x="811" y="106"/>
      <point x="798" y="95" type="curve"/>
      <point x="764" y="95" type="line"/>
      <point x="767" y="64"/>
      <point x="772" y="46"/>
      <point x="787" y="30" type="curve" smooth="yes"/>
    </contour>
  </outline>
</glyph>
<glyph name="onehalf" format="1">
  <advance width="860"/>
  <unicode hex="00BD"/>
  <outline>
    <contour>
      <point x="244" y="312" type="line"/>
      <point x="231" y="295" type="line"/>
      <point x="76" y="295" type="line"/>
      <point x="65" y="326" type="line"/>
      <point x="99" y="335" type="line" smooth="yes"/>
      <point x="123" y="342"/>
      <point x="129" y="348"/>
      <point x="129" y="380" type="curve" smooth="yes"/>
      <point x="129" y="642" type="line"/>
      <point x="70" y="604" type="line"/>
      <point x="46" y="609"/>
      <point x="25" y="631"/>
      <point x="14" y="655" type="curve"/>
      <point x="189" y="735" type="line"/>
      <point x="203" y="732"/>
      <point x="215" y="722"/>
      <point x="226" y="704" type="curve"/>
      <point x="208" y="693" type="line"/>
      <point x="208" y="421" type="line" smooth="yes"/>
      <point x="208" y="373"/>
      <point x="213" y="348"/>
      <point x="233" y="325" type="curve" smooth="yes"/>
    </contour>
    <contour>
      <point x="518" y="718" type="line"/>
      <point x="590" y="718" type="line"/>
      <point x="290" y="0" type="line"/>
      <point x="219" y="0" type="line"/>
    </contour>
    <contour>
      <point x="507" y="38" type="line"/>
      <point x="697" y="196"/>
      <point x="731" y="250"/>
      <point x="734" y="328" type="curve" smooth="yes"/>
      <point x="734" y="372"/>
      <point x="704" y="397"/>
      <point x="668" y="397" type="curve" smooth="yes"/>
      <point x="632" y="397"/>
      <point x="601" y="371"/>
      <point x="601" y="330" type="curve" smooth="yes"/>
      <point x="601" y="315"/>
      <point x="610" y="298"/>
      <point x="611" y="295" type="curve" smooth="yes"/>
      <point x="616" y="288"/>
      <point x="618" y="281"/>
      <point x="618" y="276" type="curve" smooth="yes"/>
      <point x="618" y="269"/>
      <point x="611" y="265"/>
      <point x="596" y="265" type="curve" smooth="yes"/>
      <point x="553" y="265"/>
      <point x="522" y="294"/>
      <point x="522" y="334" type="curve" smooth="yes"/>
      <point x="522" y="406"/>
      <point x="588" y="444"/>
      <point x="669" y="444" type="curve" smooth="yes"/>
      <point x="765" y="444"/>
      <point x="823" y="403"/>
      <point x="823" y="327" type="curve" smooth="yes"/>
      <point x="823" y="251"/>
      <point x="747" y="169"/>
      <point x="622" y="68" type="curve"/>
      <point x="835" y="68" type="line"/>
      <point x="835" y="38"/>
      <point x="826" y="15"/>
      <point x="809" y="0" type="curve"/>
      <point x="526" y="0" type="line"/>
    </contour>
  </outline>
</glyph>
<glyph name="threequarters" format="1">
  <advance width="869"/>
  <unicode hex="00BE"/>
  <outline>
    <contour>
      <point x="15" y="383" type="curve" smooth="yes"/>
      <point x="15" y="423"/>
      <point x="48" y="452"/>
      <point x="89" y="452" type="curve" smooth="yes"/>
      <point x="108" y="452"/>
      <point x="112" y="451"/>
      <point x="112" y="438" type="curve" smooth="yes"/>
      <point x="111" y="437"/>
      <point x="107" y="431"/>
      <point x="106" y="427" type="curve" smooth="yes"/>
      <point x="105" y="424"/>
      <point x="95" y="409"/>
      <point x="95" y="388" type="curve" smooth="yes"/>
      <point x="95" y="353"/>
      <point x="125" y="331"/>
      <point x="161" y="331" type="curve" smooth="yes"/>
      <point x="202" y="331"/>
      <point x="236" y="359"/>
      <point x="236" y="408" type="curve" smooth="yes"/>
      <point x="236" y="449"/>
      <point x="215" y="490"/>
      <point x="147" y="490" type="curve" smooth="yes"/>
      <point x="136" y="490"/>
      <point x="123" y="488"/>
      <point x="108" y="485" type="curve" smooth="yes"/>
      <point x="107" y="484"/>
      <point x="104" y="484"/>
      <point x="99" y="484" type="curve" smooth="yes"/>
      <point x="86" y="484"/>
      <point x="80" y="490"/>
      <point x="80" y="501" type="curve" smooth="yes"/>
      <point x="80" y="517"/>
      <point x="84" y="520"/>
      <point x="121" y="527" type="curve" smooth="yes"/>
      <point x="202" y="543"/>
      <point x="224" y="580"/>
      <point x="224" y="621" type="curve" smooth="yes"/>
      <point x="224" y="662"/>
      <point x="195" y="686"/>
      <point x="160" y="686" type="curve" smooth="yes"/>
      <point x="131" y="686"/>
      <point x="106" y="667"/>
      <point x="106" y="632" type="curve" smooth="yes"/>
      <point x="106" y="619"/>
      <point x="110" y="605"/>
      <point x="117" y="592" type="curve" smooth="yes"/>
      <point x="123" y="581" type="line"/>
      <point x="123" y="572"/>
      <point x="116" y="568"/>
      <point x="101" y="568" type="curve" smooth="yes"/>
      <point x="58" y="568"/>
      <point x="27" y="596"/>
      <point x="27" y="636" type="curve" smooth="yes"/>
      <point x="27" y="697"/>
      <point x="86" y="732"/>
      <point x="161" y="732" type="curve" smooth="yes"/>
      <point x="201" y="732"/>
      <point x="236" y="722"/>
      <point x="265" y="703" type="curve" smooth="yes"/>
      <point x="295" y="684"/>
      <point x="310" y="657"/>
      <point x="310" y="623" type="curve" smooth="yes"/>
      <point x="310" y="578"/>
      <point x="285" y="543"/>
      <point x="234" y="519" type="curve"/>
      <point x="291" y="499"/>
      <point x="322" y="456"/>
      <point x="322" y="404" type="curve" smooth="yes"/>
      <point x="322" y="324"/>
      <point x="262" y="281"/>
      <point x="162" y="281" type="curve" smooth="yes"/>
      <point x="82" y="281"/>
      <point x="15" y="319"/>
    </contour>
    <contour>
      <point x="544" y="718" type="line"/>
      <point x="616" y="718" type="line"/>
      <point x="316" y="0" type="line"/>
      <point x="245" y="0" type="line"/>
    </contour>
    <contour>
      <point x="824" y="17" type="line"/>
      <point x="812" y="0" type="line"/>
      <point x="657" y="0" type="line"/>
      <point x="645" y="31" type="line"/>
      <point x="679" y="40" type="line" smooth="yes"/>
      <point x="703" y="47"/>
      <point x="709" y="53"/>
      <point x="709" y="85" type="curve" smooth="yes"/>
      <point x="709" y="95" type="line"/>
      <point x="497" y="95" type="line"/>
      <point x="639" y="436" type="line"/>
      <point x="690" y="436" type="line"/>
      <point x="707" y="421" type="line"/>
      <point x="583" y="146" type="line"/>
      <point x="709" y="146" type="line"/>
      <point x="709" y="220" type="line" smooth="yes"/>
      <point x="709" y="244"/>
      <point x="707" y="254"/>
      <point x="695" y="273" type="curve"/>
      <point x="707" y="287" type="line"/>
      <point x="789" y="296" type="line"/>
      <point x="789" y="146" type="line"/>
      <point x="844" y="146" type="line"/>
      <point x="844" y="123"/>
      <point x="837" y="106"/>
      <point x="824" y="95" type="curve"/>
      <point x="790" y="95" type="line"/>
      <point x="793" y="64"/>
      <point x="798" y="46"/>
      <point x="813" y="30" type="curve" smooth="yes"/>
    </contour>
  </outline>
</glyph>
<glyph name="questiondown" format="1">
  <advance width="538"/>
  <unicode hex="00BF"/>
  <outline>
    <contour>
      <point x="305" y="380" type="curve" smooth="yes"/>
      <point x="292" y="380"/>
      <point x="279" y="388"/>
      <point x="264" y="403" type="curve" smooth="yes"/>
      <point x="249" y="418"/>
      <point x="242" y="433"/>
      <point x="242" y="446" type="curve" smooth="yes"/>
      <point x="242" y="459"/>
      <point x="249" y="473"/>
      <point x="264" y="488" type="curve" smooth="yes"/>
      <point x="279" y="503"/>
      <point x="292" y="511"/>
      <point x="305" y="511" type="curve" smooth="yes"/>
      <point x="316" y="511"/>
      <point x="329" y="503"/>
      <point x="344" y="488" type="curve" smooth="yes"/>
      <point x="359" y="473"/>
      <point x="366" y="459"/>
      <point x="366" y="446" type="curve" smooth="yes"/>
      <point x="366" y="433"/>
      <point x="359" y="419"/>
      <point x="344" y="403" type="curve" smooth="yes"/>
      <point x="330" y="388"/>
      <point x="317" y="380"/>
    </contour>
    <contour>
      <point x="288" y="262" type="curve" smooth="yes"/>
      <point x="293" y="281" type="line"/>
      <point x="312" y="281" type="line"/>
      <point x="373" y="219" type="line"/>
      <point x="264" y="123"/>
      <point x="210" y="51"/>
      <point x="191" y="-1" type="curve" smooth="yes"/>
      <point x="182" y="-28"/>
      <point x="178" y="-54"/>
      <point x="178" y="-81" type="curve" smooth="yes"/>
      <point x="178" y="-162"/>
      <point x="225" y="-205"/>
      <point x="300" y="-205" type="curve" smooth="yes"/>
      <point x="357" y="-205"/>
      <point x="394" y="-171"/>
      <point x="394" y="-118" type="curve" smooth="yes"/>
      <point x="394" y="-67"/>
      <point x="370" y="-44"/>
      <point x="370" y="-36" type="curve" smooth="yes"/>
      <point x="370" y="-29"/>
      <point x="376" y="-25"/>
      <point x="389" y="-25" type="curve" smooth="yes"/>
      <point x="446" y="-25"/>
      <point x="487" y="-66"/>
      <point x="487" y="-123" type="curve" smooth="yes"/>
      <point x="487" y="-204"/>
      <point x="399" y="-262"/>
      <point x="276" y="-262" type="curve" smooth="yes"/>
      <point x="159" y="-262"/>
      <point x="64" y="-198"/>
      <point x="64" y="-87" type="curve" smooth="yes"/>
      <point x="64" y="-16"/>
      <point x="111" y="64"/>
      <point x="205" y="154" type="curve" smooth="yes"/>
      <point x="257" y="203"/>
      <point x="277" y="225"/>
    </contour>
  </outline>
</glyph>
<glyph name="Aacute" format="1">
  <advance width="706"/>
  <unicode hex="00C1"/>
  <outline>
    <contour>
      <point x="445" y="34" type="line"/>
      <point x="468" y="40" type="line" smooth="yes"/>
      <point x="500" y="48"/>
      <point x="513" y="60"/>
      <point x="513" y="84" type="curve" smooth="yes"/>
      <point x="513" y="95"/>
      <point x="509" y="111"/>
      <point x="502" y="133" type="curve" smooth="yes"/>
      <point x="454" y="273" type="line"/>
      <point x="223" y="273" type="line"/>
      <point x="199" y="200" type="line" smooth="yes"/>
      <point x="184" y="154"/>
      <point x="176" y="119"/>
      <point x="176" y="95" type="curve" smooth="yes"/>
      <point x="176" y="72"/>
      <point x="181" y="52"/>
      <point x="190" y="34" type="curve" smooth="yes"/>
      <point x="199" y="16" type="line"/>
      <point x="180" y="0" type="line"/>
      <point x="-4" y="0" type="line"/>
      <point x="-16" y="34" type="line"/>
      <point x="7" y="40" type="line" smooth="yes"/>
      <point x="34" y="47"/>
      <point x="53" y="57"/>
      <point x="65" y="69" type="curve" smooth="yes"/>
      <point x="77" y="81"/>
      <point x="88" y="102"/>
      <point x="99" y="133" type="curve" smooth="yes"/>
      <point x="256" y="585" type="line" smooth="yes"/>
      <point x="263" y="607"/>
      <point x="267" y="623"/>
      <point x="267" y="634" type="curve" smooth="yes"/>
      <point x="267" y="658"/>
      <point x="254" y="670"/>
      <point x="222" y="678" type="curve" smooth="yes"/>
      <point x="199" y="684" type="line"/>
      <point x="211" y="718" type="line"/>
      <point x="404" y="718" type="line"/>
      <point x="605" y="138" type="line" smooth="yes"/>
      <point x="616" y="107"/>
      <point x="627" y="84"/>
      <point x="640" y="68" type="curve" smooth="yes"/>
      <point x="653" y="52"/>
      <point x="671" y="35"/>
      <point x="695" y="16" type="curve"/>
      <point x="682" y="0" type="line"/>
      <point x="457" y="0" type="line"/>
    </contour>
    <contour>
      <point x="244" y="335" type="line"/>
      <point x="433" y="335" type="line"/>
      <point x="337" y="615" type="line"/>
    </contour>
    <contour>
      <point x="452" y="918" type="curve" smooth="yes"/>
      <point x="452" y="889"/>
      <point x="436" y="866"/>
      <point x="396" y="846" type="curve" smooth="yes"/>
      <point x="283" y="790" type="line"/>
      <point x="254" y="825" type="line"/>
      <point x="410" y="981" type="line"/>
      <point x="435" y="969"/>
      <point x="452" y="946"/>
    </contour>
  </outline>
</glyph>
<glyph name="Atilde" format="1">
  <advance width="706"/>
  <unicode hex="00C3"/>
  <outline>
    <contour>
      <point x="445" y="34" type="line"/>
      <point x="468" y="40" type="line" smooth="yes"/>
      <point x="500" y="48"/>
      <point x="513" y="60"/>
      <point x="513" y="84" type="curve" smooth="yes"/>
      <point x="513" y="95"/>
      <point x="509" y="111"/>
      <point x="502" y="133" type="curve" smooth="yes"/>
      <point x="454" y="273" type="line"/>
      <point x="223" y="273" type="line"/>
      <point x="199" y="200" type="line" smooth="yes"/>
      <point x="184" y="154"/>
      <point x="176" y="119"/>
      <point x="176" y="95" type="curve" smooth="yes"/>
      <point x="176" y="72"/>
      <point x="181" y="52"/>
      <point x="190" y="34" type="curve" smooth="yes"/>
      <point x="199" y="16" type="line"/>
      <point x="180" y="0" type="line"/>
      <point x="-4" y="0" type="line"/>
      <point x="-16" y="34" type="line"/>
      <point x="7" y="40" type="line" smooth="yes"/>
      <point x="34" y="47"/>
      <point x="53" y="57"/>
      <point x="65" y="69" type="curve" smooth="yes"/>
      <point x="77" y="81"/>
      <point x="88" y="102"/>
      <point x="99" y="133" type="curve" smooth="yes"/>
      <point x="256" y="585" type="line" smooth="yes"/>
      <point x="263" y="607"/>
      <point x="267" y="623"/>
      <point x="267" y="634" type="curve" smooth="yes"/>
      <point x="267" y="658"/>
      <point x="254" y="670"/>
      <point x="222" y="678" type="curve" smooth="yes"/>
      <point x="199" y="684" type="line"/>
      <point x="211" y="718" type="line"/>
      <point x="404" y="718" type="line"/>
      <point x="605" y="138" type="line" smooth="yes"/>
      <point x="616" y="107"/>
      <point x="627" y="84"/>
      <point x="640" y="68" type="curve" smooth="yes"/>
      <point x="653" y="52"/>
      <point x="671" y="35"/>
      <point x="695" y="16" type="curve"/>
      <point x="682" y="0" type="line"/>
      <point x="457" y="0" type="line"/>
    </contour>
    <contour>
      <point x="244" y="335" type="line"/>
      <point x="433" y="335" type="line"/>
      <point x="337" y="615" type="line"/>
    </contour>
    <contour>
      <point x="386" y="816" type="curve" smooth="yes"/>
      <point x="365" y="816"/>
      <point x="349" y="824"/>
      <point x="330" y="836" type="curve" smooth="yes"/>
      <point x="313" y="847"/>
      <point x="304" y="851"/>
      <point x="291" y="851" type="curve" smooth="yes"/>
      <point x="272" y="851"/>
      <point x="250" y="838"/>
      <point x="224" y="812" type="curve"/>
      <point x="189" y="843" type="line"/>
      <point x="233" y="903"/>
      <point x="279" y="940"/>
      <point x="318" y="940" type="curve" smooth="yes"/>
      <point x="338" y="940"/>
      <point x="351" y="933"/>
      <point x="372" y="921" type="curve" smooth="yes"/>
      <point x="391" y="910"/>
      <point x="399" y="905"/>
      <point x="412" y="905" type="curve" smooth="yes"/>
      <point x="431" y="905"/>
      <point x="453" y="918"/>
      <point x="480" y="944" type="curve"/>
      <point x="514" y="913" type="line"/>
      <point x="471" y="853"/>
      <point x="423" y="816"/>
    </contour>
  </outline>
</glyph>
<glyph name="Adieresis" format="1">
  <advance width="706"/>
  <unicode hex="00C4"/>
  <outline>
    <contour>
      <point x="445" y="34" type="line"/>
      <point x="468" y="40" type="line" smooth="yes"/>
      <point x="500" y="48"/>
      <point x="513" y="60"/>
      <point x="513" y="84" type="curve" smooth="yes"/>
      <point x="513" y="95"/>
      <point x="509" y="111"/>
      <point x="502" y="133" type="curve" smooth="yes"/>
      <point x="454" y="273" type="line"/>
      <point x="223" y="273" type="line"/>
      <point x="199" y="200" type="line" smooth="yes"/>
      <point x="184" y="154"/>
      <point x="176" y="119"/>
      <point x="176" y="95" type="curve" smooth="yes"/>
      <point x="176" y="72"/>
      <point x="181" y="52"/>
      <point x="190" y="34" type="curve" smooth="yes"/>
      <point x="199" y="16" type="line"/>
      <point x="180" y="0" type="line"/>
      <point x="-4" y="0" type="line"/>
      <point x="-16" y="34" type="line"/>
      <point x="7" y="40" type="line" smooth="yes"/>
      <point x="34" y="47"/>
      <point x="53" y="57"/>
      <point x="65" y="69" type="curve" smooth="yes"/>
      <point x="77" y="81"/>
      <point x="88" y="102"/>
      <point x="99" y="133" type="curve" smooth="yes"/>
      <point x="256" y="585" type="line" smooth="yes"/>
      <point x="263" y="607"/>
      <point x="267" y="623"/>
      <point x="267" y="634" type="curve" smooth="yes"/>
      <point x="267" y="658"/>
      <point x="254" y="670"/>
      <point x="222" y="678" type="curve" smooth="yes"/>
      <point x="199" y="684" type="line"/>
      <point x="211" y="718" type="line"/>
      <point x="404" y="718" type="line"/>
      <point x="605" y="138" type="line" smooth="yes"/>
      <point x="616" y="107"/>
      <point x="627" y="84"/>
      <point x="640" y="68" type="curve" smooth="yes"/>
      <point x="653" y="52"/>
      <point x="671" y="35"/>
      <point x="695" y="16" type="curve"/>
      <point x="682" y="0" type="line"/>
      <point x="457" y="0" type="line"/>
    </contour>
    <contour>
      <point x="244" y="335" type="line"/>
      <point x="433" y="335" type="line"/>
      <point x="337" y="615" type="line"/>
    </contour>
    <contour>
      <point x="257" y="945" type="curve" smooth="yes"/>
      <point x="270" y="945"/>
      <point x="283" y="937"/>
      <point x="298" y="922" type="curve" smooth="yes"/>
      <point x="313" y="907"/>
      <point x="320" y="892"/>
      <point x="320" y="879" type="curve" smooth="yes"/>
      <point x="320" y="866"/>
      <point x="313" y="852"/>
      <point x="298" y="837" type="curve" smooth="yes"/>
      <point x="283" y="822"/>
      <point x="270" y="814"/>
      <point x="257" y="814" type="curve" smooth="yes"/>
      <point x="246" y="814"/>
      <point x="233" y="822"/>
      <point x="218" y="837" type="curve" smooth="yes"/>
      <point x="203" y="852"/>
      <point x="196" y="866"/>
      <point x="196" y="879" type="curve" smooth="yes"/>
      <point x="196" y="892"/>
      <point x="203" y="906"/>
      <point x="217" y="921" type="curve" smooth="yes"/>
      <point x="232" y="937"/>
      <point x="245" y="945"/>
    </contour>
    <contour>
      <point x="446" y="945" type="curve" smooth="yes"/>
      <point x="459" y="945"/>
      <point x="472" y="937"/>
      <point x="487" y="922" type="curve" smooth="yes"/>
      <point x="502" y="907"/>
      <point x="509" y="892"/>
      <point x="509" y="879" type="curve" smooth="yes"/>
      <point x="509" y="866"/>
      <point x="502" y="852"/>
      <point x="487" y="837" type="curve" smooth="yes"/>
      <point x="472" y="822"/>
      <point x="459" y="814"/>
      <point x="446" y="814" type="curve" smooth="yes"/>
      <point x="435" y="814"/>
      <point x="422" y="822"/>
      <point x="407" y="837" type="curve" smooth="yes"/>
      <point x="392" y="852"/>
      <point x="385" y="866"/>
      <point x="385" y="879" type="curve" smooth="yes"/>
      <point x="385" y="892"/>
      <point x="392" y="906"/>
      <point x="406" y="921" type="curve" smooth="yes"/>
      <point x="421" y="937"/>
      <point x="434" y="945"/>
    </contour>
  </outline>
</glyph>
<glyph name="Ccedilla" format="1">
  <advance width="617"/>
  <unicode hex="00C7"/>
  <outline>
    <contour>
      <point x="591" y="121" type="curve" smooth="yes"/>
      <point x="591" y="119"/>
      <point x="590" y="116"/>
      <point x="588" y="113" type="curve" smooth="yes"/>
      <point x="531" y="28"/>
      <point x="453" y="-14"/>
      <point x="355" y="-14" type="curve" smooth="yes"/>
      <point x="342" y="-14"/>
      <point x="333" y="-14"/>
      <point x="326" y="-13" type="curve"/>
      <point x="282" y="-70" type="line"/>
      <point x="293" y="-67"/>
      <point x="306" y="-66"/>
      <point x="320" y="-66" type="curve" smooth="yes"/>
      <point x="384" y="-66"/>
      <point x="433" y="-106"/>
      <point x="433" y="-179" type="curve" smooth="yes"/>
      <point x="433" y="-242"/>
      <point x="373" y="-295"/>
      <point x="297" y="-295" type="curve" smooth="yes"/>
      <point x="238" y="-295"/>
      <point x="188" y="-266"/>
      <point x="188" y="-218" type="curve" smooth="yes"/>
      <point x="188" y="-183"/>
      <point x="216" y="-160"/>
      <point x="252" y="-160" type="curve" smooth="yes"/>
      <point x="263" y="-160"/>
      <point x="269" y="-165"/>
      <point x="269" y="-170" type="curve" smooth="yes"/>
      <point x="269" y="-174"/>
      <point x="255" y="-189"/>
      <point x="255" y="-214" type="curve" smooth="yes"/>
      <point x="255" y="-237"/>
      <point x="273" y="-253"/>
      <point x="296" y="-253" type="curve" smooth="yes"/>
      <point x="335" y="-253"/>
      <point x="359" y="-218"/>
      <point x="359" y="-177" type="curve" smooth="yes"/>
      <point x="359" y="-137"/>
      <point x="335" y="-103"/>
      <point x="292" y="-103" type="curve" smooth="yes"/>
      <point x="274" y="-103"/>
      <point x="256" y="-109"/>
      <point x="237" y="-120" type="curve"/>
      <point x="217" y="-102" type="line"/>
      <point x="289" y="-8" type="line"/>
      <point x="206" y="7"/>
      <point x="143" y="47"/>
      <point x="100" y="114" type="curve" smooth="yes"/>
      <point x="57" y="181"/>
      <point x="35" y="262"/>
      <point x="35" y="358" type="curve" smooth="yes"/>
      <point x="35" y="569"/>
      <point x="144" y="732"/>
      <point x="358" y="732" type="curve" smooth="yes"/>
      <point x="490" y="732"/>
      <point x="583" y="672"/>
      <point x="583" y="585" type="curve" smooth="yes"/>
      <point x="583" y="517"/>
      <point x="537" y="468"/>
      <point x="476" y="468" type="curve" smooth="yes"/>
      <point x="462" y="468"/>
      <point x="455" y="472"/>
      <point x="455" y="480" type="curve" smooth="yes"/>
      <point x="455" y="489"/>
      <point x="488" y="524"/>
      <point x="485" y="571" type="curve" smooth="yes"/>
      <point x="485" y="634"/>
      <point x="434" y="676"/>
      <point x="358" y="676" type="curve" smooth="yes"/>
      <point x="208" y="676"/>
      <point x="148" y="520"/>
      <point x="148" y="358" type="curve" smooth="yes"/>
      <point x="148" y="190"/>
      <point x="233" y="55"/>
      <point x="364" y="55" type="curve" smooth="yes"/>
      <point x="449" y="55"/>
      <point x="512" y="88"/>
      <point x="552" y="145" type="curve" smooth="yes"/>
      <point x="554" y="148"/>
      <point x="556" y="149"/>
      <point x="559" y="149" type="curve" smooth="yes"/>
      <point x="571" y="149"/>
      <point x="591" y="133"/>
    </contour>
  </outline>
</glyph>
<glyph name="Edieresis" format="1">
  <advance width="610"/>
  <unicode hex="00CB"/>
  <outline>
    <contour>
      <point x="226" y="133" type="line" smooth="yes"/>
      <point x="226" y="70"/>
      <point x="237" y="57"/>
      <point x="290" y="57" type="curve" smooth="yes"/>
      <point x="398" y="57" type="line" smooth="yes"/>
      <point x="470" y="57"/>
      <point x="487" y="73"/>
      <point x="507" y="146" type="curve" smooth="yes"/>
      <point x="513" y="169" type="line"/>
      <point x="547" y="157" type="line"/>
      <point x="547" y="-14" type="line"/>
      <point x="527" y="-25" type="line"/>
      <point x="519" y="-14" type="line" smooth="yes"/>
      <point x="512" y="-5"/>
      <point x="498" y="0"/>
      <point x="477" y="0" type="curve" smooth="yes"/>
      <point x="56" y="0" type="line"/>
      <point x="45" y="32" type="line"/>
      <point x="66" y="38" type="line" smooth="yes"/>
      <point x="115" y="53"/>
      <point x="127" y="69"/>
      <point x="127" y="126" type="curve" smooth="yes"/>
      <point x="127" y="517" type="line" smooth="yes"/>
      <point x="127" y="597"/>
      <point x="115" y="640"/>
      <point x="82" y="684" type="curve" smooth="yes"/>
      <point x="69" y="702" type="line"/>
      <point x="82" y="718" type="line"/>
      <point x="388" y="718" type="line" smooth="yes"/>
      <point x="445" y="718"/>
      <point x="483" y="725"/>
      <point x="502" y="739" type="curve" smooth="yes"/>
      <point x="520" y="752" type="line"/>
      <point x="536" y="739" type="line"/>
      <point x="536" y="561" type="line"/>
      <point x="502" y="549" type="line"/>
      <point x="496" y="572" type="line" smooth="yes"/>
      <point x="476" y="645"/>
      <point x="459" y="661"/>
      <point x="387" y="661" type="curve" smooth="yes"/>
      <point x="290" y="661" type="line" smooth="yes"/>
      <point x="237" y="661"/>
      <point x="226" y="648"/>
      <point x="226" y="585" type="curve" smooth="yes"/>
      <point x="226" y="393" type="line"/>
      <point x="353" y="393" type="line" smooth="yes"/>
      <point x="385" y="393"/>
      <point x="408" y="406"/>
      <point x="432" y="439" type="curve" smooth="yes"/>
      <point x="440" y="450" type="line"/>
      <point x="460" y="439" type="line"/>
      <point x="460" y="268" type="line"/>
      <point x="426" y="256" type="line"/>
      <point x="420" y="279" type="line" smooth="yes"/>
      <point x="408" y="324"/>
      <point x="384" y="336"/>
      <point x="311" y="336" type="curve" smooth="yes"/>
      <point x="226" y="336" type="line"/>
    </contour>
    <contour>
      <point x="223" y="945" type="curve" smooth="yes"/>
      <point x="236" y="945"/>
      <point x="249" y="937"/>
      <point x="264" y="922" type="curve" smooth="yes"/>
      <point x="279" y="907"/>
      <point x="286" y="892"/>
      <point x="286" y="879" type="curve" smooth="yes"/>
      <point x="286" y="866"/>
      <point x="279" y="852"/>
      <point x="264" y="837" type="curve" smooth="yes"/>
      <point x="249" y="822"/>
      <point x="236" y="814"/>
      <point x="223" y="814" type="curve" smooth="yes"/>
      <point x="212" y="814"/>
      <point x="199" y="822"/>
      <point x="184" y="837" type="curve" smooth="yes"/>
      <point x="169" y="852"/>
      <point x="162" y="866"/>
      <point x="162" y="879" type="curve" smooth="yes"/>
      <point x="162" y="892"/>
      <point x="169" y="906"/>
      <point x="183" y="921" type="curve" smooth="yes"/>
      <point x="198" y="937"/>
      <point x="211" y="945"/>
    </contour>
    <contour>
      <point x="412" y="945" type="curve" smooth="yes"/>
      <point x="425" y="945"/>
      <point x="438" y="937"/>
      <point x="453" y="922" type="curve" smooth="yes"/>
      <point x="468" y="907"/>
      <point x="475" y="892"/>
      <point x="475" y="879" type="curve" smooth="yes"/>
      <point x="475" y="866"/>
      <point x="468" y="852"/>
      <point x="453" y="837" type="curve" smooth="yes"/>
      <point x="438" y="822"/>
      <point x="425" y="814"/>
      <point x="412" y="814" type="curve" smooth="yes"/>
      <point x="401" y="814"/>
      <point x="388" y="822"/>
      <point x="373" y="837" type="curve" smooth="yes"/>
      <point x="358" y="852"/>
      <point x="351" y="866"/>
      <point x="351" y="879" type="curve" smooth="yes"/>
      <point x="351" y="892"/>
      <point x="358" y="906"/>
      <point x="372" y="921" type="curve" smooth="yes"/>
      <point x="387" y="937"/>
      <point x="400" y="945"/>
    </contour>
  </outline>
</glyph>
